<svg width="154" height="116" viewBox="0 0 154 116" fill="none" xmlns="http://www.w3.org/2000/svg">
<g clip-path="url(#clip0_117_1201)">
<path d="M18.754 90.284H15.1062V88.8115C15.1943 87.0385 15.7273 85.3113 16.6604 83.7745C17.5936 82.2377 18.8998 80.9357 20.4699 79.9776L23.0861 78.5231C23.8079 78.0561 24.6482 77.7823 25.5193 77.7305C26.3904 77.6787 27.2601 77.8507 28.0373 78.2287C28.7697 78.6811 29.3613 79.3121 29.7505 80.056C30.1397 80.7998 30.3122 81.6294 30.2502 82.4582C30.2502 83.1721 30.4472 83.6093 30.6535 83.7164C30.8597 83.8235 31.3474 83.7788 31.9944 83.4219L34.8825 81.8336C35.9022 81.1812 36.7527 80.3169 37.37 79.306C37.9873 78.295 38.3552 77.1639 38.4458 75.9979C38.5347 74.2251 39.0679 72.4983 40.001 70.9615C40.9341 69.4248 42.24 68.1227 43.8095 67.1641L46.2945 65.7988C46.9977 65.2914 47.8426 64.9929 48.7234 64.9406C49.604 64.8883 50.4815 65.0846 51.2454 65.5048C52.0095 65.925 52.6261 66.5504 53.0182 67.3028C53.4102 68.0551 53.5601 68.9008 53.4492 69.7339C53.4492 70.4478 53.6461 70.885 53.8524 70.9921C54.0587 71.0991 54.5463 71.0545 55.1933 70.6976L57.2938 69.5465C58.3143 68.8895 59.1645 68.0203 59.7802 67.0047C60.3958 65.9891 60.7609 64.8536 60.8477 63.6841C60.9355 61.9132 61.4674 60.1882 62.3988 58.6529C63.3303 57.1177 64.6343 55.8168 66.202 54.8591L68.687 53.5385C69.389 53.0266 70.2348 52.7244 71.1174 52.6698C72 52.6153 72.8797 52.811 73.6454 53.2321C74.4112 53.6533 75.0285 54.2811 75.4194 55.036C75.8103 55.7909 75.9573 56.6392 75.8417 57.4736V59.3742H72.2034V57.429C72.2034 56.7062 71.9971 56.2779 71.8001 56.1708C71.6032 56.0638 71.1062 56.1084 70.4499 56.4653L67.9649 57.8305C66.9446 58.4857 66.0944 59.3531 65.4786 60.3674C64.8629 61.3815 64.4978 62.5157 64.411 63.6841C64.326 65.4546 63.7973 67.1802 62.8692 68.7169C61.9411 70.2534 60.6403 71.5567 59.0754 72.5179L56.9843 73.669C56.2802 74.1749 55.435 74.4722 54.5545 74.5239C53.6738 74.5755 52.7967 74.3793 52.0326 73.9595C51.2684 73.5398 50.6511 72.9152 50.2577 72.1638C49.8642 71.4123 49.7121 70.5671 49.8203 69.7339C49.8203 69.0201 49.6233 68.5828 49.417 68.4758C49.2108 68.3687 48.7231 68.4133 48.0761 68.7702L45.5818 70.1444C44.5605 70.7986 43.7096 71.6659 43.0937 72.6802C42.4779 73.6945 42.1133 74.8292 42.0279 75.9979C41.9401 77.7686 41.4083 79.4938 40.4768 81.029C39.5453 82.5643 38.2413 83.8651 36.6735 84.8228L33.7948 86.4111C33.0694 86.8736 32.2279 87.1446 31.3564 87.1964C30.4848 87.2481 29.6145 87.0788 28.8343 86.7056C28.105 86.2507 27.5164 85.6189 27.129 84.8755C26.7417 84.1321 26.5697 83.3038 26.6307 82.4761C26.6307 81.7622 26.4244 81.325 26.2275 81.2179C26.0305 81.1108 25.5336 81.1555 24.8771 81.5124L22.2703 82.9847C21.2596 83.6399 20.4181 84.5046 19.8091 85.5138C19.2 86.523 18.8392 87.6505 18.754 88.8115V90.284Z" fill="#FBFBFB"/>
<path d="M71.5657 50.6296L76.4699 80.6825L153.606 11.0647L71.5657 50.6296Z" fill="#634BFF"/>
<path d="M76.1043 81.5212L71.0218 50.3708L71.3407 50.2102L153.39 10.6274L154 11.3591L76.7888 81.0394L76.1043 81.5212ZM72.1097 50.8615L76.7982 79.6831L150.783 12.9117L72.1097 50.8615Z" fill="#281C1C"/>
<path d="M86.3159 59.3027L75.9542 80.5754L76.1042 81.5212L99.022 65.5311L86.3159 59.3027Z" fill="#281C1C"/>
<path d="M153.606 11.0647L46.5195 36.0493L71.5657 50.6296L153.606 11.0647Z" fill="#634BFF"/>
<path d="M153.606 11.0647L118.113 77.0955L87.1973 59.2582L153.606 11.0647Z" fill="#634BFF"/>
<path d="M153.597 15.7761L118.995 80.1561L88.0507 62.3099L152.94 15.2496C153.02 15.193 153.117 15.1637 153.216 15.1664C153.316 15.1692 153.412 15.2039 153.488 15.265C153.564 15.326 153.616 15.4097 153.636 15.5025C153.656 15.5953 153.642 15.6918 153.597 15.7761Z" fill="#FBFBFB"/>
<path d="M71.0218 50.3706L72.1096 50.8971L72.4191 52.7888L144.492 18.0245L152.565 11.5642L142.26 16.5343L45.4786 39.1186L70.5249 53.6989L71.4907 53.2349L71.0218 50.3706Z" fill="#FBFBFB"/>
<path d="M154.5 11.3591V11.1781L154.384 11.0391L153.774 10.3074L153.577 10.0704L153.277 10.1405L71.0302 29.334L71.0301 29.334L46.2846 35.1072L46.2841 35.1073L45.1313 35.3749L43.9034 35.6599L44.9928 36.2941L71.2955 51.6061L71.5248 51.7395L71.7639 51.6245L102.08 37.0352L102.081 37.035L144.134 16.7537L126.063 29.8443L126.063 29.8446L86.6048 58.4868L86.6036 58.4877L86.0234 58.9062L85.3963 59.3586L86.0661 59.7449L118.061 78.1978L118.507 78.4551L118.751 78.0015L124.002 68.2397L124.002 68.2395L154.44 11.6047L154.5 11.4939V11.368V11.3591ZM145.218 14.0158L101.67 35.0242L77.7414 29.7789L131.177 17.307L131.177 17.3068L145.218 14.0158ZM136.514 24.6845L136.515 24.684L150.684 14.3733L123.465 65.0324L110.251 43.7387L136.514 24.6845ZM98.8111 36.3992L71.6067 49.5284L49.1633 36.4395L73.2946 30.851L98.8111 36.3992ZM122.366 67.0575L117.72 75.7352L88.9961 59.1654L108.633 44.9078L122.366 67.0575Z" fill="#281C1C" stroke="#281C1C"/>
<path d="M108.23 55.6086L102.829 61.6852L111.268 69.4037L116.632 63.2468L108.23 55.6086ZM111.119 66.3877L105.361 61.2123L108.314 57.8483L114.054 62.9702L111.119 66.3877Z" fill="#634BFF"/>
<path d="M111.109 66.3878L104.545 60.454L108.165 56.385L114.662 62.2654L111.109 66.3878ZM105.258 60.4183L111.062 65.7007L114.016 62.301L108.23 57.1078L105.258 60.4183Z" fill="#281C1C"/>
<path d="M111.221 68.8059L102.21 60.5878L108.099 53.9758L117.063 62.0958L111.221 68.8059ZM103.232 60.5431L111.156 67.7708L116.05 62.1582L108.155 55.0198L103.232 60.5431Z" fill="#281C1C"/>
<path d="M116.098 49.648C116.098 54.2077 111.831 57.9287 106.58 57.9287C104.521 57.9822 102.5 57.3888 100.831 56.2405C99.1616 55.0922 97.9359 53.4528 97.3433 51.5754L96.8561 51.9234C97.5225 53.8635 98.8284 55.5474 100.58 56.7256C102.332 57.9037 104.435 58.5134 106.58 58.464C112.141 58.464 116.66 54.5111 116.66 49.648C116.621 47.9386 116.059 46.2771 115.043 44.8667C114.028 43.4563 112.601 42.3582 110.94 41.7065L110.424 42.0813C112.056 42.6586 113.469 43.6881 114.481 45.0368C115.492 46.3856 116.055 47.9918 116.098 49.648Z" fill="#281C1C"/>
<path d="M114.137 49.648C114.137 53.2172 110.809 56.0994 106.72 56.0994C104.944 56.1606 103.208 55.595 101.844 54.5111C100.479 53.4272 99.5849 51.9017 99.3318 50.228L98.8158 50.6027C99.1607 52.3406 100.147 53.9041 101.597 55.0116C103.046 56.1191 104.862 56.6978 106.72 56.6437C111.119 56.6437 114.71 53.5027 114.71 49.648C114.657 48.1361 114.1 46.6793 113.122 45.4877C112.143 44.2961 110.791 43.4314 109.262 43.0181L108.69 43.4286C110.196 43.7398 111.55 44.5207 112.537 45.6473C113.524 46.774 114.087 48.182 114.137 49.648Z" fill="#281C1C"/>
<path d="M22.2704 91.345H18.6602V89.8731C18.7472 88.1022 19.2787 86.3768 20.2103 84.8415C21.1419 83.3061 22.4463 82.0054 24.0146 81.0483L26.6401 79.6027C27.3626 79.1374 28.2028 78.8648 29.0735 78.813C29.9441 78.7612 30.8135 78.9322 31.5913 79.3082C32.315 79.7661 32.8973 80.3995 33.2781 81.1429C33.6588 81.8864 33.8243 82.7132 33.7573 83.5378C33.7573 84.2516 33.9636 84.6889 34.1605 84.796C34.3575 84.903 34.8544 84.8584 35.5109 84.5015L38.4459 82.9132C39.4671 82.259 40.3181 81.3917 40.9339 80.3773C41.5498 79.3629 41.9143 78.2283 41.9998 77.0596C42.0876 75.2888 42.6195 73.5637 43.5509 72.0285C44.4824 70.4932 45.7865 69.1924 47.3541 68.2347L49.8485 66.8606C50.5525 66.3546 51.3977 66.0574 52.2783 66.0057C53.1589 65.954 54.0361 66.1503 54.8002 66.57C55.5644 66.9897 56.1816 67.6143 56.5751 68.3658C56.9685 69.1172 57.1207 69.9623 57.0125 70.7956C57.0125 71.5095 57.2095 71.9467 57.4157 72.0538C57.622 72.1609 58.1096 72.1163 58.7567 71.7593L60.8571 70.6083C61.8759 69.9516 62.7251 69.0838 63.3407 68.0699C63.9562 67.056 64.3222 65.9226 64.411 64.7547C64.4974 62.9824 65.0285 61.2555 65.96 59.7185C66.8916 58.1817 68.1964 56.8794 69.7653 55.9209L72.2034 54.5556C72.9065 54.0453 73.7524 53.7443 74.6349 53.6904C75.5173 53.6365 76.3968 53.8322 77.1626 54.2529C77.9284 54.6735 78.5464 55.3003 78.9387 56.0544C79.3311 56.8085 79.4802 57.6561 79.3675 58.4907V60.3913H75.7855V58.4907C75.7855 57.768 75.5885 57.3396 75.3822 57.2326C75.176 57.1255 74.6883 57.1701 74.0413 57.527L71.547 58.8923C70.5255 59.5482 69.6746 60.4172 69.0588 61.433C68.443 62.4488 68.0785 63.5848 67.9931 64.7547C67.9037 66.5251 67.3713 68.2497 66.4399 69.7847C65.5086 71.3197 64.2054 72.6208 62.6387 73.5796L60.5383 74.7307C59.8351 75.238 58.9902 75.5365 58.1094 75.5889C57.2287 75.6411 56.3513 75.4449 55.5873 75.0247C54.8233 74.6045 54.2066 73.979 53.8145 73.2267C53.4225 72.4744 53.2727 71.6287 53.3836 70.7956C53.3836 70.0818 53.1773 69.6535 52.9803 69.5375C52.7835 69.4215 52.2864 69.475 51.6301 69.8319L49.1451 71.2061C48.1238 71.8602 47.273 72.7275 46.6571 73.7419C46.0412 74.7563 45.6767 75.8909 45.5912 77.0596C45.5031 78.8326 44.9702 80.5597 44.0371 82.0966C43.1039 83.6333 41.7977 84.9353 40.2275 85.8935L37.3488 87.4461C36.6263 87.9113 35.7861 88.184 34.9154 88.2358C34.0447 88.2875 33.1754 88.1165 32.3976 87.7406C31.6669 87.287 31.0772 86.6555 30.6897 85.9117C30.3022 85.168 30.1311 84.339 30.194 83.511C30.194 82.7972 29.9878 82.36 29.7908 82.2529C29.5939 82.1458 29.0969 82.1904 28.4405 82.5473L25.8243 83.9929C24.803 84.647 23.9521 85.5142 23.3362 86.5287C22.7204 87.543 22.3559 88.6777 22.2704 89.8464V91.345Z" fill="#281C1C"/>
<path d="M2.70977 116H-0.000213623V115.295C0.0402628 114.368 0.317586 113.464 0.807753 112.662C1.29792 111.859 1.98617 111.183 2.81291 110.691L4.06007 110.004C4.4744 109.747 4.95261 109.598 5.4465 109.573C5.94039 109.548 6.43249 109.647 6.8732 109.861C7.29578 110.117 7.63857 110.477 7.86608 110.902C8.09359 111.328 8.19757 111.802 8.16724 112.279C8.1621 112.311 8.1621 112.345 8.16724 112.377H8.25163L9.62068 111.628C10.0304 111.356 10.3718 111.002 10.6199 110.59C10.868 110.178 11.0168 109.719 11.0554 109.245C11.0975 108.318 11.3755 107.415 11.8655 106.613C12.3555 105.811 13.0428 105.135 13.8685 104.641L15.0594 103.99C15.4738 103.733 15.952 103.584 16.4459 103.559C16.9397 103.534 17.4318 103.633 17.8726 103.847C18.2966 104.104 18.6403 104.466 18.8679 104.892C19.0955 105.319 19.1986 105.796 19.1665 106.274V106.363L19.2604 106.318L20.2543 105.774C20.6654 105.503 21.0081 105.149 21.2579 104.737C21.5076 104.325 21.6581 103.866 21.6983 103.392C21.7389 102.465 22.0162 101.56 22.5063 100.758C22.9965 99.956 23.6848 99.2798 24.5115 98.787L25.6931 98.136C26.1082 97.8806 26.5868 97.7331 27.0807 97.7097C27.5746 97.6864 28.0663 97.7871 28.5061 98.002C28.9288 98.2592 29.2715 98.6188 29.499 99.0433C29.7265 99.4686 29.8305 99.9443 29.8002 100.42V101.313H27.1933V100.42C27.1933 100.42 27.1933 100.349 27.1933 100.322L27.109 100.367L25.9275 101.018C25.5162 101.287 25.1731 101.638 24.9232 102.049C24.6734 102.46 24.5231 102.919 24.4834 103.392C24.4444 104.321 24.1678 105.226 23.6776 106.03C23.1873 106.834 22.4982 107.512 21.6702 108.005L20.6294 108.505C20.2151 108.761 19.7369 108.91 19.243 108.935C18.7491 108.96 18.2569 108.861 17.8163 108.647C17.3937 108.391 17.0509 108.031 16.8234 107.606C16.5959 107.18 16.4919 106.706 16.5222 106.229C16.5222 106.229 16.5222 106.158 16.5222 106.131H16.4378L15.2563 106.782C14.8445 107.05 14.5011 107.402 14.2512 107.813C14.0013 108.224 13.8514 108.683 13.8123 109.156C13.7708 110.084 13.4933 110.989 13.0033 111.792C12.5133 112.596 11.8255 113.274 10.9991 113.769L9.63005 114.519C9.21569 114.776 8.73752 114.924 8.24364 114.95C7.74975 114.975 7.25764 114.875 6.81693 114.662C6.3929 114.404 6.04919 114.043 5.82159 113.616C5.594 113.189 5.49085 112.712 5.5229 112.234C5.5229 112.234 5.5229 112.172 5.5229 112.145H5.4385L4.19135 112.832C3.78134 113.101 3.43969 113.453 3.19145 113.864C2.94321 114.275 2.79465 114.733 2.75665 115.206L2.70977 116Z" fill="#FBFBFB"/>
<path d="M97.6243 15.0442H95.6457V14.4642C95.6781 13.7198 95.8997 12.9939 96.2923 12.3489C96.6841 11.7039 97.2343 11.159 97.8963 10.7611L98.9283 10.199C99.2471 9.97287 99.629 9.84086 100.027 9.81919C100.424 9.79752 100.82 9.88726 101.164 10.0772C101.508 10.2671 101.786 10.5489 101.963 10.8877C102.142 11.2267 102.211 11.6077 102.163 11.9836C102.152 12.0725 102.152 12.1624 102.163 12.2513C102.233 12.2052 102.309 12.1663 102.388 12.1353L103.523 11.5106C103.881 11.2761 104.18 10.9686 104.397 10.6105C104.614 10.2523 104.744 9.85273 104.779 9.44053C104.811 8.69688 105.031 7.97153 105.422 7.3266C105.812 6.68166 106.36 6.13637 107.02 5.73745L107.959 5.20206C108.285 4.99332 108.665 4.87237 109.057 4.85195C109.45 4.83153 109.842 4.91241 110.19 5.08606C110.52 5.28751 110.786 5.56916 110.963 5.90179C111.139 6.23443 111.219 6.60593 111.193 6.97776C111.177 7.06632 111.177 7.15688 111.193 7.24545C111.193 7.24545 111.296 7.19191 111.419 7.12052L112.243 6.67437C112.601 6.43977 112.9 6.13225 113.117 5.77417C113.335 5.41608 113.466 5.01642 113.5 4.60422C113.542 3.84915 113.779 3.11552 114.189 2.46812C114.599 1.82071 115.171 1.27948 115.854 0.892217L116.791 0.356832C117.126 0.136081 117.517 0.00827658 117.923 -0.0122155C118.329 -0.0327076 118.732 0.0549251 119.089 0.240832C119.418 0.442276 119.685 0.723927 119.862 1.05656C120.038 1.3892 120.117 1.7607 120.092 2.13252V2.88206H118.113V2.13252C118.132 2.04718 118.132 1.9591 118.113 1.87375C118.113 1.87375 118.02 1.87376 117.898 1.98976L116.96 2.52514C116.602 2.75974 116.304 3.06726 116.086 3.42534C115.869 3.78343 115.739 4.18309 115.704 4.59529C115.673 5.33894 115.452 6.06429 115.062 6.70922C114.671 7.35416 114.123 7.89944 113.463 8.29837L112.637 8.75345C112.309 8.95778 111.93 9.07607 111.538 9.09649C111.146 9.11681 110.756 9.03849 110.405 8.86945C110.076 8.66589 109.809 8.38256 109.634 8.04854C109.457 7.71452 109.377 7.34187 109.402 6.96883C109.421 6.88349 109.421 6.7954 109.402 6.71006C109.402 6.71006 109.308 6.75468 109.187 6.82606L108.248 7.36145C107.891 7.59605 107.593 7.90357 107.375 8.26165C107.158 8.61973 107.027 9.01942 106.992 9.43163C106.962 10.1753 106.741 10.9006 106.351 11.5455C105.96 12.1904 105.412 12.7357 104.752 13.1346L103.617 13.7593C103.29 13.968 102.911 14.089 102.517 14.1094C102.125 14.1298 101.734 14.049 101.385 13.8753C101.056 13.6717 100.789 13.3884 100.612 13.0544C100.436 12.7204 100.357 12.3477 100.382 11.9746C100.399 11.8892 100.399 11.8014 100.382 11.7159C100.382 11.7159 100.288 11.7694 100.157 11.8319L99.1346 12.403C98.7761 12.6348 98.4763 12.9405 98.2592 13.2973C98.0413 13.6541 97.9116 14.0529 97.8783 14.4642L97.6243 15.0442Z" fill="#FBFBFB"/>
</g>
<defs>
<clipPath id="clip0_117_1201">
<rect width="154" height="116" fill="white"/>
</clipPath>
</defs>
</svg>
