<svg width="242" height="159" viewBox="0 0 242 159" fill="none" xmlns="http://www.w3.org/2000/svg">
<path d="M124.836 22.3987C124.836 22.3987 124.836 22.3431 124.836 22.3153V20.3561H122.038C121.453 20.2727 120.825 20.2727 120.24 20.3561H117.443V22.3153C117.443 22.3153 117.443 22.3431 117.443 22.3709V22.4265V22.482C117.471 22.9961 117.828 23.4408 118.528 23.8298C119.969 24.6358 122.31 24.6358 123.751 23.8298C124.436 23.4408 124.793 22.9406 124.821 22.4265V22.3987H124.836Z" fill="#624AFF"/>
<path d="M121.139 25.4139C120.012 25.4139 118.884 25.1638 118.014 24.6775C117.001 24.1078 116.472 23.3853 116.43 22.5377V22.4821V22.2459V19.3557H120.24C120.783 19.2724 121.496 19.2724 122.181 19.3557H125.849V22.496C125.806 23.3436 125.235 24.1217 124.265 24.6775C123.394 25.1638 122.267 25.4139 121.139 25.4139ZM118.47 21.3288V22.5377C118.47 22.5377 118.699 22.76 119.041 22.9545C120.155 23.5798 122.124 23.5798 123.252 22.9545C123.651 22.7322 123.808 22.496 123.822 22.3571V21.3288H122.053C121.41 21.2455 120.897 21.2455 120.397 21.3288H118.485H118.47Z" fill="#110C0C"/>
<path d="M128.247 17.063C128.247 17.063 128.247 16.9519 128.247 16.8963V13.1169H122.881C121.739 12.9501 120.554 12.9501 119.427 13.1169H114.061V16.8963C114.061 16.8963 114.061 16.9519 114.061 17.0075V17.1047V17.2159C114.118 18.1885 114.817 19.05 116.144 19.8004C118.927 21.3566 123.423 21.3566 126.192 19.8004C127.519 19.05 128.204 18.0774 128.261 17.1047V17.063H128.247Z" fill="#110C0C"/>
<path d="M121.139 21.968C119.141 21.968 117.157 21.5372 115.602 20.6618C113.961 19.7309 113.09 18.5915 113.004 17.2715V17.2159V17.0353V12.1164H119.398C120.469 11.9497 121.782 11.9497 123.009 12.1164H129.26V17.1325C129.174 18.5081 128.261 19.7587 126.677 20.648C125.121 21.5233 123.137 21.9541 121.139 21.9541V21.968ZM115.06 14.1034V17.1742C115.088 17.7717 115.616 18.3692 116.629 18.9389C119.084 20.3145 123.209 20.3145 125.664 18.9389C126.634 18.397 127.191 17.7161 127.233 17.0492H128.261L127.233 16.9241V14.1173H122.881C121.696 13.9645 120.597 13.9645 119.569 14.1173H115.074L115.06 14.1034Z" fill="#110C0C"/>
<path d="M128.118 12.1998C127.747 10.5741 126.32 6.05823 121.139 6.05823C115.959 6.05823 114.546 10.5741 114.16 12.1998C114.075 12.4499 114.032 12.7139 114.032 12.9779C114.032 14.0061 114.731 15.0205 116.116 15.8125C118.899 17.3687 123.394 17.3687 126.163 15.8125C127.904 14.8398 128.546 13.4781 128.104 12.2137L128.118 12.1998Z" fill="#624AFF"/>
<path d="M128.104 14.6731C127.719 13.0474 126.306 8.53156 121.125 8.53156C115.944 8.53156 114.531 13.0474 114.146 14.6731C114.061 14.9232 114.018 15.1872 114.018 15.4512C114.018 16.4795 114.717 17.4938 116.101 18.2858C118.884 19.8421 123.38 19.8421 126.149 18.2858C127.89 17.3132 128.532 15.9515 128.09 14.687L128.104 14.6731Z" fill="#D7CCF8"/>
<path d="M121.139 17.9801C119.141 17.9801 117.157 17.5494 115.602 16.674C113.932 15.7291 113.004 14.423 113.004 12.9918C113.004 12.6167 113.061 12.2554 113.19 11.8941C113.647 9.92106 115.388 5.07172 121.125 5.07172C126.834 5.07172 128.589 9.83769 129.089 11.9497C129.674 13.7005 128.746 15.5068 126.663 16.6879C125.107 17.5633 123.123 17.994 121.125 17.994L121.139 17.9801ZM121.139 7.0587C117.029 7.0587 115.63 10.4213 115.159 12.4221C115.074 12.6723 115.045 12.8251 115.045 12.9779C115.045 13.6727 115.616 14.3813 116.615 14.951C119.07 16.3266 123.194 16.3266 125.649 14.951C126.234 14.6176 127.562 13.7283 127.148 12.5333L127.119 12.436C126.648 10.4352 125.264 7.07259 121.139 7.07259V7.0587Z" fill="#110C0C"/>
<path d="M63.8379 80.2293H31.7834C30.5846 80.2293 29.5998 79.2845 29.5998 78.1034C29.5998 76.9362 30.5703 75.9775 31.7834 75.9775H63.8379C65.0368 75.9775 66.0215 76.9223 66.0215 78.1034C66.0215 79.2706 65.051 80.2293 63.8379 80.2293Z" fill="#624AFF"/>
<path d="M63.8236 81.216H31.7834C30.0137 81.216 28.5865 79.8126 28.5865 78.1035C28.5865 76.3944 30.0279 74.991 31.7834 74.991H63.8379C65.6076 74.991 67.0348 76.3944 67.0348 78.1035C67.0348 79.8126 65.5933 81.216 63.8379 81.216H63.8236ZM31.7691 76.978C31.1269 76.978 30.6131 77.4782 30.6131 78.1035C30.6131 78.7288 31.1269 79.229 31.7691 79.229H63.8236C64.4659 79.229 64.9797 78.7288 64.9797 78.1035C64.9797 77.4782 64.4659 76.978 63.8236 76.978H31.7834H31.7691Z" fill="#110C0C"/>
<path d="M211.88 80.2293H179.825C178.626 80.2293 177.642 79.2845 177.642 78.1034C177.642 76.9362 178.612 75.9775 179.825 75.9775H211.88C213.079 75.9775 214.063 76.9223 214.063 78.1034C214.063 79.2706 213.093 80.2293 211.88 80.2293Z" fill="#624AFF"/>
<path d="M211.88 81.216H179.825C178.055 81.216 176.628 79.8126 176.628 78.1035C176.628 76.3944 178.07 74.991 179.825 74.991H211.88C213.649 74.991 215.077 76.3944 215.077 78.1035C215.077 79.8126 213.635 81.216 211.88 81.216ZM179.825 76.978C179.183 76.978 178.669 77.4782 178.669 78.1035C178.669 78.7288 179.183 79.229 179.825 79.229H211.88C212.522 79.229 213.036 78.7288 213.036 78.1035C213.036 77.4782 212.522 76.978 211.88 76.978H179.825Z" fill="#110C0C"/>
<path d="M118.999 51.592L118.941 20.3839C118.941 19.2167 119.912 18.258 121.111 18.258C122.31 18.258 123.294 19.2029 123.294 20.37L123.351 51.5781C123.351 52.7453 122.381 53.704 121.182 53.704C119.983 53.704 118.999 52.7592 118.999 51.592Z" fill="#624AFF"/>
<path d="M121.168 54.7045C120.312 54.7045 119.512 54.3849 118.913 53.8013C118.314 53.2177 117.971 52.4257 117.971 51.6059L117.914 20.3978C117.914 19.5642 118.242 18.786 118.842 18.1886C119.441 17.605 120.254 17.2715 121.111 17.2715C121.967 17.2715 122.766 17.5911 123.366 18.1747C123.965 18.7582 124.308 19.5503 124.308 20.3701L124.365 51.5781C124.365 52.4118 124.037 53.1899 123.437 53.7874C122.838 54.371 122.024 54.7045 121.182 54.7045H121.168ZM121.111 19.2585C120.797 19.2585 120.511 19.3696 120.297 19.5919C120.083 19.8004 119.955 20.0922 119.955 20.384L120.012 51.592C120.012 51.8977 120.14 52.1756 120.354 52.384C120.568 52.5925 120.825 52.6619 121.168 52.7175C121.482 52.7175 121.767 52.6064 121.981 52.384C122.195 52.1756 122.324 51.8838 122.324 51.592L122.267 20.384C122.267 19.7587 121.753 19.2585 121.111 19.2585Z" fill="#110C0C"/>
<path d="M151.538 91.6652V91.1927V91.165V85.4958H149.783C148.341 83.2309 146.001 81.105 142.775 79.2848C131.087 72.7125 112.148 72.7125 100.459 79.2848C97.234 81.105 94.8934 83.2309 93.452 85.4958H91.7108V91.1511C91.7108 91.1511 91.7108 91.1788 91.7108 91.2066V91.6791H91.725C91.9391 95.8198 94.8506 99.9188 100.474 103.087C112.162 109.659 131.101 109.659 142.79 103.087C148.413 99.9327 151.324 95.8198 151.538 91.6791H151.553L151.538 91.6652Z" fill="#624AFF"/>
<path d="M121.625 108.964C113.775 108.964 105.926 107.283 99.9599 103.934C94.6222 100.933 91.4111 96.9591 90.7974 92.6655H90.7118V91.2065V84.5092H92.9239C94.5081 82.2165 96.8772 80.1739 99.9742 78.4371C111.934 71.7258 131.372 71.7258 143.318 78.4371C146.415 80.1739 148.784 82.2165 150.368 84.5092H152.58V92.6655H152.48C151.867 96.9591 148.655 100.933 143.318 103.934C137.338 107.297 129.503 108.964 121.653 108.964H121.625ZM92.7241 91.3594V91.6234C92.9524 95.5835 95.8782 99.349 100.973 102.211C112.362 108.617 130.887 108.617 142.262 102.211C147.371 99.3351 150.297 95.5835 150.496 91.6234V91.1926V86.4961H149.198L148.898 86.0237C147.485 83.8144 145.259 81.8413 142.247 80.1462C130.873 73.7545 112.348 73.7406 100.959 80.1462C97.9476 81.8413 95.7212 83.8144 94.3083 86.0237L94.0086 86.4961H92.7241V91.3594Z" fill="#110C0C"/>
<path d="M142.775 73.9491C154.464 80.5215 154.464 91.165 142.775 97.7373C131.087 104.31 112.148 104.31 100.459 97.7373C88.7708 91.165 88.7708 80.5215 100.459 73.9491C112.148 67.3768 131.087 67.3768 142.775 73.9491Z" fill="#624AFF"/>
<path d="M121.625 103.643C113.775 103.643 105.926 101.961 99.9599 98.6126C93.98 95.25 90.6832 90.7202 90.6832 85.857C90.6832 80.9938 93.98 76.464 99.9599 73.1014C111.92 66.3902 131.358 66.3902 143.303 73.1014C149.283 76.464 152.58 80.9938 152.58 85.857C152.58 90.7202 149.283 95.25 143.303 98.6126C137.324 101.975 129.488 103.643 121.639 103.643H121.625ZM121.625 70.0168C114.146 70.0168 106.668 71.6147 100.973 74.8105C95.6498 77.7979 92.7241 81.7163 92.7241 85.8431C92.7241 89.9699 95.6498 93.8883 100.973 96.8757C112.362 103.281 130.887 103.267 142.262 96.8757C147.585 93.8883 150.511 89.9699 150.511 85.8431C150.511 81.7163 147.585 77.7979 142.262 74.8105C136.567 71.6147 129.089 70.0168 121.61 70.0168H121.625Z" fill="#110C0C"/>
<path d="M178.241 75.644L164.397 75.6857C158.474 73.796 152.98 71.4617 148.113 68.7105C148.113 68.7105 146.714 67.9323 146.572 67.849L146.529 67.8212C135.839 61.8047 128.546 54.1485 125.592 45.8116L124.622 43.0882C124.279 42.1433 122.795 41.4485 121.068 41.4485C119.327 41.4485 117.828 42.1433 117.514 43.1159L116.701 45.5753C113.875 54.1069 106.525 61.9575 95.607 68.0852C90.041 71.2115 83.6758 73.8238 76.7682 75.8386L48.2103 75.6301V80.5212C48.2103 81.4938 49.4234 82.3275 51.1217 82.522L55.9741 83.0639C70.8026 84.7174 84.4322 88.8165 95.1361 94.833L96.7202 95.7084C107.41 101.725 114.703 109.381 117.643 117.718L118.613 120.441C118.956 121.386 120.44 122.081 122.153 122.081C123.894 122.081 125.392 121.386 125.706 120.414L126.52 117.954C129.346 109.423 136.696 101.572 147.614 95.4444C158.532 89.3028 172.504 85.176 187.675 83.592L192.056 83.1334C193.769 82.9528 195.01 82.1191 195.01 81.1325V76.2415L178.227 75.644H178.241Z" fill="#110C0C"/>
<path d="M122.153 123.082C119.941 123.082 118.128 122.151 117.643 120.775L116.672 118.052C113.789 109.909 106.711 102.489 96.2065 96.5839L94.6365 95.7085C84.0183 89.7475 70.6171 85.718 55.8742 84.0645L51.0218 83.5226C48.7811 83.2725 47.2112 82.0497 47.2112 80.5352V74.6298L76.6398 74.8521C83.476 72.8513 89.6842 70.2807 95.1218 67.2377C105.854 61.2073 112.99 53.6067 115.745 45.2837L116.558 42.8243C117.029 41.4209 118.842 40.476 121.082 40.476C123.323 40.476 125.107 41.407 125.592 42.7826L126.548 45.506C129.431 53.6484 136.51 61.0683 147.028 66.9737L148.613 67.8491C153.337 70.503 158.703 72.8096 164.554 74.6854L178.255 74.6437H178.27L196.038 75.2829V81.1327C196.038 82.6472 194.454 83.8839 192.17 84.1201L187.789 84.5786C172.689 86.1626 158.974 90.22 148.127 96.306C137.395 102.336 130.259 109.937 127.49 118.26L126.677 120.719C126.206 122.123 124.393 123.068 122.153 123.068V123.082ZM49.2521 76.6446V80.5352C49.2521 80.8131 49.9229 81.3967 51.2502 81.5356L56.1026 82.0775C71.1308 83.7588 84.8032 87.8717 95.6498 93.9716L97.2198 94.847C108.166 101.002 115.559 108.798 118.599 117.398L119.569 120.122C119.712 120.525 120.683 121.081 122.153 121.095C123.608 121.095 124.607 120.525 124.736 120.122L125.549 117.663C128.475 108.853 135.925 100.877 147.1 94.5969C158.189 88.3719 172.175 84.2173 187.56 82.6055L191.942 82.147C193.283 82.008 193.983 81.4106 193.983 81.1327V77.2004L178.198 76.6307L164.212 76.6724L164.055 76.6168C158.003 74.6854 152.466 72.3094 147.585 69.5582L146.058 68.7106C135.054 62.5273 127.662 54.7322 124.622 46.1313L123.665 43.4079C123.523 43.0049 122.538 42.4491 121.082 42.4491C119.627 42.4491 118.628 43.0188 118.499 43.4217L117.686 45.8812C114.774 54.6906 107.324 62.6663 96.1351 68.9468C90.5263 72.1009 84.1182 74.741 77.0679 76.7835L76.9252 76.8252L49.2521 76.6168V76.6446Z" fill="#110C0C"/>
<path d="M187.261 73.6987C172.432 72.0452 158.803 67.9462 148.113 61.9297C148.113 61.9297 146.714 61.1516 146.572 61.0682L146.529 61.0404C135.839 55.0239 128.546 47.3678 125.592 39.0308L124.622 36.3074C124.279 35.3625 122.795 34.6678 121.068 34.6678C119.327 34.6678 117.828 35.3625 117.514 36.3352L116.701 38.7946C113.875 47.3261 106.525 55.1767 95.607 61.3044C84.6891 67.446 70.7169 71.5728 55.546 73.1707L51.1645 73.6292C49.4519 73.8099 48.2103 74.6436 48.2103 75.6301C48.2103 76.6028 49.4234 77.4365 51.1217 77.631L55.9741 78.1729C70.8026 79.8264 84.4322 83.9254 95.1361 89.9419L96.7202 90.8173C107.41 96.8338 114.703 104.49 117.643 112.827L118.613 115.55C118.956 116.495 120.44 117.19 122.153 117.19C123.894 117.19 125.392 116.495 125.706 115.523L126.52 113.063C129.346 104.532 136.696 96.681 147.614 90.5533C158.532 84.4117 172.504 80.2849 187.675 78.7009L192.056 78.2424C193.769 78.0617 195.01 77.228 195.01 76.2415C195.01 75.2688 193.797 74.4352 192.099 74.2406L187.246 73.6987H187.261Z" fill="#624AFF"/>
<path d="M125.721 115.523L126.534 113.063C129.36 104.532 136.71 96.6811 147.628 90.5534C157.718 84.8843 170.42 80.952 184.249 79.1318C170.606 77.2698 158.089 73.3654 148.142 67.7657C148.142 67.7657 146.743 66.9876 146.6 66.9042L146.557 66.8764C135.868 60.8599 128.575 53.2038 125.621 44.8668L124.65 42.1434C124.308 41.1985 122.823 40.5038 121.097 40.5038C119.355 40.5038 117.857 41.1985 117.543 42.1712L116.729 44.6306C113.904 53.1621 106.554 61.0127 95.6356 67.1404C85.5454 72.8096 72.8577 76.7418 59.014 78.5621C72.6579 80.424 85.1743 84.3285 95.1218 89.9142L96.706 90.7896C107.396 96.8061 114.688 104.462 117.628 112.799L118.599 115.523C118.941 116.468 120.426 117.162 122.138 117.162C123.88 117.162 125.378 116.468 125.692 115.495L125.721 115.523Z" fill="#D7CCF8"/>
<path d="M122.153 118.177C119.94 118.177 118.128 117.246 117.643 115.87L116.672 113.147C113.789 105.004 106.711 97.5843 96.2065 91.6789L94.6365 90.8035C84.0183 84.8426 70.6171 80.813 55.8742 79.1595L51.0218 78.6176C48.7811 78.3675 47.2112 77.1448 47.2112 75.6302C47.2112 74.1157 48.7954 72.879 51.0789 72.6428L55.4604 72.1843C70.56 70.6002 84.2752 66.5429 95.1218 60.443C105.854 54.4126 112.99 46.8121 115.745 38.489L116.558 36.0296C117.029 34.6262 118.842 33.6813 121.082 33.6813C123.294 33.6813 125.107 34.6123 125.592 35.9879L126.548 38.7113C129.431 46.8399 136.51 54.2737 147.028 60.179L148.613 61.0544C159.231 67.0153 172.632 71.0449 187.375 72.6984L192.227 73.2403C194.482 73.4904 196.052 74.7132 196.038 76.2277C196.038 77.7422 194.454 78.9789 192.17 79.2151L187.789 79.6736C172.689 81.2577 158.974 85.315 148.127 91.401C137.395 97.4314 130.259 105.018 127.49 113.355L126.677 115.814C126.206 117.218 124.393 118.163 122.153 118.163V118.177ZM121.082 35.6683C119.627 35.6683 118.627 36.238 118.499 36.641L117.686 39.1004C114.774 47.9098 107.324 55.8855 96.1351 62.166C85.0459 68.3909 71.0595 72.5455 55.6744 74.1573L51.293 74.6159C49.9514 74.7548 49.2521 75.3523 49.2521 75.6302C49.2521 75.9081 49.9229 76.4917 51.2502 76.6307L56.1026 77.1726C71.1308 78.8538 84.8032 82.9668 95.6498 89.0666L97.2197 89.942C108.166 96.0975 115.559 103.893 118.599 112.494L119.569 115.217C119.712 115.62 120.683 116.176 122.153 116.176C123.608 116.176 124.607 115.606 124.736 115.203L125.549 112.744C128.475 103.934 135.925 95.9585 147.1 89.678C158.189 83.4531 172.19 79.2985 187.56 77.6867L191.942 77.2281C193.283 77.0892 193.983 76.4917 193.983 76.2138C193.983 75.9359 193.312 75.3523 191.97 75.2134L187.132 74.6715C172.104 72.9902 158.432 68.8773 147.585 62.7774L146.058 61.9298C135.054 55.7465 127.662 47.9515 124.622 39.3505L123.665 36.6271C123.523 36.2241 122.538 35.6683 121.082 35.6683Z" fill="#110C0C"/>
<path d="M151.538 74.8385V74.366V74.3382V68.6691H149.783C148.341 66.4042 146.001 64.2783 142.775 62.458C131.087 55.8857 112.148 55.8857 100.459 62.458C97.234 64.2783 94.8934 66.4042 93.452 68.6691H91.7108V74.3243C91.7108 74.3243 91.7108 74.3521 91.7108 74.3799V74.8523H91.725C91.9391 78.993 94.8506 83.0921 100.474 86.2601C112.162 92.8324 131.101 92.8324 142.79 86.2601C148.413 83.106 151.324 78.993 151.538 74.8523H151.553L151.538 74.8385Z" fill="#110C0C"/>
<path d="M121.625 92.1375C113.775 92.1375 105.926 90.4562 99.9599 87.1075C94.6222 84.1062 91.4111 80.1323 90.7974 75.8387H90.7118V74.3798V67.6824H92.9239C94.5081 65.3897 96.8772 63.3472 99.9742 61.6103C111.934 54.899 131.372 54.899 143.318 61.6103C146.415 63.3472 148.784 65.3897 150.368 67.6824H152.58V75.8387H152.48C151.867 80.1323 148.655 84.1062 143.318 87.1075C137.338 90.4701 129.503 92.1375 121.653 92.1375H121.625ZM92.7241 74.5326V74.7966C92.9524 78.7567 95.8782 82.5222 100.973 85.3846C112.362 91.7901 130.887 91.7901 142.262 85.3846C147.371 82.5083 150.297 78.7567 150.496 74.7966V74.3659V69.6694H149.198L148.898 69.1969C147.485 66.9876 145.259 65.0146 142.247 63.3194C130.873 56.9138 112.348 56.9138 100.959 63.3194C97.9476 65.0146 95.7212 66.9876 94.3083 69.1969L94.0086 69.6694H92.7241V74.5326Z" fill="#110C0C"/>
<path d="M142.775 57.1222C154.464 63.6945 154.464 74.338 142.775 80.9103C131.087 87.4827 112.148 87.4827 100.459 80.9103C88.7708 74.338 88.7708 63.6945 100.459 57.1222C112.148 50.5499 131.087 50.5499 142.775 57.1222Z" fill="#624AFF"/>
<path d="M100.502 63.0136C95.9924 65.5425 93.2379 68.6967 92.2103 71.9759C93.2664 75.2134 96.0066 78.3259 100.474 80.827C112.162 87.3993 131.101 87.3993 142.79 80.827C147.3 78.2981 150.054 75.1439 151.082 71.8647C150.026 68.6272 147.285 65.5147 142.818 63.0136C131.13 56.4413 112.191 56.4413 100.502 63.0136Z" fill="#CDCCF7"/>
<path d="M121.625 86.8019C113.775 86.8019 105.926 85.1206 99.9599 81.7719C93.98 78.4093 90.6832 73.8795 90.6832 69.0163C90.6832 64.1531 93.98 59.6233 99.9599 56.2607C111.92 49.5495 131.358 49.5495 143.303 56.2607C149.283 59.6233 152.58 64.1531 152.58 69.0163C152.58 73.8795 149.283 78.4093 143.303 81.7719C137.324 85.1345 129.488 86.8019 121.639 86.8019H121.625ZM121.625 53.1761C114.146 53.1761 106.668 54.774 100.973 57.9698C95.6498 60.9572 92.7241 64.8756 92.7241 69.0024C92.7241 73.1292 95.6498 77.0476 100.973 80.035C112.362 86.4406 130.887 86.4406 142.262 80.035C147.585 77.0476 150.511 73.1292 150.511 69.0024C150.511 64.8756 147.585 60.9572 142.262 57.9698C136.567 54.774 129.089 53.1761 121.61 53.1761H121.625Z" fill="#110C0C"/>
<path d="M120.326 141.617L120.269 120.775C120.269 119.608 121.239 118.649 122.438 118.649C123.637 118.649 124.622 119.594 124.622 120.761L124.679 141.604C124.679 142.771 123.708 143.729 122.509 143.729C121.311 143.729 120.326 142.785 120.326 141.617Z" fill="#624AFF"/>
<path d="M122.495 144.73C121.639 144.73 120.84 144.41 120.24 143.827C119.641 143.243 119.298 142.465 119.298 141.631L119.241 120.789C119.241 119.955 119.569 119.177 120.169 118.58C120.768 117.996 121.582 117.663 122.424 117.663C123.28 117.663 124.079 117.982 124.679 118.566C125.278 119.149 125.621 119.941 125.621 120.761L125.678 141.604C125.678 142.437 125.35 143.215 124.75 143.813C124.151 144.396 123.337 144.73 122.481 144.73H122.495ZM122.438 119.65C122.124 119.65 121.839 119.775 121.625 119.983C121.41 120.191 121.282 120.483 121.296 120.775L121.353 141.618C121.353 141.923 121.482 142.201 121.696 142.41C121.91 142.618 122.21 142.743 122.509 142.743C122.823 142.743 123.109 142.632 123.323 142.41C123.537 142.201 123.665 141.909 123.665 141.618L123.608 120.775C123.608 120.469 123.48 120.191 123.266 119.983C123.052 119.775 122.752 119.65 122.452 119.65H122.438Z" fill="#110C0C"/>
<path d="M222.926 84.8146C222.926 84.8146 222.926 84.759 222.926 84.7312V82.7721H220.129C219.544 82.6887 218.916 82.6887 218.331 82.7721H215.533V84.7312C215.533 84.7312 215.533 84.759 215.533 84.7868V84.8424V84.898C215.562 85.4121 215.919 85.8567 216.618 86.2458C218.059 87.0517 220.4 87.0517 221.841 86.2458C222.526 85.8567 222.883 85.3565 222.912 84.8424V84.8146H222.926Z" fill="#624AFF"/>
<path d="M219.23 87.8438C218.102 87.8438 216.975 87.5937 216.104 87.1074C215.091 86.5377 214.563 85.8151 214.506 84.9675V84.912V84.6618V81.7717H218.316C218.859 81.6883 219.572 81.6883 220.257 81.7717H223.925V84.912C223.882 85.7596 223.311 86.5377 222.341 87.0935C221.47 87.5798 220.343 87.8299 219.215 87.8299L219.23 87.8438ZM216.561 83.7587V84.9675C216.561 84.9675 216.789 85.1899 217.132 85.3844C218.245 86.0097 220.214 86.0097 221.342 85.3844C221.741 85.1621 221.898 84.9259 221.913 84.7869V83.7587H220.143C219.501 83.6753 218.987 83.6753 218.488 83.7587H216.575H216.561Z" fill="#110C0C"/>
<path d="M226.337 79.479C226.337 79.479 226.337 79.3678 226.337 79.3123V75.5328H220.971C219.829 75.3661 218.645 75.3661 217.517 75.5328H212.151V79.3123C212.151 79.3123 212.151 79.3678 212.151 79.4234V79.5207V79.6318C212.208 80.6045 212.907 81.466 214.235 82.2163C217.018 83.7725 221.513 83.7725 224.282 82.2163C225.609 81.466 226.294 80.4933 226.351 79.5207V79.479H226.337Z" fill="#110C0C"/>
<path d="M219.23 84.3978C217.232 84.3978 215.248 83.9671 213.692 83.0917C212.051 82.1608 211.18 81.0214 211.095 79.7013V79.6458V79.4651V74.5463H217.489C218.573 74.3796 219.858 74.3796 221.099 74.5463H227.35V79.5624C227.265 80.938 226.351 82.1885 224.767 83.0778C223.212 83.9532 221.228 84.3839 219.23 84.3839V84.3978ZM213.15 76.5333V79.6041C213.178 80.2016 213.706 80.799 214.72 81.3687C217.175 82.7443 221.299 82.7443 223.754 81.3687C224.724 80.8268 225.281 80.1599 225.324 79.479V79.4234L226.351 79.4929L225.324 79.3818V76.5333H220.971C219.786 76.3805 218.687 76.3805 217.66 76.5333H213.164H213.15Z" fill="#110C0C"/>
<path d="M226.209 74.6297C225.823 73.004 224.41 68.4881 219.23 68.4881C214.049 68.4881 212.636 73.004 212.251 74.6297C212.165 74.8798 212.122 75.1438 212.122 75.4078C212.122 76.436 212.822 77.4503 214.206 78.2424C216.989 79.7986 221.485 79.7986 224.253 78.2424C225.995 77.2697 226.637 75.908 226.194 74.6436L226.209 74.6297Z" fill="#624AFF"/>
<path d="M226.209 77.103C225.823 75.4773 224.41 70.9614 219.23 70.9614C214.049 70.9614 212.636 75.4773 212.251 77.103C212.165 77.3531 212.122 77.6171 212.122 77.8811C212.122 78.9093 212.822 79.9237 214.206 80.7157C216.989 82.2719 221.485 82.2719 224.253 80.7157C225.995 79.743 226.637 78.3813 226.194 77.1169L226.209 77.103Z" fill="#D7CCF8"/>
<path d="M219.23 80.3961C217.232 80.3961 215.248 79.9654 213.692 79.09C212.022 78.1452 211.095 76.839 211.095 75.4079C211.095 75.0327 211.152 74.6714 211.28 74.3102C211.737 72.3371 213.478 67.4877 219.215 67.4877C224.91 67.4877 226.68 72.2537 227.179 74.3657C227.764 76.1165 226.837 77.9228 224.753 79.1039C223.197 79.9793 221.213 80.41 219.215 80.41L219.23 80.3961ZM219.23 69.4747C215.119 69.4747 213.721 72.8373 213.25 74.8382C213.164 75.0883 213.136 75.2411 213.136 75.394C213.136 76.0887 213.706 76.7974 214.705 77.367C217.16 78.7426 221.285 78.7426 223.74 77.367C224.325 77.0336 225.652 76.1443 225.238 74.9493L225.21 74.8521C224.739 72.8512 223.354 69.4886 219.23 69.4886V69.4747Z" fill="#110C0C"/>
<path d="M126.163 152.608C126.163 152.608 126.163 152.553 126.163 152.525V150.566H123.366C122.781 150.482 122.153 150.482 121.567 150.566H118.77V152.525C118.77 152.525 118.77 152.553 118.77 152.58V152.636V152.692C118.799 153.206 119.156 153.65 119.855 154.039C121.296 154.845 123.637 154.845 125.078 154.039C125.763 153.65 126.12 153.15 126.149 152.636V152.608H126.163Z" fill="#624AFF"/>
<path d="M122.467 155.637C121.339 155.637 120.226 155.387 119.341 154.901C118.328 154.331 117.8 153.609 117.757 152.761V152.706V152.469V149.579H121.567C122.11 149.496 122.823 149.496 123.508 149.579H127.176V152.733C127.133 153.581 126.563 154.359 125.592 154.901C124.722 155.387 123.594 155.637 122.467 155.637ZM119.798 151.552V152.761C119.798 152.761 120.026 152.983 120.369 153.178C121.496 153.803 123.451 153.803 124.579 153.178C124.978 152.956 125.135 152.719 125.15 152.58V151.566H123.38C122.738 151.483 122.224 151.483 121.724 151.566H119.812L119.798 151.552Z" fill="#110C0C"/>
<path d="M129.574 147.286C129.574 147.286 129.574 147.175 129.574 147.12V143.34H124.208C123.066 143.174 121.881 143.174 120.754 143.34H115.388V147.12C115.388 147.12 115.388 147.175 115.388 147.231V147.328V147.439C115.445 148.412 116.144 149.273 117.471 150.024C120.254 151.58 124.75 151.58 127.519 150.024C128.846 149.273 129.531 148.301 129.588 147.328V147.286H129.574Z" fill="#110C0C"/>
<path d="M122.467 152.191C120.469 152.191 118.485 151.761 116.929 150.885C115.288 149.968 114.417 148.829 114.332 147.495V147.439V147.259V142.34H120.725C121.796 142.173 123.109 142.173 124.336 142.34H130.587V147.356C130.502 148.732 129.588 149.982 128.004 150.871C126.448 151.747 124.465 152.178 122.467 152.178V152.191ZM116.387 144.327V147.398C116.415 147.995 116.943 148.593 117.957 149.162C120.411 150.538 124.536 150.538 126.991 149.162C127.961 148.62 128.518 147.953 128.561 147.273V147.217L129.588 147.286L128.561 147.175V144.327H124.208C123.023 144.174 121.924 144.174 120.897 144.327H116.401H116.387Z" fill="#110C0C"/>
<path d="M129.446 142.423C129.06 140.798 127.647 136.282 122.467 136.282C117.286 136.282 115.873 140.798 115.488 142.423C115.402 142.673 115.359 142.937 115.359 143.201C115.359 144.23 116.059 145.244 117.443 146.036C120.226 147.592 124.722 147.592 127.49 146.036C129.231 145.063 129.874 143.702 129.431 142.437L129.446 142.423Z" fill="#624AFF"/>
<path d="M129.446 144.897C129.06 143.271 127.647 138.755 122.467 138.755C117.286 138.755 115.873 143.271 115.488 144.897C115.402 145.147 115.359 145.411 115.359 145.675C115.359 146.703 116.059 147.717 117.443 148.509C120.226 150.065 124.722 150.065 127.49 148.509C129.231 147.537 129.874 146.175 129.431 144.91L129.446 144.897Z" fill="#D7CCF8"/>
<path d="M122.467 148.204C120.469 148.204 118.485 147.773 116.929 146.897C115.259 145.953 114.332 144.646 114.332 143.215C114.332 142.84 114.403 142.465 114.517 142.118C114.974 140.145 116.715 135.295 122.452 135.295C128.161 135.295 129.917 140.061 130.416 142.173C131.001 143.924 130.073 145.73 127.99 146.911C126.434 147.787 124.45 148.217 122.452 148.217L122.467 148.204ZM122.467 137.282C118.356 137.282 116.958 140.645 116.487 142.646C116.401 142.896 116.373 143.049 116.373 143.201C116.373 143.882 116.943 144.605 117.942 145.161C120.397 146.536 124.522 146.536 126.977 145.161C127.562 144.827 128.889 143.938 128.475 142.743L128.447 142.646C127.976 140.645 126.591 137.282 122.467 137.282Z" fill="#110C0C"/>
<path d="M28.558 84.8982C28.558 84.8982 28.558 84.8426 28.558 84.8148V82.8556H25.7607C25.1755 82.7722 24.5476 82.7722 23.9624 82.8556H21.1652V84.8148C21.1652 84.8148 21.1652 84.8426 21.1652 84.8704V84.926V84.9815C21.1937 85.4957 21.5505 85.9403 22.2498 86.3294C23.6913 87.1353 26.0319 87.1353 27.4733 86.3294C28.1584 85.9403 28.5152 85.4401 28.5437 84.926V84.8982H28.558Z" fill="#624AFF"/>
<path d="M24.8616 87.9134C23.7341 87.9134 22.6209 87.6633 21.736 87.1769C20.7227 86.6072 20.1947 85.8847 20.1376 85.0232V84.9815V84.7592V81.8413H23.9482C24.4905 81.7579 25.2041 81.7579 25.8891 81.8413H29.557V84.9399C29.4999 85.8291 28.9433 86.6072 27.9728 87.163C27.1022 87.6494 25.9748 87.8995 24.8473 87.8995L24.8616 87.9134ZM22.1927 85.0371C22.1927 85.0371 22.364 85.2316 22.7636 85.454C23.8911 86.0792 25.8463 86.0792 26.9595 85.454C27.3591 85.2316 27.5161 84.9954 27.5304 84.8565V83.8283H25.7607C25.1184 83.7449 24.6047 83.7449 24.1051 83.8283H22.1927V85.0371Z" fill="#110C0C"/>
<path d="M31.9689 79.5625C31.9689 79.5625 31.9689 79.4513 31.9689 79.3958V75.6163H26.6027C25.461 75.4496 24.2764 75.4496 23.1489 75.6163H17.7827V79.3958C17.7827 79.3958 17.7827 79.4513 17.7827 79.5069V79.6042V79.7153C17.8398 80.688 18.5391 81.5495 19.8664 82.2998C22.6494 83.856 27.145 83.856 29.9138 82.2998C31.2411 81.5495 31.9261 80.5768 31.9832 79.6042V79.5625H31.9689Z" fill="#110C0C"/>
<path d="M24.8615 84.4674C22.8635 84.4674 20.8797 84.0367 19.3241 83.1613C17.6828 82.2303 16.8122 81.0909 16.7266 79.7709V79.7153V79.5486V74.6159H23.1204C24.205 74.4492 25.5038 74.4492 26.7311 74.6159H32.9822V79.6876C32.9109 81.0215 31.9975 82.2581 30.399 83.1613C28.8434 84.0367 26.8596 84.4674 24.8615 84.4674ZM18.7817 76.6029V79.6598C18.8103 80.2711 19.3383 80.8686 20.3516 81.4383C22.8064 82.8139 26.931 82.8139 29.3857 81.4383C30.3562 80.8964 30.9128 80.2295 30.9413 79.5486H31.9689L30.9413 79.4236V76.6168H26.5884C25.4039 76.4639 24.3049 76.4639 23.2774 76.6168H18.7817V76.6029Z" fill="#110C0C"/>
<path d="M31.8405 74.6992C31.4551 73.0735 30.0422 68.5577 24.8616 68.5577C19.6809 68.5577 18.268 73.0735 17.8826 74.6992C17.797 74.9494 17.7542 75.2134 17.7542 75.4774C17.7542 76.5056 18.4535 77.5199 19.8379 78.3119C22.6209 79.8682 27.1165 79.8682 29.8852 78.3119C31.6264 77.3393 32.2686 75.9776 31.8262 74.7131L31.8405 74.6992Z" fill="#624AFF"/>
<path d="M31.8405 77.6728C31.4551 76.0471 30.0422 71.5312 24.8616 71.5312C19.6809 71.5312 18.268 76.0471 17.8826 77.6728C17.797 77.9229 17.7542 78.1869 17.7542 78.4509C17.7542 79.4791 18.4535 80.4934 19.8379 81.2854C22.6209 82.8417 27.1165 82.8417 29.8852 81.2854C31.6264 80.3128 32.2686 78.9511 31.8262 77.6867L31.8405 77.6728Z" fill="#D7CCF8"/>
<path d="M24.8615 80.4796C22.8635 80.4796 20.8797 80.0488 19.3241 79.1735C17.6543 78.2286 16.7266 76.9225 16.7266 75.4913C16.7266 75.1161 16.798 74.7549 16.9121 74.3936C17.3688 72.4066 19.11 67.5712 24.8473 67.5712C30.5417 67.5712 32.3114 72.3371 32.811 74.4492C33.3961 76.1999 32.4684 78.0063 30.3847 79.1874C28.8291 80.0627 26.8453 80.4935 24.8473 80.4935L24.8615 80.4796ZM24.8615 69.5581C20.7513 69.5581 19.3526 72.9207 18.8959 74.9216C18.8103 75.1717 18.7817 75.3246 18.7817 75.4774C18.7817 76.1582 19.3526 76.8808 20.3516 77.4366C22.8064 78.8122 26.931 78.8122 29.3857 77.4366C29.9709 77.1031 31.2981 76.2138 30.87 75.0189L30.8414 74.9216C30.3705 72.9207 28.9861 69.5581 24.8615 69.5581Z" fill="#110C0C"/>
<path d="M122.467 158.986C115.916 158.986 109.75 157.541 105.098 154.929C101.43 152.872 98.9894 150.232 98.0332 147.314L99.9885 146.717C100.788 149.162 102.9 151.399 106.125 153.22C110.478 155.665 116.273 157.013 122.467 157.013C128.661 157.013 134.469 155.665 138.808 153.22L139.407 154.039L139.864 154.929C135.183 157.555 129.017 159 122.467 159V158.986ZM144.93 142.437C144.131 140.005 142.005 137.782 138.808 135.976C134.455 133.53 128.646 132.183 122.467 132.183C116.287 132.183 110.478 133.53 106.125 135.976L105.069 134.267L105.112 134.239C109.765 131.627 115.93 130.182 122.481 130.182C129.032 130.182 135.197 131.627 139.85 134.239C143.489 136.296 145.93 138.908 146.886 141.812L144.945 142.423L144.93 142.437Z" fill="#110C0C"/>
<path d="M122.467 156.096C117.3 156.096 112.419 154.956 108.737 152.886C104.884 150.718 102.757 147.773 102.757 144.591C102.757 141.409 104.884 138.477 108.737 136.295C112.419 134.225 117.286 133.086 122.467 133.086C125.977 133.086 129.417 133.614 132.414 134.628L131.743 136.504C128.96 135.559 125.749 135.073 122.467 135.073C117.657 135.073 113.147 136.115 109.765 138.018C106.568 139.811 104.798 142.145 104.798 144.577C104.798 147.009 106.554 149.343 109.765 151.149C113.147 153.053 117.657 154.095 122.467 154.095C127.276 154.095 131.786 153.053 135.169 151.149L136.267 152.83L136.196 152.872C132.514 154.943 127.633 156.082 122.467 156.082V156.096Z" fill="#110C0C"/>
<path d="M24.8615 91.3316C18.3108 91.3316 12.1453 89.8865 7.49271 87.2742C2.65456 84.5647 0 80.8825 0 76.9364C0 72.9902 2.65456 69.3219 7.49271 66.5985C12.1453 63.9863 18.3108 62.5412 24.8615 62.5412C27.1022 62.5412 29.3143 62.7079 31.4694 63.0553L31.1411 65.0145C29.1003 64.6949 26.988 64.5282 24.8615 64.5282C18.6676 64.5282 12.8732 65.876 8.52029 68.3215C4.35291 70.6697 2.05514 73.7266 2.05514 76.9364C2.05514 80.1461 4.35291 83.203 8.52029 85.5513C12.8732 87.9968 18.6676 89.3446 24.8615 89.3446C31.0555 89.3446 36.8499 87.9968 41.2028 85.5513L42.316 87.2186L42.2018 87.2881C37.5777 89.8865 31.4123 91.3316 24.8615 91.3316Z" fill="#110C0C"/>
<path d="M24.8615 88.4274C19.6951 88.4274 14.8142 87.288 11.132 85.2177C7.27863 83.0501 5.15213 80.1043 5.15213 76.9224C5.15213 73.7404 7.27863 70.7947 11.132 68.6271C14.8142 66.5567 19.6951 65.4174 24.8615 65.4174C26.617 65.4174 28.3724 65.5563 30.0708 65.8203L29.7425 67.7795C28.1583 67.5294 26.5171 67.4043 24.8615 67.4043C20.0519 67.4043 15.5278 68.4465 12.1596 70.3501C8.96271 72.1425 7.193 74.4769 7.193 76.9224C7.193 79.3679 8.94844 81.6884 12.1596 83.4808C15.542 85.3844 20.0519 86.4265 24.8615 86.4265C29.6711 86.4265 34.181 85.3844 37.5635 83.4808L38.6053 85.1899C34.9089 87.2741 30.0279 88.4135 24.8615 88.4135V88.4274Z" fill="#110C0C"/>
<path d="M219.23 91.3316C212.679 91.3316 206.513 89.8865 201.861 87.2742C199.734 86.0793 198.022 84.7037 196.766 83.1613L198.364 81.9247C199.463 83.2586 200.976 84.4813 202.874 85.5513C207.227 87.9968 213.036 89.3446 219.215 89.3446C225.395 89.3446 231.204 87.9968 235.557 85.5513L236.156 86.3711L236.613 87.2603C231.932 89.8865 225.766 91.3316 219.23 91.3316ZM240.067 71.9203C238.968 70.5864 237.455 69.3775 235.571 68.3215C231.218 65.876 225.424 64.5282 219.23 64.5282C213.036 64.5282 207.241 65.876 202.888 68.3215L201.861 66.5985C206.528 63.9863 212.693 62.5412 219.23 62.5412C225.766 62.5412 231.946 63.9863 236.598 66.5985C238.696 67.7796 240.409 69.1552 241.665 70.6698L240.067 71.9203Z" fill="#110C0C"/>
<path d="M219.23 88.4274C214.063 88.4274 209.182 87.288 205.5 85.2177C203.816 84.2728 202.446 83.1612 201.447 81.9385L203.045 80.7018C203.887 81.7301 205.058 82.6749 206.513 83.4947C209.896 85.3983 214.406 86.4404 219.215 86.4404C224.025 86.4404 228.535 85.3983 231.917 83.4947L233.016 85.176L232.945 85.2177C229.263 87.288 224.396 88.4274 219.215 88.4274H219.23ZM235.385 73.1291C234.543 72.1147 233.387 71.1838 231.932 70.364C228.549 68.4604 224.039 67.4183 219.23 67.4183C214.42 67.4183 209.896 68.4604 206.528 70.364L205.457 68.6688L205.5 68.641C209.182 66.5707 214.049 65.4313 219.215 65.4313C224.382 65.4313 229.263 66.5707 232.945 68.641C234.615 69.572 235.97 70.6697 236.97 71.8785L235.371 73.1291H235.385Z" fill="#110C0C"/>
<path d="M121.139 28.7904C114.589 28.7904 108.423 27.3453 103.771 24.733C102.115 23.8021 100.702 22.746 99.5746 21.6067L101.045 20.2311C102.044 21.2454 103.314 22.1764 104.798 23.01C109.151 25.4556 114.945 26.8034 121.139 26.8034C127.333 26.8034 133.142 25.4556 137.481 23.01L138.066 23.8299L138.522 24.7191C133.841 27.3453 127.676 28.7904 121.125 28.7904H121.139ZM141.206 8.5315C140.207 7.53107 138.951 6.6001 137.481 5.7803C133.128 3.33479 127.333 1.98698 121.139 1.98698C114.945 1.98698 109.137 3.33479 104.798 5.7803L103.728 4.08512L103.771 4.05733C108.423 1.44508 114.589 0 121.139 0C127.69 0 133.856 1.44508 138.508 4.05733C140.149 4.9744 141.548 6.01652 142.676 7.1559L141.206 8.5454V8.5315Z" fill="#110C0C"/>
<path d="M121.139 25.9001C115.973 25.9001 111.092 24.7608 107.41 22.6904C106.097 21.954 104.969 21.1203 104.07 20.2032L105.54 18.8276C106.311 19.6057 107.281 20.3283 108.437 20.9674C111.82 22.871 116.33 23.9132 121.139 23.9132C125.949 23.9132 130.459 22.871 133.841 20.9674L134.94 22.6487L134.869 22.6904C131.187 24.7608 126.306 25.9001 121.139 25.9001ZM136.71 9.94873C135.939 9.18451 134.983 8.46197 133.841 7.8367C130.459 5.93309 125.949 4.89097 121.139 4.89097C116.33 4.89097 111.82 5.93309 108.437 7.8367L107.396 6.12762C111.092 4.04338 115.973 2.90399 121.139 2.90399C126.306 2.90399 131.187 4.04338 134.869 6.11373C136.168 6.83626 137.281 7.66996 138.18 8.57313L136.71 9.96263V9.94873Z" fill="#110C0C"/>
</svg>
