<svg width="119" height="117" viewBox="0 0 119 117" fill="none" xmlns="http://www.w3.org/2000/svg">
<path d="M78.9839 108.172C79.5678 108.498 79.5678 109.042 78.9839 109.389C78.3999 109.716 77.47 109.716 76.886 109.389C76.3021 109.063 76.3021 108.52 76.886 108.172C77.47 107.824 78.3999 107.846 78.9839 108.172Z" fill="#16110D"/>
<path d="M73.5121 104.998C74.0961 105.324 74.0961 105.868 73.5121 106.216C72.9282 106.542 71.9982 106.542 71.4142 106.216C70.8303 105.89 70.8303 105.346 71.4142 104.998C71.9982 104.672 72.9282 104.672 73.5121 104.998Z" fill="#16110D"/>
<path d="M46.1533 114.542C46.7372 114.868 46.7372 115.411 46.1533 115.759C45.5693 116.085 44.6393 116.085 44.0554 115.759C43.4714 115.433 43.4714 114.89 44.0554 114.542C44.6393 114.216 45.5693 114.216 46.1533 114.542Z" fill="#16110D"/>
<path d="M51.625 111.368C52.209 111.694 52.209 112.237 51.625 112.585C51.0411 112.911 50.1111 112.911 49.5272 112.585C48.9432 112.259 48.9432 111.716 49.5272 111.368C50.1111 111.042 51.0411 111.042 51.625 111.368Z" fill="#16110D"/>
<path d="M68.0403 101.824C68.6243 102.15 68.6243 102.694 68.0403 103.042C67.4564 103.368 66.5264 103.368 65.9425 103.042C65.3585 102.716 65.3585 102.172 65.9425 101.824C66.5264 101.498 67.4564 101.498 68.0403 101.824Z" fill="#16110D"/>
<path d="M35.2097 114.542C35.7937 114.868 35.7937 115.411 35.2097 115.759C34.6258 116.085 33.6958 116.085 33.1118 115.759C32.5279 115.433 32.5279 114.89 33.1118 114.542C33.6958 114.216 34.6258 114.216 35.2097 114.542Z" fill="#16110D"/>
<path d="M40.6815 111.368C41.2654 111.694 41.2654 112.237 40.6815 112.585C40.0975 112.911 39.1676 112.911 38.5836 112.585C37.9997 112.259 37.9997 111.716 38.5836 111.368C39.1676 111.042 40.0975 111.042 40.6815 111.368Z" fill="#16110D"/>
<path d="M46.1533 108.172C46.7372 108.498 46.7372 109.042 46.1533 109.389C45.5693 109.716 44.6393 109.716 44.0554 109.389C43.4714 109.063 43.4714 108.52 44.0554 108.172C44.6393 107.846 45.5693 107.846 46.1533 108.172Z" fill="#16110D"/>
<path d="M51.625 104.998C52.209 105.324 52.209 105.868 51.625 106.216C51.0411 106.542 50.1111 106.542 49.5272 106.216C48.9432 105.89 48.9432 105.346 49.5272 104.998C50.1111 104.672 51.0411 104.672 51.625 104.998Z" fill="#16110D"/>
<path d="M57.0968 101.824C57.6807 102.15 57.6807 102.694 57.0968 103.042C56.5129 103.368 55.5829 103.368 54.9989 103.042C54.415 102.716 54.415 102.172 54.9989 101.824C55.5829 101.498 56.5129 101.498 57.0968 101.824Z" fill="#16110D"/>
<path d="M62.5686 98.6503C63.1525 98.9764 63.1525 99.5199 62.5686 99.8677C61.9846 100.194 61.0546 100.194 60.4707 99.8677C59.8868 99.5416 59.8868 98.9982 60.4707 98.6503C61.0546 98.3242 61.9846 98.3242 62.5686 98.6503Z" fill="#16110D"/>
<path d="M29.7163 111.368C30.3003 111.694 30.3003 112.237 29.7163 112.585C29.1324 112.911 28.2024 112.911 27.6184 112.585C27.0345 112.259 27.0345 111.716 27.6184 111.368C28.2024 111.042 29.1324 111.042 29.7163 111.368Z" fill="#16110D"/>
<path d="M35.2097 108.172C35.7937 108.498 35.7937 109.042 35.2097 109.389C34.6258 109.716 33.6958 109.716 33.1118 109.389C32.5279 109.063 32.5279 108.52 33.1118 108.172C33.6958 107.846 34.6258 107.846 35.2097 108.172Z" fill="#16110D"/>
<path d="M40.6815 104.998C41.2654 105.324 41.2654 105.868 40.6815 106.216C40.0975 106.542 39.1676 106.542 38.5836 106.216C37.9997 105.89 37.9997 105.346 38.5836 104.998C39.1676 104.672 40.0975 104.672 40.6815 104.998Z" fill="#16110D"/>
<path d="M46.1533 101.824C46.7372 102.15 46.7372 102.694 46.1533 103.042C45.5693 103.368 44.6393 103.368 44.0554 103.042C43.4714 102.716 43.4714 102.172 44.0554 101.824C44.6393 101.498 45.5693 101.498 46.1533 101.824Z" fill="#16110D"/>
<path d="M51.625 98.6503C52.209 98.9764 52.209 99.5199 51.625 99.8677C51.0411 100.194 50.1111 100.194 49.5272 99.8677C48.9432 99.5416 48.9432 98.9982 49.5272 98.6503C50.1111 98.3242 51.0411 98.3242 51.625 98.6503Z" fill="#16110D"/>
<path d="M57.0968 95.4764C57.6807 95.8025 57.6807 96.3459 57.0968 96.6938C56.5129 97.0199 55.5829 97.0199 54.9989 96.6938C54.415 96.3677 54.415 95.8242 54.9989 95.4764C55.5829 95.1503 56.5129 95.1503 57.0968 95.4764Z" fill="#16110D"/>
<path d="M24.2013 108.15C24.7852 108.476 24.7852 109.02 24.2013 109.368C23.6173 109.694 22.6873 109.694 22.1034 109.368C21.5194 109.042 21.5194 108.498 22.1034 108.15C22.6873 107.824 23.6173 107.824 24.2013 108.15Z" fill="#16110D"/>
<path d="M29.673 104.976C30.257 105.303 30.257 105.846 29.673 106.194C29.0891 106.52 28.1591 106.52 27.5752 106.194C26.9912 105.868 26.9912 105.324 27.5752 104.976C28.1591 104.65 29.0891 104.65 29.673 104.976Z" fill="#16110D"/>
<path d="M40.6166 98.6069C41.2006 98.933 41.2006 99.4764 40.6166 99.8243C40.0327 100.15 39.1027 100.15 38.5187 99.8243C37.9348 99.4982 37.9348 98.9547 38.5187 98.6069C39.1027 98.2808 40.0327 98.2808 40.6166 98.6069Z" fill="#16110D"/>
<path d="M46.11 95.4329C46.6939 95.759 46.6939 96.3025 46.11 96.6503C45.526 96.9764 44.5961 96.9764 44.0121 96.6503C43.4282 96.3242 43.4282 95.7807 44.0121 95.4329C44.5961 95.1068 45.526 95.1068 46.11 95.4329Z" fill="#16110D"/>
<path d="M51.5818 92.2591C52.1657 92.5852 52.1657 93.1287 51.5818 93.4765C50.9978 93.8026 50.0679 93.8026 49.4839 93.4765C48.9 93.1504 48.9 92.6069 49.4839 92.2591C50.0679 91.933 50.9978 91.933 51.5818 92.2591Z" fill="#16110D"/>
<path d="M18.7295 104.976C19.3134 105.303 19.3134 105.846 18.7295 106.194C18.1456 106.52 17.2156 106.52 16.6316 106.194C16.0477 105.868 16.0477 105.324 16.6316 104.976C17.2156 104.65 18.1456 104.65 18.7295 104.976Z" fill="#16110D"/>
<path d="M24.2013 101.803C24.7852 102.129 24.7852 102.672 24.2013 103.02C23.6173 103.346 22.6873 103.346 22.1034 103.02C21.5194 102.694 21.5194 102.15 22.1034 101.803C22.6873 101.476 23.6173 101.476 24.2013 101.803Z" fill="#16110D"/>
<path d="M46.11 89.0851C46.6939 89.4112 46.6939 89.9547 46.11 90.3025C45.526 90.6286 44.5961 90.6286 44.0121 90.3025C43.4282 89.9764 43.4282 89.433 44.0121 89.0851C44.5961 88.7591 45.526 88.7591 46.11 89.0851Z" fill="#16110D"/>
<path d="M13.2577 101.803C13.8417 102.129 13.8417 102.672 13.2577 103.02C12.6738 103.346 11.7438 103.346 11.1599 103.02C10.5759 102.694 10.5759 102.15 11.1599 101.803C11.7438 101.476 12.6738 101.476 13.2577 101.803Z" fill="#16110D"/>
<path d="M18.7295 98.6069C19.3134 98.933 19.3134 99.4764 18.7295 99.8243C18.1456 100.15 17.2156 100.15 16.6316 99.8243C16.0477 99.4982 16.0477 98.9547 16.6316 98.6069C17.2156 98.2808 18.1456 98.2808 18.7295 98.6069Z" fill="#16110D"/>
<path d="M7.78595 98.6069C8.3699 98.933 8.3699 99.4765 7.78595 99.8243C7.20201 100.15 6.27202 100.15 5.68808 99.8243C5.10414 99.4982 5.10414 98.9547 5.68808 98.6069C6.27202 98.2591 7.20201 98.2808 7.78595 98.6069Z" fill="#16110D"/>
<path d="M13.2577 95.4329C13.8417 95.759 13.8417 96.3025 13.2577 96.6503C12.6738 96.9764 11.7438 96.9764 11.1599 96.6503C10.5759 96.3242 10.5759 95.7807 11.1599 95.4329C11.7438 95.1068 12.6738 95.1068 13.2577 95.4329Z" fill="#16110D"/>
<path d="M7.78595 92.2591C8.3699 92.5852 8.3699 93.1287 7.78595 93.4765C7.20201 93.8026 6.27202 93.8026 5.68808 93.4765C5.10414 93.1504 5.10414 92.6069 5.68808 92.2591C6.27202 91.933 7.20201 91.933 7.78595 92.2591Z" fill="#16110D"/>
<path d="M13.2577 89.0852C13.8417 89.4113 13.8417 89.9547 13.2577 90.3026C12.6738 90.6287 11.7438 90.6287 11.1599 90.3026C10.5759 89.9765 10.5759 89.433 11.1599 89.0852C11.7438 88.7374 12.6738 88.7591 13.2577 89.0852Z" fill="#16110D"/>
<path d="M84.5205 105.02C85.1045 105.346 85.1045 105.889 84.5205 106.237C83.9366 106.563 83.0066 106.563 82.4227 106.237C81.8387 105.911 81.8387 105.368 82.4227 105.02C83.0066 104.672 83.9366 104.694 84.5205 105.02Z" fill="#16110D"/>
<path d="M89.9923 101.846C90.5763 102.172 90.5763 102.716 89.9923 103.063C89.4084 103.389 88.4784 103.389 87.8944 103.063C87.3105 102.737 87.3105 102.194 87.8944 101.846C88.4784 101.52 89.4084 101.52 89.9923 101.846Z" fill="#16110D"/>
<path d="M95.4641 98.6721C96.0481 98.9981 96.0481 99.5416 95.4641 99.8894C94.8802 100.216 93.9502 100.216 93.3662 99.8894C92.7823 99.5634 92.7823 99.0199 93.3662 98.6721C93.9502 98.346 94.8802 98.346 95.4641 98.6721Z" fill="#16110D"/>
<path d="M100.936 95.4982C101.52 95.8243 101.52 96.3678 100.936 96.7156C100.352 97.0417 99.422 97.0417 98.838 96.7156C98.2541 96.3895 98.2541 95.8461 98.838 95.4982C99.422 95.1721 100.352 95.1721 100.936 95.4982Z" fill="#16110D"/>
<path d="M106.408 92.3243C106.992 92.6504 106.992 93.1938 106.408 93.5417C105.824 93.8678 104.894 93.8678 104.31 93.5417C103.726 93.2156 103.726 92.6721 104.31 92.3243C104.894 91.9982 105.824 91.9982 106.408 92.3243Z" fill="#16110D"/>
<path d="M111.879 89.1503C112.463 89.4764 112.463 90.0199 111.879 90.3677C111.295 90.6938 110.365 90.6938 109.782 90.3677C109.198 90.0416 109.198 89.4982 109.782 89.1503C110.365 88.8242 111.295 88.8242 111.879 89.1503Z" fill="#16110D"/>
<path d="M117.351 85.9764C117.935 86.3025 117.935 86.8459 117.351 87.1938C116.767 87.5416 115.837 87.5199 115.253 87.1938C114.669 86.8677 114.669 86.3242 115.253 85.9764C115.837 85.6503 116.767 85.6503 117.351 85.9764Z" fill="#16110D"/>
<path d="M76.9293 101.868C77.5132 101.542 78.4432 101.52 79.0272 101.868C79.6111 102.194 79.6111 102.737 79.0272 103.085C78.4432 103.433 77.5132 103.433 76.9293 103.085C76.3453 102.759 76.3453 102.216 76.9293 101.868Z" fill="#16110D"/>
<path d="M84.5205 98.6721C85.1045 98.9981 85.1045 99.5416 84.5205 99.8894C83.9366 100.237 83.0066 100.216 82.4227 99.8894C81.8387 99.5634 81.8387 99.0199 82.4227 98.6721C83.0066 98.346 83.9366 98.346 84.5205 98.6721Z" fill="#16110D"/>
<path d="M93.3662 92.3243C93.9502 91.9982 94.8802 91.9982 95.4641 92.3243C96.0481 92.6504 96.0481 93.1938 95.4641 93.5417C94.8802 93.8678 93.9502 93.8678 93.3662 93.5417C92.7823 93.2156 92.7823 92.6721 93.3662 92.3243Z" fill="#16110D"/>
<path d="M98.838 89.1503C99.422 88.8242 100.352 88.8242 100.936 89.1503C101.52 89.4764 101.52 90.0199 100.936 90.3677C100.352 90.6938 99.422 90.6938 98.838 90.3677C98.2541 90.0416 98.2541 89.4982 98.838 89.1503Z" fill="#16110D"/>
<path d="M106.408 85.9764C106.992 86.3025 106.992 86.8459 106.408 87.1938C105.824 87.5199 104.894 87.5199 104.31 87.1938C103.726 86.8677 103.726 86.3242 104.31 85.9764C104.894 85.6503 105.824 85.6503 106.408 85.9764Z" fill="#16110D"/>
<path d="M111.879 82.8025C112.463 83.1286 112.463 83.6721 111.879 84.0199C111.295 84.346 110.365 84.346 109.782 84.0199C109.198 83.6939 109.198 83.1504 109.782 82.8025C110.365 82.4765 111.295 82.4765 111.879 82.8025Z" fill="#16110D"/>
<path d="M71.4575 98.6721C72.0415 98.346 72.9714 98.346 73.5554 98.6721C74.1393 98.9981 74.1393 99.5416 73.5554 99.8894C72.9714 100.216 72.0415 100.237 71.4575 99.8894C70.8736 99.5634 70.8736 99.0199 71.4575 98.6721Z" fill="#16110D"/>
<path d="M100.936 82.8025C101.52 83.1286 101.52 83.6721 100.936 84.0199C100.352 84.346 99.4219 84.346 98.838 84.0199C98.2541 83.6938 100.352 82.4764 100.936 82.8025Z" fill="#16110D"/>
<path d="M104.31 79.6069C104.894 79.2808 105.824 79.2808 106.408 79.6069C106.992 79.933 106.992 80.4764 106.408 80.8243C105.824 81.1504 104.894 81.1504 104.31 80.8243C103.726 80.4982 103.726 79.9547 104.31 79.6069C104.894 79.2808 103.726 79.933 104.31 79.6069Z" fill="#16110D"/>
<path d="M65.9857 95.4981C66.5697 95.1721 67.4997 95.1503 68.0836 95.4981C68.6676 95.8242 68.6676 96.3677 68.0836 96.7155C67.4997 97.0634 66.5697 97.0634 65.9857 96.7155C65.4018 96.3895 65.4018 95.846 65.9857 95.4981Z" fill="#16110D"/>
<path d="M60.5139 92.3243C61.0979 91.9982 62.0279 91.9765 62.6118 92.3243C63.1958 92.6504 63.1958 93.1939 62.6118 93.5417C62.0279 93.8678 61.0979 93.8895 60.5139 93.5417C59.93 93.2156 59.93 92.6721 60.5139 92.3243Z" fill="#16110D"/>
<path d="M54.9989 89.1069C55.5829 88.7808 56.5129 88.7591 57.0968 89.1069C57.6807 89.433 57.6807 89.9765 57.0968 90.3243C56.5129 90.6504 55.5829 90.6721 54.9989 90.3243C54.415 89.9982 54.415 89.4547 54.9989 89.1069Z" fill="#16110D"/>
<path d="M49.5272 85.933C50.1111 85.6069 51.0411 85.5851 51.625 85.933C52.209 86.259 52.209 86.8025 51.625 87.1504C51.0411 87.4764 50.1111 87.4982 49.5272 87.1504C48.9432 86.8243 48.9432 86.2808 49.5272 85.933Z" fill="#16110D"/>
<path d="M57.0968 82.7591C57.6807 83.0852 57.6807 83.6287 57.0968 83.9765C56.5129 84.3026 55.5829 84.3026 54.9989 83.9765C54.415 83.6504 54.415 83.1069 54.9989 82.7591C55.5829 82.433 56.5129 82.433 57.0968 82.7591Z" fill="#16110D"/>
<path d="M88.1107 107.694C88.6947 107.368 89.6247 107.346 90.2086 107.694C90.7926 108.02 90.7926 108.563 90.2086 108.911C89.6247 109.237 88.6947 109.259 88.1107 108.911C87.5268 108.585 87.5268 108.042 88.1107 107.694Z" fill="#16110D"/>
<path d="M95.6804 104.52C96.2643 104.846 96.2643 105.39 95.6804 105.737C95.0964 106.063 94.1664 106.063 93.5825 105.737C92.9985 105.411 92.9985 104.868 93.5825 104.52C94.1664 104.194 95.0964 104.194 95.6804 104.52Z" fill="#16110D"/>
<path d="M101.152 101.346C101.736 101.672 101.736 102.216 101.152 102.563C100.568 102.889 99.6382 102.889 99.0543 102.563C98.4703 102.237 98.4703 101.694 99.0543 101.346C99.6382 101.02 100.568 101.02 101.152 101.346Z" fill="#16110D"/>
<path d="M106.624 98.1721C107.208 98.4982 107.208 99.0417 106.624 99.3895C106.04 99.7156 105.11 99.7156 104.526 99.3895C103.942 99.0634 103.942 98.5199 104.526 98.1721C105.11 97.8243 106.04 97.846 106.624 98.1721Z" fill="#16110D"/>
<path d="M112.096 94.9982C112.68 95.3243 112.68 95.8678 112.096 96.2156C111.512 96.5417 110.582 96.5417 109.998 96.2156C109.414 95.8895 109.414 95.3461 109.998 94.9982C110.582 94.6721 111.512 94.6721 112.096 94.9982Z" fill="#16110D"/>
<path d="M117.567 91.8243C118.151 92.1504 118.151 92.6938 117.567 93.0417C116.984 93.3678 116.054 93.3678 115.47 93.0417C114.886 92.7156 114.886 92.1721 115.47 91.8243C116.054 91.4982 116.984 91.4982 117.567 91.8243Z" fill="#16110D"/>
<path d="M75.1774 13.6939C75.3937 12.8678 75.0477 11.9982 74.3123 11.5852L61.0114 3.93302C60.4491 3.54171 59.8435 3.21562 59.2379 2.91128L58.7837 2.65041L58.6107 2.58519C52.4901 -0.219158 44.1635 0.82432 34.7988 6.28084C16.1774 17.0852 1.08139 41.3461 1.08139 60.4982C1.08139 68.6939 3.63344 74.433 8.26174 77.6721L8.47802 77.8461L8.84569 78.0634C9.47289 78.4765 9.94869 78.7591 10.6191 79.0852L16.9993 82.7808V93.7156C16.9993 94.4765 17.3021 94.933 17.7346 95.0852L31.2302 102.781C31.7709 103.085 32.4414 102.824 32.636 102.237L36.8966 89.7374L37.5455 86.02L26.9696 83.3461L30.6246 77.7156C32.0088 77.0852 33.393 76.3895 34.8204 75.5634C42.7361 70.9765 49.9813 63.9548 55.7343 55.933L65.7478 48.52L75.1991 13.6939H75.1774Z" fill="white"/>
<path d="M75.7181 19.346C75.9344 18.5199 75.5883 17.6503 74.853 17.2373L61.5521 9.58512C60.9897 9.19381 60.3842 8.86772 59.7786 8.56338L59.3244 8.30251L59.1514 8.23729C53.0308 5.43294 44.7042 6.47642 35.3394 11.9329C16.7181 22.7156 1.62207 46.9982 1.62207 66.1286C1.62207 74.3242 31.1653 83.3677 31.1653 83.3677C32.5495 82.7373 33.9337 82.0416 35.3611 81.2156C43.2768 76.6286 50.522 69.6069 56.2749 61.5851L66.2885 54.1721L75.7397 19.346H75.7181Z" fill="#CDCCFF"/>
<path d="M31.7276 103.998C31.3816 103.998 31.0356 103.911 30.7111 103.737L17.2155 96.0418C16.4802 95.7809 15.9395 94.8896 15.9395 93.7374V83.4331L10.1001 80.0418C9.42962 79.7157 8.91056 79.4331 8.26173 78.9766L7.59128 78.4983C2.66019 75.0418 0 68.8027 0 60.4766C0 41.0418 15.3772 16.3027 34.2581 5.32439C43.6444 -0.110389 52.4685 -1.43648 59.0865 1.58526L59.8002 1.95483C60.5356 2.32439 61.1195 2.65048 61.6386 3.02005L74.853 10.6287C76.0209 11.3027 76.5832 12.6722 76.2372 13.9766L66.6778 49.1722L56.5128 56.7157C50.4139 65.1722 43.1037 72.0201 35.3611 76.5201C34.0634 77.2592 32.7225 77.9548 31.36 78.5853L28.6998 82.6722L38.7999 85.2157L37.978 89.9331L33.6957 102.607C33.5011 103.194 33.0469 103.65 32.4846 103.868C32.2467 103.955 32.0088 103.998 31.7493 103.998H31.7276ZM51.3438 2.17222C46.5641 2.17222 41.0924 3.86787 35.3394 7.2157C17.0425 17.8244 2.16276 41.7374 2.16276 60.4983C2.16276 68.1722 4.43365 73.6505 8.88893 76.7809L9.42962 77.1505C10.0352 77.5635 10.4461 77.8027 11.0949 78.107L18.1023 82.1505V93.7157C18.1023 93.9983 18.1672 94.0853 18.1672 94.0853L31.7709 101.824L35.8801 89.3679L36.3127 86.8244L25.2394 84.0201L29.8893 76.8461L30.1705 76.7157C31.5762 76.0853 32.9388 75.3679 34.2581 74.607C41.7845 70.2374 48.8999 63.5635 54.8259 55.2809L55.0638 55.0418L64.7746 47.8461L74.1393 13.3896C74.2258 13.0418 74.0744 12.6722 73.7716 12.4983L60.4707 4.84613C59.8867 4.43309 59.3244 4.15048 58.7621 3.84613L58.2647 3.56352C56.1884 2.607 53.8743 2.15048 51.3655 2.15048L51.3438 2.17222Z" fill="#16110D"/>
<path d="M32.7441 83.6721L24.2661 85.7374L15.853 80.8895V93.6721C15.853 94.8461 16.3937 95.7374 17.129 95.9982L31.2302 104.042C31.4465 104.172 31.706 104.237 31.9439 104.237C32.1169 104.237 32.2899 104.216 32.463 104.15C32.8739 103.998 33.1983 103.672 33.3281 103.259L37.8482 89.9113L38.6701 85.1939L32.7225 83.6939L32.7441 83.6721Z" fill="#16110D"/>
<path d="M49.1378 14.5199C30.5165 25.3242 15.4205 49.6068 15.4205 68.7373C15.4205 81.172 21.8006 88.3677 31.36 88.9329V101.976C31.36 103.955 33.3497 103.889 34.6474 101.868L44.9421 85.9764C46.3263 85.346 47.7104 84.6503 49.1378 83.8242C67.7592 73.0199 82.8552 48.7373 82.8552 29.6068C82.8552 10.4764 67.7808 3.71551 49.1378 14.5199Z" fill="white"/>
<path d="M32.4846 104.498C32.2683 104.498 32.0521 104.476 31.8358 104.411C30.8625 104.129 30.2786 103.216 30.2786 101.976V89.9329C20.4164 88.8677 14.3391 80.846 14.3391 68.7373C14.3391 49.2808 29.7163 24.5416 48.5971 13.5634C58.5891 7.75904 68.1917 6.67208 74.9395 10.5851C80.7573 13.9547 83.9366 20.6938 83.9366 29.5634C83.9366 49.0199 68.5594 73.759 49.6785 84.7373C48.3809 85.4982 47.0616 86.1721 45.6774 86.8025L35.5557 102.433C34.7122 103.737 33.566 104.476 32.4846 104.476V104.498ZM65.7262 10.4547C60.9032 10.4547 55.3882 12.1503 49.6785 15.4547C31.3816 26.0851 16.5018 49.9764 16.5018 68.7373C16.5018 80.1503 22.0817 87.3025 31.4249 87.846L32.4414 87.9112V101.976C32.4414 102.259 32.5062 102.368 32.5062 102.368C32.5927 102.368 33.1767 102.15 33.739 101.281L44.2068 85.1286L44.4879 84.9982C45.9153 84.346 47.2562 83.6721 48.5755 82.8895C66.8724 72.2808 81.7522 48.3677 81.7522 29.6069C81.7522 21.5416 78.9406 15.4764 73.8365 12.4982C71.5007 11.1286 68.7324 10.4547 65.7046 10.4547H65.7262Z" fill="#16110D"/>
<path d="M40.9193 57.8678C40.9193 60.8243 38.8431 64.433 36.2911 65.933C33.739 67.433 31.6628 66.2156 31.6628 63.2374C31.6628 60.2591 33.739 56.6721 36.2911 55.1721C38.8431 53.6939 40.9193 54.8895 40.9193 57.8678Z" fill="#CDCCFF"/>
<path d="M32.3332 65.2808C31.7493 65.2808 31.2086 65.1504 30.7328 64.8678C29.6081 64.2156 28.9809 62.8895 28.9809 61.1504C28.9809 57.8678 31.1869 54.0199 34.0201 52.3895C35.5125 51.5199 36.9615 51.4112 38.1078 52.0634C39.254 52.7156 39.8596 54.0417 39.8596 55.7808C39.8596 59.0634 37.6536 62.9112 34.8204 64.5417C33.9553 65.0417 33.1118 65.2808 32.3548 65.2808H32.3332ZM36.4641 53.2591C35.9666 53.2591 35.4043 53.433 34.7987 53.7808C32.5062 55.1069 30.5814 58.4765 30.5814 61.1286C30.5814 62.2591 30.9274 63.0852 31.533 63.433C32.1386 63.7808 33.0253 63.6721 33.9985 63.1069C36.291 61.7808 38.2159 58.4112 38.2159 55.7591C38.2159 54.6286 37.8699 53.8025 37.2643 53.4547C37.0264 53.3243 36.7669 53.2591 36.4641 53.2591Z" fill="#16110D"/>
<path d="M56.3182 48.9547C56.3182 51.9112 54.242 55.5199 51.6899 57.0199C49.1379 58.4982 47.0616 57.3025 47.0616 54.3243C47.0616 51.346 49.1379 47.7591 51.6899 46.2591C54.242 44.7808 56.3182 45.9764 56.3182 48.9547Z" fill="#CDCCFF"/>
<path d="M47.7104 56.346C47.1265 56.346 46.5858 56.2156 46.11 55.933C44.9854 55.2808 44.3582 53.9547 44.3582 52.2156C44.3582 48.933 46.5642 45.0851 49.3974 43.4547C50.8897 42.5851 52.3387 42.4764 53.485 43.1286C54.6096 43.7808 55.2368 45.1069 55.2368 46.846C55.2368 50.1286 53.0308 53.9764 50.1976 55.6069C49.3325 56.1069 48.489 56.346 47.7321 56.346H47.7104ZM51.8413 44.3243C51.3439 44.3243 50.7815 44.4982 50.176 44.846C47.8834 46.1721 45.9586 49.5416 45.9586 52.1938C45.9586 53.3243 46.3046 54.1503 46.9102 54.4982C47.5158 54.846 48.4025 54.7373 49.3757 54.1721C51.6683 52.846 53.5931 49.4764 53.5931 46.8243C53.5931 45.6938 53.2471 44.8677 52.6415 44.5199C52.4036 44.3895 52.1441 44.3243 51.8413 44.3243Z" fill="#16110D"/>
<path d="M71.6954 40.0199C71.6954 42.9764 69.6191 46.5851 67.0671 48.0851C64.515 49.5634 62.4388 48.3677 62.4388 45.3895C62.4388 42.4112 64.515 38.8243 67.0671 37.3243C69.6191 35.8243 71.6954 37.0416 71.6954 40.0199Z" fill="#CDCCFF"/>
<path d="M63.0876 47.4329C62.5037 47.4329 61.963 47.3025 61.4872 47.0199C60.3625 46.3677 59.7354 45.0416 59.7354 43.3025C59.7354 40.0199 61.9414 36.172 64.7746 34.5416C66.2669 33.672 67.7159 33.5633 68.8622 34.2155C69.9868 34.8677 70.614 36.1938 70.614 37.9329C70.614 41.2155 68.408 45.0633 65.5748 46.6938C64.7097 47.1938 63.8662 47.4329 63.1093 47.4329H63.0876ZM67.2185 35.4112C66.7211 35.4112 66.1587 35.5851 65.5532 35.9329C63.2606 37.259 61.3358 40.6286 61.3358 43.2807C61.3358 44.4112 61.6818 45.2373 62.2874 45.5851C62.893 45.9329 63.7797 45.8242 64.7529 45.259C67.0455 43.9329 68.9703 40.5633 68.9703 37.9112C68.9703 36.7807 68.6243 35.9546 68.0187 35.6068C67.7808 35.4764 67.5213 35.4112 67.2185 35.4112Z" fill="#16110D"/>
<path d="M108.354 45.9329L97.9512 40.1286H97.9296C93.8853 37.8894 88.0674 38.3677 81.5792 42.1286C69.4029 49.1938 59.5407 65.0634 59.5407 77.5851C59.5407 83.2373 61.206 86.9981 64.5583 89.0199L64.9043 89.2808L75.5018 95.1503L77.1239 89.5634C78.5729 89.0416 80.0652 88.3242 81.5792 87.4329C81.7089 87.346 81.8603 87.259 81.9901 87.1721L88.1107 90.9112C89.0623 91.4981 90.7276 89.7373 90.7276 88.1503V80.0416C98.3189 72.0634 103.618 61.1286 103.618 51.9764C103.618 51.759 103.596 51.5416 103.574 51.3242L108.354 45.9112V45.9329Z" fill="white"/>
<path d="M108.678 50.9765L98.2756 45.1722H98.254C94.2097 42.933 88.3918 43.4113 81.9036 47.1722C69.7272 54.2374 59.8651 70.1069 59.8651 82.6287C59.8651 88.2808 91.0737 85.0852 91.0737 85.0852C98.6649 77.1069 103.964 66.1722 103.964 57.02C103.964 56.8026 103.942 56.5852 103.92 56.3678L108.7 50.9548L108.678 50.9765Z" fill="#CDCCFF"/>
<path d="M76.129 96.7591L63.8878 89.9112C60.276 87.7156 58.416 83.5634 58.416 77.5851C58.416 64.7591 68.5594 48.433 80.9952 41.1938C87.2888 37.5417 93.4094 36.7373 97.8864 38.9112L98.427 39.1721L110.019 45.6286L104.634 51.7156C104.634 51.7156 104.634 51.8895 104.634 51.9765C104.634 60.9547 99.5949 72.0852 91.7441 80.4765V88.1504C91.7441 89.5417 90.8358 91.1069 89.6246 91.7808C88.8893 92.1939 88.0891 92.2156 87.4619 91.846L81.9036 88.4547C80.5627 89.2156 79.2218 89.8678 77.9025 90.3895L76.0425 96.7591H76.129ZM92.3497 39.8895C89.2786 39.8895 85.7533 40.9765 82.0982 43.0852C70.2463 49.9765 60.6004 65.4547 60.6004 77.5851C60.6004 82.8243 62.0711 86.2591 65.099 88.1069L65.5315 88.4112L74.8314 93.5634L76.2372 88.7591L76.7562 88.5634C78.162 88.0417 79.6111 87.3678 81.0385 86.5199L81.9901 85.933L88.673 90.0199C88.846 89.933 89.6463 89.0417 89.6463 88.1938V79.6504L89.949 79.3243C97.5836 71.2808 102.536 60.5634 102.536 52.0199L102.493 50.9765L106.667 46.2591L97.9512 41.4112L97.4105 41.1504C95.9615 40.346 94.2529 39.933 92.3713 39.933L92.3497 39.8895Z" fill="#16110D"/>
<path d="M114.713 58.1505C114.713 45.6505 104.85 41.2374 92.6741 48.3026C80.4978 55.3678 70.6356 71.2374 70.6356 83.7591C70.6356 96.2809 80.4978 100.672 92.6741 93.607C92.8039 93.52 92.9553 93.4331 93.085 93.3461L99.2056 97.0852C100.157 97.6722 101.823 95.9113 101.823 94.3244V86.2157C109.414 78.2374 114.713 67.3026 114.713 58.1505Z" fill="white"/>
<path d="M99.6166 98.2809C99.2705 98.2809 98.9461 98.1939 98.6433 98.02L93.085 94.6287C86.467 98.433 80.1085 99.1069 75.61 96.4982C71.6954 94.2156 69.5326 89.6939 69.5326 83.7591C69.5326 70.933 79.6759 54.6069 92.1118 47.3678C98.7731 43.4982 105.175 42.8026 109.717 45.433C113.631 47.7156 115.794 52.2374 115.794 58.1722C115.794 67.1504 110.755 78.2809 102.904 86.6722V94.3461C102.904 95.7374 101.996 97.3026 100.784 97.9765C100.395 98.1939 99.9842 98.3026 99.5949 98.3026L99.6166 98.2809ZM93.085 92.0635L99.768 96.1504C99.941 96.0635 100.741 95.1722 100.741 94.3243V85.7809L101.044 85.4765C108.679 77.433 113.631 66.7156 113.631 58.1722C113.631 53.0417 111.858 49.1939 108.635 47.3243C104.786 45.0852 99.1624 45.8026 93.1932 49.2591C81.3413 56.1504 71.6954 71.6287 71.6954 83.7591C71.6954 88.8896 73.4688 92.7374 76.6913 94.6069C80.541 96.8461 86.1642 96.1287 92.1334 92.6722L93.085 92.0852V92.0635Z" fill="#16110D"/>
<path d="M87.1591 77.1286C87.1591 79.1286 85.7533 81.5634 84.0231 82.5634C82.2929 83.5634 80.8871 82.7591 80.8871 80.7591C80.8871 78.7591 82.2929 76.3243 84.0231 75.3243C85.7533 74.3243 87.1591 75.1286 87.1591 77.1286Z" fill="#CDCCFF"/>
<path d="M81.4278 82.1286C80.9952 82.1286 80.5843 82.0199 80.2167 81.8026C79.3732 81.3026 78.8974 80.3243 78.8974 79.0634C78.8974 76.7591 80.4546 74.0634 82.4227 72.9113C83.5257 72.2808 84.5854 72.1939 85.4505 72.6939C86.294 73.1939 86.7698 74.1721 86.7698 75.433C86.7698 77.7373 85.2126 80.433 83.2445 81.5852C82.6173 81.9547 82.0117 82.1286 81.4494 82.1286H81.4278ZM84.2177 73.9982C83.9366 73.9982 83.5906 74.1069 83.2229 74.3243C81.7522 75.1721 80.4978 77.346 80.4978 79.0634C80.4978 79.7156 80.6925 80.1939 81.0169 80.3895C81.3413 80.5852 81.8603 80.4982 82.4227 80.1721C83.8933 79.3243 85.1477 77.1504 85.1477 75.433C85.1477 74.7808 84.9531 74.3026 84.6287 74.1069C84.5205 74.0417 84.3691 73.9982 84.2177 73.9982Z" fill="#16110D"/>
<path d="M97.5619 71.1069C97.5619 73.1069 96.1562 75.5417 94.4259 76.5417C92.6957 77.5417 91.2899 76.7373 91.2899 74.7373C91.2899 72.7373 92.6957 70.3025 94.4259 69.3025C96.1562 68.3025 97.5619 69.1069 97.5619 71.1069Z" fill="#CDCCFF"/>
<path d="M91.809 76.0852C91.3765 76.0852 90.9655 75.9765 90.5979 75.7591C89.7544 75.2591 89.2786 74.2808 89.2786 73.02C89.2786 70.7156 90.8358 68.02 92.8039 66.8678C93.9069 66.2374 94.9667 66.1504 95.8318 66.6504C96.6752 67.1504 97.151 68.1287 97.151 69.3895C97.151 71.6939 95.5938 74.3895 93.6257 75.5417C92.9985 75.9113 92.393 76.0852 91.8306 76.0852H91.809ZM94.599 67.9547C94.3178 67.9547 93.9718 68.0634 93.6041 68.2808C92.1334 69.1287 90.879 71.3026 90.879 73.02C90.879 73.6721 91.0737 74.1504 91.3981 74.3461C91.7225 74.5417 92.2416 74.4547 92.8039 74.1287C94.2746 73.2808 95.529 71.1069 95.529 69.3895C95.529 68.7374 95.3343 68.2591 95.0099 68.0634C94.9018 67.9982 94.7504 67.9547 94.599 67.9547Z" fill="#16110D"/>
<path d="M107.965 65.0634C107.965 67.0634 106.559 69.4982 104.829 70.4982C103.099 71.4982 101.693 70.6939 101.693 68.6939C101.693 66.6939 103.099 64.2591 104.829 63.2591C106.559 62.2591 107.965 63.0634 107.965 65.0634Z" fill="#CDCCFF"/>
<path d="M102.212 70.0635C101.779 70.0635 101.368 69.9548 101.001 69.7374C100.157 69.2374 99.6814 68.2591 99.6814 66.9982C99.6814 64.6939 101.239 61.9982 103.207 60.8461C104.31 60.2156 105.369 60.1287 106.235 60.6287C107.078 61.1287 107.554 62.1069 107.554 63.3678C107.554 65.6722 105.997 68.3678 104.029 69.52C103.401 69.8895 102.796 70.0635 102.233 70.0635H102.212ZM105.002 61.933C104.721 61.933 104.375 62.0417 104.007 62.2591C102.536 63.1069 101.282 65.2808 101.282 66.9982C101.282 67.6504 101.477 68.1287 101.801 68.3243C102.125 68.52 102.644 68.433 103.207 68.1069C104.677 67.2591 105.932 65.0852 105.932 63.3678C105.932 62.7156 105.737 62.2374 105.413 62.0417C105.305 61.9765 105.153 61.933 105.002 61.933Z" fill="#16110D"/>
<path d="M60.6005 69.9547L71.4359 76.5417L70.5924 85.7808L72.6038 93.8678L61.6386 86.933L59.5191 81.9112L59.7137 74.346L60.6005 69.9547Z" fill="#16110D"/>
<path d="M3.63344 45.8025L17.7995 54.5634L15.4205 66.5634L16.6316 77.259L19.0106 83.9764L6.74781 76.759L2.59532 70.0634L1.08139 61.9329L1.53557 54.5634L3.63344 45.8025Z" fill="#16110D"/>
<path d="M23.9633 89.6721L17.3453 85.7808V83.1721L21.9952 85.9547L23.9633 89.6721Z" fill="white"/>
</svg>
