<svg width="149" height="152" viewBox="0 0 149 152" fill="none" xmlns="http://www.w3.org/2000/svg">
<path d="M8.87572 66.6847C8.4933 66.2559 8.1905 65.756 7.96556 65.2152L4.68176 57.1085C4.16635 55.8573 4.20131 54.486 4.72658 53.2477C5.25184 52.0095 6.24444 51.0389 7.48141 50.5346L15.5987 47.2314C16.8516 46.713 18.2091 46.7286 19.4605 47.2665C20.6978 47.7885 21.6662 48.7783 22.1675 50.0137L25.4513 58.1204C26.4928 60.6989 25.2335 63.6466 22.6516 64.6943L14.5343 67.9975C13.2814 68.5159 11.9098 68.4844 10.6725 67.9624C9.98041 67.6671 9.35728 67.2248 8.87572 66.6847ZM19.7764 49.8647C19.4789 49.5312 19.1019 49.2686 18.6894 49.0946C17.9389 48.7659 17.1089 48.7647 16.3355 49.0836L8.21824 52.3868C7.46084 52.6915 6.86811 53.2771 6.53738 54.0282C6.20665 54.7793 6.20336 55.6092 6.50624 56.3656L9.79005 64.4723C10.0929 65.2287 10.6772 65.8198 11.4277 66.1485C12.1782 66.4772 13.0083 66.4784 13.7816 66.1595L21.8989 62.8563C23.4756 62.2202 24.2291 60.4363 23.5967 58.8616L20.3129 50.755C20.1818 50.4156 19.9871 50.1331 19.7605 49.8789L19.7764 49.8647Z" fill="#624AFF"/>
<path d="M65.6185 93.342C63.4373 90.8959 62.6026 87.3631 63.7485 84.0317L69.2319 68.2214C70.0648 65.8535 71.7456 63.9555 73.9983 62.8592C76.2509 61.763 78.7959 61.6036 81.1625 62.4303L96.9636 67.8724C101.861 69.5501 104.447 74.8861 102.757 79.7867L97.2872 95.6129C96.4543 97.9808 94.7736 99.8788 92.5209 100.975C90.2682 102.071 87.7232 102.231 85.3567 101.404L69.5555 95.9619C67.9872 95.4214 66.6666 94.5174 65.6327 93.3579L65.6185 93.342ZM98.4677 72.6047C97.7879 71.8422 96.9169 71.2502 95.8956 70.9063L80.0944 65.4642C78.5403 64.9395 76.8749 65.0274 75.4133 65.7605C73.9374 66.4777 72.8228 67.7282 72.2941 69.2832L66.8248 85.1094C65.7019 88.3063 67.4286 91.8135 70.6094 92.9121L86.4265 98.34C87.9806 98.8647 89.646 98.7768 91.1076 98.0437C92.5835 97.3265 93.6981 96.076 94.2268 94.521L99.6961 78.6948C100.442 76.5182 99.8982 74.2089 98.4677 72.6047Z" fill="#624AFF"/>
<path d="M66.0903 130.93C67.0751 127.771 69.2248 125.598 71.9927 124.983C74.8526 124.343 77.8369 125.446 80.1916 128.022C81.3548 129.295 82.6788 129.882 83.8096 129.643C84.8644 129.416 85.6889 128.481 86.1822 127.015L86.992 124.525C87.984 121.502 90.0682 119.415 92.7175 118.763C95.4128 118.099 98.2714 119.029 100.598 121.317L102.067 122.773C103.195 123.877 104.464 124.371 105.506 124.097C106.549 123.824 107.393 122.815 107.842 121.331L108.07 120.528C109.042 117.323 111.18 115.104 113.949 114.459C116.811 113.789 119.795 114.892 122.166 117.454L118.655 120.698C117.478 119.41 116.152 118.853 115.005 119.106C113.935 119.348 113.075 120.371 112.624 121.885L112.396 122.687C111.443 125.818 109.368 128.011 106.685 128.721C103.972 129.429 101.067 128.512 98.7125 126.192L97.2431 124.736C96.1154 123.632 94.8763 123.14 93.8198 123.398C92.8093 123.643 91.9848 124.578 91.5092 126L90.6993 128.49C89.6879 131.587 87.5418 133.701 84.8057 134.287C81.9618 134.912 78.9934 133.796 76.6528 131.235C75.4755 129.947 74.1515 129.359 73.0188 129.628C71.9641 129.856 71.106 130.849 70.6268 132.331L66.0761 130.914L66.0903 130.93Z" fill="#624AFF"/>
<path d="M127.375 94.7318C124.528 91.5391 124.815 86.6355 128.015 83.7813C131.216 80.9272 136.121 81.2018 138.967 84.3945C141.814 87.5871 141.527 92.4908 138.327 95.3449C135.126 98.199 130.221 97.9245 127.375 94.7318ZM136.547 86.5528C134.89 84.6944 132.031 84.5344 130.168 86.1957C128.305 87.8571 128.138 90.715 129.795 92.5735C131.452 94.4319 134.311 94.5919 136.174 92.9305C138.037 91.2692 138.204 88.4112 136.547 86.5528Z" fill="#624AFF"/>
<path d="M83.4546 91.3525L78.9693 89.8488L81.8922 81.169C82.2405 80.1171 82.5836 79.1554 82.9355 78.2998C82.5445 78.5344 82.0773 78.7799 81.55 79.022L79.1715 79.9453L77.8271 76.3538L84.9889 73.6459L88.9715 74.9705L83.4546 91.3525Z" fill="#624AFF"/>
</svg>
