<svg width="161" height="144" viewBox="0 0 161 144" fill="none" xmlns="http://www.w3.org/2000/svg">
<path d="M59.0792 142.16C61.9574 140.775 64.0281 137.942 64.2558 134.529L65.2911 118.336C65.4361 115.916 64.6493 113.559 63.0342 111.739C61.4191 109.919 59.2035 108.823 56.7808 108.657L40.5678 107.623C35.5568 107.292 31.2085 111.118 30.8979 116.123L29.8626 132.316C29.7176 134.736 30.5045 137.073 32.1196 138.914C33.7347 140.733 35.9502 141.83 38.3729 141.995L54.586 143.029C56.1804 143.132 57.7333 142.822 59.0792 142.16ZM37.4204 111.325C38.3108 110.912 39.3047 110.684 40.3607 110.767L56.5738 111.801C58.1682 111.904 59.6176 112.607 60.6736 113.807C61.7297 115.006 62.2473 116.537 62.1438 118.129L61.1085 134.322C60.9014 137.59 58.0439 140.092 54.7723 139.886L38.5593 138.851C36.9649 138.748 35.5154 138.045 34.4594 136.845C33.4034 135.646 32.8857 134.116 32.9892 132.523L34.0246 116.33C34.1695 114.096 35.5361 112.235 37.4204 111.346V111.325Z" fill="white"/>
<path d="M148.034 78.9803C149.918 78.9803 151.823 78.2564 153.252 76.8295L158.014 72.0729C160.892 69.1982 160.892 64.5037 158.014 61.629L153.252 56.8724C150.374 53.9978 145.673 53.9978 142.795 56.8724L138.033 61.629C135.154 64.5037 135.154 69.1982 138.033 72.0729L142.795 76.8295C144.224 78.2771 146.129 78.9803 148.013 78.9803H148.034ZM148.034 57.4101C149.235 57.4101 150.436 57.8651 151.367 58.7751L156.13 63.5317C157.973 65.3723 157.973 68.3503 156.13 70.1702L151.367 74.9268C149.525 76.7467 146.564 76.7674 144.721 74.9268L139.958 70.1702C138.115 68.3503 138.115 65.3723 139.958 63.5317L144.721 58.7751C145.632 57.8651 146.833 57.4101 148.034 57.4101Z" fill="white"/>
<path d="M48.6432 74.9682C43.6944 74.9268 39.6774 72.8174 37.6068 69.1362C35.474 65.3516 35.7639 60.595 38.4143 56.1072C39.7809 53.8116 40.0501 51.5781 39.1597 49.9857C38.3522 48.5173 36.5714 47.6901 34.1902 47.6281L30.2353 47.5453C25.4935 47.4419 21.6007 45.3738 19.5301 41.8995C17.4388 38.363 17.5216 33.8339 19.7786 29.5323L21.228 26.7611C22.3669 24.5689 22.5118 22.4801 21.6214 21.0325C20.7518 19.6055 18.8675 18.7782 16.4449 18.7989H15.1818C10.1708 18.8403 6.09169 16.7308 3.95893 13.0496C1.78476 9.26503 2.05394 4.50843 4.68365 0L10.6057 3.49507C9.23905 5.81133 8.99057 8.04486 9.90165 9.61661C10.7506 11.1056 12.6556 11.9329 15.1197 11.9329H16.3827C21.2694 11.8915 25.3072 13.9182 27.4606 17.4547C29.6348 21.0118 29.5727 25.5616 27.295 29.9459L25.8455 32.7378C24.7274 34.8886 24.5617 36.9774 25.4314 38.4251C26.2804 39.8521 28.0197 40.6586 30.3595 40.7L34.3144 40.7827C39.1804 40.8861 43.1354 43.0369 45.1439 46.6767C47.2352 50.4613 46.9246 55.1766 44.2949 59.6437C42.9283 61.9599 42.6591 64.1934 43.5495 65.7859C44.3984 67.2749 46.1999 68.1021 48.6432 68.1228L48.6018 75.0095L48.6432 74.9682Z" fill="white"/>
<path d="M11.7238 84.9984C5.42908 85.1846 0.169659 80.2005 0.00400734 73.9135C-0.161642 67.6265 4.80788 62.3529 11.0819 62.1874C17.3766 62.0013 22.6361 66.9854 22.8017 73.2724C22.9881 79.5594 17.9978 84.833 11.7238 84.9984ZM11.1854 65.6204C6.7957 65.7445 3.31703 69.4257 3.44127 73.8101C3.56551 78.1944 7.23053 81.6895 11.641 81.5654C16.0307 81.4413 19.5094 77.7601 19.3852 73.3758C19.2609 68.9914 15.5959 65.4964 11.1854 65.6204Z" fill="white"/>
<path d="M40.3607 133.702L53.1572 134.571L53.3643 131.448L49.368 126.815C48.2291 125.45 47.4837 124.52 47.1317 124.023C46.7797 123.527 46.5519 123.113 46.4277 122.762C46.3034 122.41 46.2413 122.059 46.2827 121.686C46.3241 121.231 46.4898 120.88 46.8004 120.632C47.111 120.383 47.5458 120.28 48.0842 120.321C48.6432 120.363 49.1816 120.549 49.7407 120.921C50.2791 121.273 50.9002 121.79 51.5628 122.452L54.3789 119.577C53.5299 118.708 52.8052 118.067 52.2047 117.674C51.6042 117.281 50.9624 116.971 50.2376 116.744C49.5336 116.516 48.7054 116.371 47.7943 116.309C46.6554 116.227 45.6201 116.371 44.6883 116.702C43.7565 117.033 43.0318 117.571 42.4935 118.274C41.9551 118.977 41.6445 119.804 41.5824 120.714C41.541 121.397 41.5824 122.059 41.7066 122.638C41.8308 123.237 42.0586 123.837 42.3899 124.416C42.7212 125.016 43.1561 125.636 43.7151 126.298C44.2742 126.96 45.4752 128.242 47.2973 130.124V130.248L40.6299 129.793L40.3607 133.723V133.702Z" fill="white"/>
</svg>
