<svg width="60" height="25" viewBox="0 0 60 25" fill="none" xmlns="http://www.w3.org/2000/svg">
<path d="M4.379 15.202C4.357 15.29 4.346 15.466 4.346 15.73C4.346 15.994 4.324 16.225 4.28 16.423C4.236 16.621 4.236 16.863 4.28 17.149C4.368 17.545 4.555 18.029 4.841 18.601C4.841 18.667 5.006 18.843 5.336 19.129C5.424 19.151 5.512 19.173 5.6 19.195C5.71 19.217 5.798 19.25 5.864 19.294C5.93 19.316 6.084 19.305 6.326 19.261C6.568 19.195 6.722 19.14 6.788 19.096C6.876 19.03 7.041 18.898 7.283 18.7C7.525 18.392 7.789 18.183 8.075 18.073C8.493 17.677 8.889 17.336 9.263 17.05C9.615 16.984 9.846 16.962 9.956 16.984C10.066 17.006 10.187 17.094 10.319 17.248C10.627 17.6 10.715 18.051 10.583 18.601C10.407 19.217 10.077 19.8 9.593 20.35C9.505 20.504 9.34 20.647 9.098 20.779C9.054 20.823 8.988 20.922 8.9 21.076L8.273 21.703C8.141 21.703 8.053 21.769 8.009 21.901C7.965 22.033 7.679 22.198 7.151 22.396C6.491 22.396 5.908 22.33 5.402 22.198C4.302 21.956 3.521 21.659 3.059 21.307L2.432 20.911C2.388 20.823 2.179 20.702 1.805 20.548L1.376 20.02L0.881 19.492L0.551 18.898C0.485 18.81 0.441 18.645 0.419 18.403C0.397 18.139 0.364 17.919 0.32 17.743C0.342 17.677 0.353 17.435 0.353 17.017C0.397 16.819 0.419 16.577 0.419 16.291C0.463 16.225 0.463 15.994 0.419 15.598L0.452 15.301V14.839C0.452 14.487 0.496 14.113 0.584 13.717C0.672 13.321 0.76 12.903 0.848 12.463C0.848 12.177 0.881 11.924 0.947 11.704C0.881 11.506 0.892 11.022 0.98 10.252V10.054C0.98 9.834 0.991 9.658 1.013 9.526V9.295L1.079 7.282C1.079 7.216 1.134 6.93 1.244 6.424C1.244 6.16 1.343 5.731 1.541 5.137C1.673 4.917 1.739 4.73 1.739 4.576C1.739 4.466 1.772 4.246 1.838 3.916C1.948 3.784 2.025 3.487 2.069 3.025C2.091 3.025 2.146 2.783 2.234 2.299C2.234 2.035 2.355 1.738 2.597 1.408C2.641 1.276 2.839 1.122 3.191 0.946H3.224C3.312 0.901999 3.642 0.846999 4.214 0.781C4.478 0.781 4.819 0.868999 5.237 1.045C5.347 1.045 5.655 1.21 6.161 1.54C6.425 1.848 6.348 2.552 5.93 3.652C5.93 3.85 5.842 4.147 5.666 4.543C5.666 4.741 5.633 4.972 5.567 5.236C5.567 5.434 5.424 6.226 5.138 7.612C4.874 8.976 4.621 11.506 4.379 15.202ZM16.3021 14.509L16.4011 17.479C16.7531 18.733 17.2701 19.613 17.9521 20.119C18.0621 20.229 18.3151 20.35 18.7111 20.482L19.5361 20.68C19.6461 20.68 19.7671 20.636 19.8991 20.548C20.0531 20.504 20.1631 20.449 20.2291 20.383C20.3831 20.185 20.5371 20.009 20.6911 19.855C20.8451 19.701 20.9111 19.624 20.8891 19.624C20.9771 19.536 21.0101 19.393 20.9881 19.195C21.0541 19.129 21.1421 18.986 21.2521 18.766C21.4941 17.534 21.7361 16.742 21.9781 16.39C22.0661 15.422 22.1101 14.806 22.1101 14.542C22.1101 13.618 21.8681 12.485 21.3841 11.143C21.1201 10.835 20.9881 9.856 20.9881 8.206C20.8561 7.876 20.7791 7.579 20.7571 7.315C20.7351 7.029 20.6581 6.732 20.5261 6.424C20.4161 6.094 20.3281 5.874 20.2621 5.764C20.1961 5.654 20.1521 5.555 20.1301 5.467C20.1301 5.357 20.0861 5.225 19.9981 5.071C19.6461 4.543 19.1071 4.829 18.3811 5.929L17.8201 6.919C17.8201 6.963 17.7101 7.37 17.4901 8.14C17.1381 9.372 16.9621 10.065 16.9621 10.219C16.9841 10.351 16.8631 10.802 16.5991 11.572C16.5771 11.638 16.5661 11.792 16.5661 12.034C16.5881 12.276 16.5441 12.617 16.4341 13.057C16.3461 13.475 16.3021 13.959 16.3021 14.509ZM12.5401 12.1L12.7711 9.658C12.7711 9.526 12.8151 9.328 12.9031 9.064C13.0131 8.8 13.0791 8.635 13.1011 8.569C13.1011 8.525 13.1231 8.448 13.1671 8.338C13.1671 7.744 13.3321 7.227 13.6621 6.787C14.1681 5.621 14.5531 4.752 14.8171 4.18C15.0811 3.608 15.3671 3.135 15.6751 2.761C15.6971 2.651 15.9281 2.475 16.3681 2.233C17.2701 1.749 18.1171 1.507 18.9091 1.507C19.7011 1.507 20.4601 1.628 21.1861 1.87C21.4281 1.914 21.7471 2.079 22.1431 2.365C22.5611 2.651 22.8031 2.805 22.8691 2.827C23.2431 3.047 23.6281 3.52 24.0241 4.246C24.4421 4.95 24.6621 5.467 24.6841 5.797C24.7281 6.127 24.8601 6.655 25.0801 7.381C25.3221 8.085 25.4431 8.613 25.4431 8.965C25.4431 9.295 25.4981 9.801 25.6081 10.483C25.7401 11.165 25.7951 11.715 25.7731 12.133C25.6411 15.235 25.2451 17.479 24.5851 18.865C24.4531 19.833 24.2001 20.449 23.8261 20.713L23.7601 21.175C23.7381 21.439 23.6061 21.736 23.3641 22.066C23.1441 22.396 22.8581 22.649 22.5061 22.825C22.4401 22.891 22.0001 22.99 21.1861 23.122C20.0201 23.342 19.2501 23.452 18.8761 23.452C18.3921 23.606 17.7761 23.573 17.0281 23.353C16.3021 23.155 15.8841 23.045 15.7741 23.023C15.6641 23.023 15.4221 22.902 15.0481 22.66C14.6961 22.44 14.4651 22.264 14.3551 22.132C14.0031 21.868 13.7941 21.659 13.7281 21.505L13.2661 20.581C12.9801 20.295 12.7821 19.888 12.6721 19.36C12.5621 18.81 12.4521 18.458 12.3421 18.304C12.2321 18.062 12.1331 17.809 12.0451 17.545C12.0671 17.391 12.0781 17.116 12.0781 16.72V16.39C11.9901 16.06 12.0121 15.741 12.1441 15.433C12.1661 15.279 12.1771 15.092 12.1771 14.872C12.1991 14.63 12.2321 14.289 12.2761 13.849V13.42C12.4741 12.76 12.5621 12.32 12.5401 12.1ZM28.2903 11.209L28.6203 9.988C28.6203 9.9 28.6753 9.779 28.7853 9.625L29.0163 8.635C29.0823 8.437 29.1923 8.228 29.3463 8.008C29.5003 7.436 29.6543 7.062 29.8083 6.886C29.9623 6.71 30.1163 6.468 30.2703 6.16C30.2703 6.072 30.3803 5.863 30.6003 5.533C30.8203 5.203 31.0183 4.972 31.1943 4.84C31.3263 4.642 31.4253 4.51 31.4913 4.444C31.6013 4.356 31.7883 4.114 32.0523 3.718C32.0963 3.652 32.2943 3.498 32.6463 3.256C32.7563 3.102 32.8333 3.014 32.8773 2.992C32.9433 2.992 33.0753 2.893 33.2733 2.695C33.3833 2.453 33.6033 2.233 33.9333 2.035C34.2633 1.837 34.4833 1.738 34.5933 1.738C34.7033 1.738 34.8463 1.661 35.0223 1.507C35.0443 1.507 35.0883 1.496 35.1543 1.474C35.2423 1.452 35.3413 1.43 35.4513 1.408C36.0013 1.32 36.3313 1.243 36.4413 1.177C36.5513 1.111 36.6833 1.1 36.8373 1.144C37.4313 1.144 38.0143 1.276 38.5863 1.54C38.6963 1.54 38.8393 1.584 39.0153 1.672C39.1253 1.672 39.3453 1.892 39.6753 2.332C40.0053 2.772 40.1923 3.091 40.2363 3.289C40.1263 3.333 39.9613 3.333 39.7413 3.289C38.9053 2.871 37.5523 3.707 35.6823 5.797C34.7143 6.963 33.9223 8.327 33.3063 9.889C33.2183 10.307 33.1193 10.626 33.0093 10.846L32.2173 12.859C32.0633 12.969 31.9533 13.926 31.8873 15.73L31.8213 16.72C31.7773 17.336 31.8433 17.776 32.0193 18.04C32.1293 18.348 32.2613 18.579 32.4153 18.733C32.5913 18.887 32.7233 18.964 32.8113 18.964C32.8773 18.964 33.0423 18.898 33.3063 18.766C33.5703 18.634 33.8343 18.513 34.0983 18.403C34.2303 18.403 34.4063 18.293 34.6263 18.073C34.6923 18.073 34.7803 17.985 34.8903 17.809C34.8903 17.677 34.9783 17.611 35.1543 17.611C35.2423 17.611 35.3523 17.512 35.4843 17.314L35.7483 17.083C35.8363 17.083 35.9793 16.962 36.1773 16.72C36.3973 16.522 36.5403 16.302 36.6063 16.06C36.6503 16.06 36.7383 15.972 36.8703 15.796C37.0463 15.708 37.1673 15.598 37.2333 15.466C37.2993 15.312 37.4753 15.092 37.7613 14.806C37.9373 14.564 38.1243 14.399 38.3223 14.311C38.3663 14.355 38.4873 14.333 38.6853 14.245C38.8393 14.201 39.0043 14.003 39.1803 13.651C39.2463 13.629 39.2793 13.486 39.2793 13.222C39.3233 13.178 39.3233 12.848 39.2793 12.232C39.1473 12.232 38.9163 12.265 38.5863 12.331C37.9483 12.507 37.3213 12.463 36.7053 12.199C36.5733 12.111 36.5073 12.012 36.5073 11.902C36.3973 11.638 36.3643 11.44 36.4083 11.308C36.6063 10.802 36.8263 10.428 37.0683 10.186C37.3103 9.944 37.5193 9.823 37.6953 9.823C37.7173 9.823 38.0693 9.757 38.7513 9.625C38.8613 9.625 39.2023 9.581 39.7743 9.493C40.3683 9.405 40.6983 9.405 40.7643 9.493C40.8523 9.559 40.9733 9.592 41.1273 9.592C41.2813 9.57 41.5343 9.636 41.8863 9.79C42.2603 9.922 42.5353 10.109 42.7113 10.351C42.9533 11.187 43.0523 11.968 43.0083 12.694C42.8103 15.114 42.7113 16.698 42.7113 17.446C42.6013 19.206 42.5463 20.339 42.5463 20.845C42.5463 21.351 42.6013 21.758 42.7113 22.066C42.8213 22.374 42.7773 22.781 42.5793 23.287C42.5353 23.595 42.4253 23.837 42.2493 24.013C42.0953 24.189 41.8643 24.266 41.5563 24.244C41.2703 24.222 41.1273 24.134 41.1273 23.98C41.1273 23.848 41.0063 23.727 40.7643 23.617C40.5003 23.397 40.2583 23.21 40.0383 23.056C39.8403 22.902 39.7193 22.803 39.6753 22.759C39.4993 22.715 39.4223 22.627 39.4443 22.495C39.4883 22.363 39.4553 22.198 39.3453 22C39.2353 21.56 39.1143 20.669 38.9823 19.327C38.8723 18.931 38.7733 18.733 38.6853 18.733C38.6193 18.733 38.4323 18.909 38.1243 19.261C37.9263 19.701 37.7063 20.02 37.4643 20.218C37.2223 20.416 36.9803 20.625 36.7383 20.845C36.1883 21.351 35.8803 21.615 35.8143 21.637C35.7703 21.659 35.7153 21.692 35.6493 21.736C35.4293 21.868 35.1543 22.055 34.8243 22.297C33.8343 22.473 33.1193 22.517 32.6793 22.429C32.4813 22.429 32.2613 22.33 32.0193 22.132C31.7773 21.934 31.6673 21.835 31.6893 21.835V21.802C31.6893 21.758 31.6233 21.714 31.4913 21.67C31.3593 21.626 31.2163 21.549 31.0623 21.439C30.9963 21.439 30.9303 21.384 30.8643 21.274C30.8203 21.164 30.6993 21.076 30.5013 21.01C30.5013 20.944 30.4463 20.845 30.3363 20.713C30.2703 20.713 30.2043 20.614 30.1383 20.416C30.1163 20.46 30.0063 20.383 29.8083 20.185C29.6103 19.987 29.5003 19.866 29.4783 19.822C29.2803 19.778 29.1813 19.701 29.1813 19.591C29.1813 19.569 29.0713 19.415 28.8513 19.129L28.6203 18.7C28.2683 18.282 28.0483 17.655 27.9603 16.819C27.8943 16.819 27.8723 16.665 27.8943 16.357C27.9163 16.049 27.9053 15.807 27.8613 15.631C27.9493 15.235 27.9273 14.982 27.7953 14.872C27.7073 14.3 27.7073 13.937 27.7953 13.783V13.222C27.7953 12.958 27.8613 12.595 27.9933 12.133C27.9933 11.979 28.0373 11.792 28.1253 11.572C28.2133 11.33 28.2683 11.209 28.2903 11.209ZM49.3949 11.407C49.3289 11.473 49.2739 11.902 49.2299 12.694C49.1859 13.486 49.1419 13.926 49.0979 14.014L49.1309 15.862C49.2409 16.522 49.3509 16.995 49.4609 17.281C49.5709 17.567 49.6369 17.743 49.6589 17.809C49.6809 17.875 49.7029 17.952 49.7249 18.04C49.7469 18.106 49.8569 18.249 50.0549 18.469C50.2529 18.689 50.4179 18.898 50.5499 19.096C50.5719 19.096 50.6599 19.162 50.8139 19.294C51.1879 19.58 51.4959 19.668 51.7379 19.558C51.7599 19.558 51.8809 19.503 52.1009 19.393C52.1009 19.327 52.2329 19.261 52.4969 19.195C52.5189 19.195 52.5849 19.107 52.6949 18.931C52.7389 18.931 52.8269 18.854 52.9589 18.7C52.9589 18.634 53.0249 18.546 53.1569 18.436C53.2889 18.304 53.3989 18.194 53.4869 18.106C53.4649 18.062 53.5749 17.853 53.8169 17.479C53.9049 17.479 54.1469 17.05 54.5429 16.192C55.0049 15.224 55.2359 14.718 55.2359 14.674C55.2359 14.608 55.2909 14.388 55.4009 14.014C55.5109 13.618 55.5769 13.343 55.5989 13.189C55.6429 13.013 55.6869 12.87 55.7309 12.76C55.7749 12.65 55.7969 12.397 55.7969 12.001C55.8409 11.979 55.9179 11.484 56.0279 10.516V9.394L55.9949 7.876C55.9509 7.744 55.9289 7.601 55.9289 7.447C55.9289 7.293 55.9069 7.172 55.8629 7.084C55.8409 6.996 55.8189 6.853 55.7969 6.655C55.6869 5.753 55.4999 5.17 55.2359 4.906C55.2359 4.818 55.0599 4.62 54.7079 4.312L54.3779 4.246C54.0259 4.202 53.3989 4.444 52.4969 4.972C52.4529 4.972 52.2659 5.104 51.9359 5.368C51.6279 5.632 51.4409 5.808 51.3749 5.896C51.3089 5.918 51.1879 6.017 51.0119 6.193C50.3959 6.765 49.8569 8.503 49.3949 11.407ZM54.0149 0.714999C54.2569 0.714999 54.4989 0.714999 54.7409 0.714999L55.7639 0.946C56.0059 0.989999 56.2259 1.122 56.4239 1.342C57.7879 2.398 58.5139 3.168 58.6019 3.652C58.7119 3.916 58.7889 4.103 58.8329 4.213C58.8769 4.323 58.9209 4.433 58.9649 4.543V4.576C58.9649 4.62 58.9759 4.686 58.9979 4.774C59.1299 5.17 59.2509 5.819 59.3609 6.721C59.5369 7.579 59.5589 8.503 59.4269 9.493C59.4269 9.823 59.4049 10.076 59.3609 10.252C59.3829 10.494 59.3499 10.857 59.2619 11.341C59.3279 11.517 59.2619 11.792 59.0639 12.166C59.0639 12.43 58.9649 12.903 58.7669 13.585C58.8329 13.717 58.6459 14.344 58.2059 15.466C57.7659 16.588 57.2049 17.754 56.5229 18.964C56.2149 19.58 55.7199 20.273 55.0379 21.043C54.9059 21.241 54.5869 21.549 54.0809 21.967C53.5309 22.561 53.0249 22.935 52.5629 23.089C52.4969 23.111 52.3319 23.111 52.0679 23.089C51.8039 23.089 51.6389 23.056 51.5729 22.99C51.2869 22.99 51.0999 22.968 51.0119 22.924C50.9459 22.88 50.9019 22.858 50.8799 22.858C50.7699 22.814 50.6379 22.77 50.4839 22.726C50.3519 22.704 50.2089 22.66 50.0549 22.594C49.9009 22.528 49.8019 22.495 49.7579 22.495C49.7139 22.495 49.6699 22.484 49.6259 22.462C49.6039 22.44 49.5049 22.407 49.3289 22.363C49.1749 22.319 48.7459 22.121 48.0419 21.769C48.0199 21.769 47.9209 21.67 47.7449 21.472L47.2169 21.109C47.0629 21.109 46.9309 20.944 46.8209 20.614C46.6889 20.482 46.5899 20.328 46.5239 20.152C46.2819 20.152 46.0729 19.514 45.8969 18.238C45.7869 17.688 45.6989 17.039 45.6329 16.291C45.5889 16.203 45.5669 16.049 45.5669 15.829C45.5009 15.433 45.4679 15.059 45.4679 14.707C45.4239 14.531 45.4019 14.3 45.4019 14.014C45.4019 13.728 45.3909 13.574 45.3689 13.552C45.3469 13.53 45.3249 13.266 45.3029 12.76C45.3029 12.254 45.3139 11.99 45.3359 11.968C45.3579 11.924 45.3799 11.715 45.4019 11.341L45.4679 9.625V9.031L45.5339 7.711C45.5339 7.601 45.5669 7.381 45.6329 7.051C45.6769 7.007 45.7429 6.688 45.8309 6.094C46.0069 5.346 46.1279 4.906 46.1939 4.774C46.2819 4.62 46.3369 4.499 46.3589 4.411C46.4029 4.323 46.4579 4.235 46.5239 4.147C46.5899 4.059 46.6999 3.861 46.8539 3.553L47.4479 2.662C47.4479 2.618 47.5139 2.53 47.6459 2.398C47.7999 2.266 47.9209 2.189 48.0089 2.167C48.0529 2.035 48.1409 1.958 48.2729 1.936C48.4269 1.892 48.6579 1.771 48.9659 1.573C49.2079 1.485 49.3289 1.419 49.3289 1.375C49.7249 1.111 50.1869 0.978999 50.7149 0.978999L51.2099 1.012L52.1669 1.375C52.9589 1.067 53.4319 0.912998 53.5859 0.912998C53.6299 0.846999 53.7729 0.780999 54.0149 0.714999Z" fill="#DED3FB"/>
</svg>
