<svg width="42" height="33" viewBox="0 0 42 33" fill="none" xmlns="http://www.w3.org/2000/svg">
<path fill-rule="evenodd" clip-rule="evenodd" d="M4.63668 1.14274C2.69071 1.60993 1.31399 2.99601 1.06258 4.74124C1.00998 5.10629 0.98963 9.39135 1.00499 16.9035L1.02864 28.502L1.24538 29.0456C1.81423 30.4718 3.03139 31.4742 4.65654 31.8548C5.26335 31.9969 5.61441 32 21.0143 32C36.4142 32 36.7653 31.9969 37.3721 31.8548C39.0256 31.4676 40.2885 30.4066 40.8049 28.971L41 28.4284V16.4984V4.56848L40.8049 4.02589C40.2885 2.59024 39.0256 1.52929 37.3721 1.14208C36.765 0.999879 36.4217 0.996933 20.9813 1.00091C5.83823 1.00481 5.18791 1.01048 4.63668 1.14274ZM20.6122 6.51998V11.1594H18.0533H15.4943L13.2077 9.35791L10.9209 7.55634L6.47174 7.55369L2.02253 7.55097L2.04835 5.98608L2.07417 4.4212L2.33547 3.93214C2.89772 2.87988 4.00043 2.12313 5.25096 1.93145C5.36155 1.91451 8.86302 1.8961 13.0321 1.89057L20.6122 1.88056V6.51998ZM37.4349 2.07726C38.4715 2.43994 39.2284 3.06266 39.6959 3.93744L39.9545 4.4212L39.9804 5.9905C40.0013 7.25927 39.9858 7.5573 39.8999 7.5467C39.8415 7.53941 37.8683 7.53742 35.5152 7.54228L31.2367 7.55097L30.7701 7.9096C30.5134 8.10681 29.4531 8.91871 28.4138 9.71382L26.524 11.1594H24.0507H21.5773V6.51785V1.87629L29.278 1.89698C36.956 1.9176 36.9801 1.91819 37.4349 2.07726ZM11.5917 9.29642C12.1959 9.77045 13.1698 10.5361 13.7559 10.9979L14.8216 11.8376V13.9287V16.0198H8.42776H2.03395V12.2272V8.43467H6.26352H10.493L11.5917 9.29642ZM39.9947 12.2272V16.0198H33.6009H27.2071V13.9271V11.8343L29.4299 10.1345L31.6527 8.43467H35.8237H39.9947V12.2272ZM26.2225 16.5168L26.2432 20.9538H21.015H15.7867V16.5475C15.7867 14.1241 15.811 12.119 15.8409 12.0916C15.8707 12.0644 18.2141 12.0505 21.0484 12.061L26.2017 12.0799L26.2225 16.5168ZM14.721 16.9694C14.7989 16.9753 14.8216 17.4488 14.8216 19.0693V21.1616L12.6498 22.8619L10.478 24.5622H6.25604H2.03395V20.7704V16.9785L5.91447 16.9594C9.35072 16.9425 14.4456 16.9482 14.721 16.9694ZM36.1142 16.97L39.9947 16.9771V20.7696V24.5622H35.8236H31.6525L29.4298 22.861L27.2071 21.1597V19.0738C27.2071 17.1724 27.2191 16.9858 27.3432 16.9639C27.4182 16.9507 28.5491 16.9451 29.8565 16.9514C31.1639 16.9577 33.9798 16.9661 36.1142 16.97ZM20.6122 26.479V31.1205L12.831 31.0999C5.07017 31.0793 5.04869 31.0788 4.59373 30.9196C3.66297 30.594 2.94581 30.0523 2.47854 29.3223C2.10851 28.744 2.03596 28.3361 2.03492 26.8267L2.03395 25.4459L6.47745 25.4427L10.9209 25.4393L13.2113 23.6384L15.5016 21.8375H18.0569H20.6122V26.479ZM28.8911 23.6417L31.2519 25.4459H35.6233H39.9947V26.8317C39.9947 27.8795 39.9636 28.3151 39.8672 28.6175C39.5312 29.6715 38.6686 30.488 37.4349 30.9196C36.9801 31.0787 36.956 31.0793 29.278 31.0999L21.5773 31.1206V26.479V21.8375H24.0538H26.5303L28.8911 23.6417Z" fill="white" stroke="white" stroke-width="0.5"/>
</svg>
