<svg width="244" height="263" viewBox="0 0 244 263" fill="none" xmlns="http://www.w3.org/2000/svg">
<path d="M62.2413 214.381L108.939 162.972C111.431 160.229 118.612 158.869 124.945 159.936L235.195 178.486C241.476 179.533 244.617 182.673 242.167 185.395L195.479 236.804C194.478 237.767 193.267 238.483 191.941 238.897L131.739 260.807L66.2087 244.56V220.484C61.99 219.165 60.1791 216.652 62.2413 214.381Z" fill="#B6B4BF" stroke="#B6B4BF" stroke-miterlimit="10"/>
<path d="M0.804047 191.478L30.8893 186.244L48.3501 167.014C50.8415 164.271 58.0226 162.91 64.3558 163.978L108.259 171.306L182.488 158.503V205.39C182.466 206.124 182.163 206.821 181.641 207.337L134.942 258.746C132.461 261.488 125.28 262.849 118.947 261.781L8.64464 243.232C3.78745 242.415 0.824982 240.405 0.824982 238.27L0.804047 191.478Z" fill="black"/>
<path d="M0.814529 238.395V197.569L121.313 217.825C124.453 218.359 126.735 220.463 126.735 222.891V262.115C124.144 262.425 121.522 262.369 118.947 261.948L8.64465 243.398C3.77699 242.54 0.814529 240.53 0.814529 238.395Z" fill="#403C3C"/>
<path d="M0.804047 191.478L30.8893 186.244L48.3501 167.014C50.8415 164.271 58.0226 162.91 64.3558 163.978L108.259 171.306L182.488 158.503V205.39C182.466 206.124 182.163 206.821 181.641 207.337L134.942 258.746C132.461 261.488 125.28 262.849 118.947 261.781L8.64463 243.232C3.78744 242.415 0.824987 240.405 0.824987 238.27L0.804047 191.478Z" stroke="black" stroke-miterlimit="10" stroke-linecap="round"/>
<path d="M1.65205 189.562C-0.839355 192.305 2.30107 195.402 8.63426 196.459L118.936 215.019C125.217 216.066 132.451 214.726 134.932 211.984L181.63 160.564C184.121 157.822 180.992 154.734 174.658 153.666L64.3559 135.107C58.075 134.06 50.8416 135.411 48.3502 138.143L1.65205 189.562Z" fill="black" stroke="black" stroke-miterlimit="10" stroke-linecap="round"/>
<path d="M134.932 258.87L181.63 207.461C182.152 206.945 182.456 206.248 182.478 205.514V169.776" stroke="#403C3C" stroke-miterlimit="10" stroke-linecap="round"/>
<path d="M0.804047 57.7473L30.8893 52.5133L48.3501 33.2939C50.8415 30.5512 58.0226 29.1904 64.3558 30.2581L108.259 37.6381L182.488 24.8252V152.535C182.466 153.27 182.163 153.967 181.641 154.482L134.942 205.891C132.461 208.634 125.28 209.995 118.947 208.927L8.63417 190.43C3.77698 189.613 0.814514 187.604 0.814514 185.479L0.804047 57.7473Z" fill="#EBE9E9"/>
<path d="M0.814529 185.438V63.7666L121.313 84.0223C124.453 84.5562 126.735 86.6603 126.735 89.0889V209.095C124.145 209.414 121.523 209.36 118.947 208.938L8.63419 190.431C3.777 189.572 0.814529 187.563 0.814529 185.438Z" fill="white"/>
<path d="M0.804047 57.7473L30.8893 52.5133L48.3501 33.2939C50.8415 30.5512 58.0226 29.1904 64.3558 30.2581L108.259 37.6381L182.488 24.8252V152.535C182.466 153.27 182.163 153.967 181.641 154.482L134.942 205.891C132.461 208.634 125.28 209.995 118.947 208.927L8.63417 190.43C3.77698 189.613 0.814509 187.604 0.814509 185.478L0.804047 57.7473Z" stroke="black" stroke-miterlimit="10" stroke-linecap="round"/>
<path d="M1.65205 55.8106C-0.839355 58.5532 2.30107 61.6412 8.63426 62.7089L118.936 81.2689C125.217 82.3157 132.451 80.9757 134.932 78.2331L181.63 26.814C184.121 24.0713 180.992 20.9831 174.658 19.9154L64.3559 1.35548C58.075 0.308675 50.8416 1.64869 48.3502 4.39133L1.65205 55.8106Z" fill="white" stroke="black" stroke-miterlimit="10" stroke-linecap="round"/>
<path d="M79.3074 87.7492C78.7882 86.601 79.2299 85.28 80.2935 84.7987C81.3581 84.3173 82.6415 84.8579 83.1607 86.0063C83.6799 87.1545 83.2392 88.4757 82.1746 88.957C81.111 89.4383 79.8266 88.8976 79.3074 87.7492Z" fill="black"/>
<path d="M72.3974 86.5674C71.8782 85.4192 72.3199 84.0982 73.3835 83.6168C74.4481 83.1354 75.7315 83.6761 76.2507 84.8245C76.7699 85.9727 76.3292 87.2939 75.2646 87.7752C74.2011 88.2565 72.9177 87.7158 72.3974 86.5674Z" fill="black"/>
<path d="M65.4989 85.3858C64.9787 84.2375 65.4204 82.9163 66.485 82.435C67.5486 81.9537 68.832 82.4945 69.3522 83.6428C69.8715 84.791 69.4297 86.1122 68.3661 86.5935C67.3015 87.0749 66.0182 86.5341 65.4989 85.3858Z" fill="black"/>
<path d="M58.5889 84.2037C58.0697 83.0554 58.5115 81.7342 59.575 81.2529C60.6396 80.7715 61.923 81.3123 62.4422 82.4607C62.9615 83.6089 62.5207 84.93 61.4561 85.4113C60.3926 85.8926 59.1081 85.352 58.5889 84.2037Z" fill="black"/>
<path d="M51.68 83.0214C51.1598 81.873 51.6015 80.552 52.6661 80.0706C53.7297 79.5893 55.0131 80.13 55.5333 81.2783C56.0525 82.4266 55.6108 83.7477 54.5462 84.229C53.4826 84.7103 52.1992 84.1697 51.68 83.0214Z" fill="black"/>
<path d="M44.7606 81.8441C44.2404 80.6958 44.6821 79.3747 45.7467 78.8934C46.8103 78.4121 48.0937 78.9527 48.6139 80.1011C49.1331 81.2493 48.6914 82.5705 47.6278 83.0518C46.5632 83.5331 45.2798 82.9924 44.7606 81.8441Z" fill="black"/>
<path d="M93.141 97.6574C92.6217 96.509 93.0635 95.1879 94.1271 94.7064C95.1917 94.2249 96.475 94.7661 96.9943 95.9144C97.5145 97.0628 97.0728 98.3838 96.0082 98.8643C94.9446 99.3459 93.6612 98.8057 93.141 97.6574Z" fill="black"/>
<path d="M86.232 96.4756C85.7128 95.3273 86.1535 94.0062 87.2181 93.5246C88.2817 93.0431 89.5661 93.5843 90.0853 94.7327C90.6045 95.881 90.1628 97.2021 89.0992 97.6836C88.0346 98.1641 86.7512 97.624 86.232 96.4756Z" fill="black"/>
<path d="M79.3221 95.2937C78.8028 94.1454 79.2446 92.8243 80.3081 92.3428C81.3727 91.8612 82.6561 92.4024 83.1754 93.5508C83.6946 94.6991 83.2539 96.0202 82.1893 96.5017C81.1257 96.9822 79.8413 96.4421 79.3221 95.2937Z" fill="black"/>
<path d="M72.4121 94.1119C71.8929 92.9635 72.3346 91.6424 73.3982 91.1609C74.4628 90.6794 75.7462 91.2195 76.2654 92.3679C76.7856 93.5162 76.3439 94.8373 75.2793 95.3188C74.2157 95.8004 72.9323 95.2592 72.4121 94.1119Z" fill="black"/>
<path d="M65.5031 92.929C64.9839 91.7806 65.4246 90.4595 66.4892 89.978C67.5528 89.4971 68.8372 90.0377 69.3564 91.186C69.8756 92.3344 69.4339 93.6554 68.3703 94.137C67.3057 94.6185 66.0223 94.0773 65.5031 92.929Z" fill="black"/>
<path d="M58.5942 91.7514C58.075 90.603 58.5167 89.2822 59.5803 88.8008C60.6438 88.3195 61.9283 88.8603 62.4475 90.0084C62.9667 91.1568 62.5249 92.4779 61.4614 92.9594C60.3978 93.4409 59.1134 92.8997 58.5942 91.7514Z" fill="black"/>
<path d="M51.6842 90.5695C51.165 89.4216 51.6067 88.1004 52.6703 87.6191C53.7349 87.1378 55.0183 87.6785 55.5375 88.8268C56.0577 89.9749 55.616 91.296 54.5514 91.7775C53.4878 92.2591 52.2044 91.7179 51.6842 90.5695Z" fill="black"/>
<path d="M44.7753 89.388C44.2561 88.2396 44.6968 86.9187 45.7614 86.4373C46.8249 85.956 48.1094 86.4966 48.6286 87.6449C49.1478 88.7933 48.7061 90.1142 47.6425 90.5957C46.5779 91.0772 45.2945 90.536 44.7753 89.388Z" fill="black"/>
<path d="M37.8653 88.2057C37.3461 87.0574 37.7879 85.7364 38.8514 85.2551C39.916 84.7738 41.1994 85.3143 41.7186 86.4627C42.2378 87.611 41.7971 88.9321 40.7325 89.4134C39.669 89.8943 38.3845 89.3541 37.8653 88.2057Z" fill="black"/>
<path d="M30.9564 87.0241C30.4361 85.8758 30.8779 84.5546 31.9425 84.0733C33.006 83.592 34.2894 84.1327 34.8097 85.281C35.3289 86.4294 34.8871 87.7503 33.8236 88.2317C32.759 88.713 31.4756 88.1724 30.9564 87.0241Z" fill="black"/>
<path d="M100.055 106.373C99.5359 105.225 99.9766 103.903 101.041 103.422C102.105 102.941 103.389 103.481 103.908 104.629C104.428 105.777 103.986 107.099 102.922 107.58C101.858 108.062 100.574 107.52 100.055 106.373Z" fill="black"/>
<path d="M93.1567 105.19C92.6364 104.042 93.0782 102.721 94.1428 102.239C95.2063 101.758 96.4897 102.299 97.01 103.447C97.5292 104.596 97.0874 105.917 96.0239 106.398C94.9593 106.88 93.6759 106.339 93.1567 105.19Z" fill="black"/>
<path d="M91.9372 103.853C91.42 102.707 91.8628 101.389 92.9254 100.91C93.9879 100.431 95.2692 100.973 95.7852 102.12C96.3024 103.266 95.8596 104.584 94.797 105.064C93.7345 105.542 92.4532 105.001 91.9372 103.853Z" fill="black"/>
<path d="M79.3367 102.827C78.8175 101.678 79.2592 100.357 80.3228 99.8756C81.3863 99.3952 82.6708 99.9353 83.19 101.084C83.7092 102.232 83.2674 103.553 82.2039 104.035C81.1403 104.516 79.8559 103.975 79.3367 102.827Z" fill="black"/>
<path d="M72.4267 101.645C71.9075 100.496 72.3493 99.1753 73.4128 98.6938C74.4774 98.2133 75.7608 98.7534 76.28 99.9018C76.8003 101.05 76.3585 102.371 75.2939 102.853C74.2304 103.334 72.947 102.793 72.4267 101.645Z" fill="black"/>
<path d="M65.5084 100.467C64.9892 99.3187 65.4299 97.9976 66.4945 97.5171C67.558 97.0356 68.8414 97.5757 69.3617 98.7241C69.8809 99.8724 69.4392 101.194 68.3756 101.675C67.311 102.157 66.0276 101.615 65.5084 100.467Z" fill="black"/>
<path d="M58.6088 99.2853C58.0896 98.1369 58.5314 96.8159 59.5949 96.3343C60.6595 95.8528 61.9429 96.394 62.4621 97.5424C62.9813 98.6907 62.5406 100.012 61.476 100.493C60.4125 100.974 59.1291 100.434 58.6088 99.2853Z" fill="black"/>
<path d="M51.6999 98.1034C51.1796 96.9551 51.6214 95.634 52.686 95.1525C53.7496 94.6709 55.0329 95.2121 55.5522 96.3605C56.0724 97.5088 55.6307 98.8299 54.5671 99.3114C53.5025 99.7919 52.2191 99.2518 51.6999 98.1034Z" fill="black"/>
<path d="M44.7899 96.9214C44.2707 95.7731 44.7124 94.452 45.776 93.9705C46.8395 93.4889 48.124 94.0301 48.6432 95.1774C49.1624 96.3258 48.7207 97.6479 47.6571 98.1284C46.5925 98.6099 45.3091 98.0698 44.7899 96.9214Z" fill="black"/>
<path d="M37.8799 95.7398C37.3607 94.5914 37.8025 93.2703 38.866 92.7888C39.9306 92.3073 41.214 92.8485 41.7333 93.9968C42.2535 95.1452 41.8118 96.4662 40.7472 96.9467C39.6836 97.4283 38.4002 96.8881 37.8799 95.7398Z" fill="black"/>
<path d="M30.971 94.5579C30.4507 93.4095 30.8925 92.0885 31.9571 91.6069C33.0207 91.1254 34.304 91.6666 34.8243 92.8149C35.3435 93.9633 34.9018 95.2844 33.8382 95.7659C32.7736 96.2464 31.4902 95.7062 30.971 94.5579Z" fill="black"/>
<path d="M106.984 115.097C106.465 113.949 106.905 112.628 107.97 112.147C109.034 111.666 110.318 112.206 110.837 113.354C111.356 114.503 110.915 115.824 109.851 116.305C108.787 116.787 107.503 116.246 106.984 115.097Z" fill="black"/>
<path d="M100.074 113.915C99.5548 112.767 99.9965 111.446 101.06 110.964C102.125 110.483 103.408 111.024 103.927 112.172C104.446 113.321 104.006 114.642 102.941 115.123C101.878 115.605 100.593 115.064 100.074 113.915Z" fill="black"/>
<path d="M93.1755 112.734C92.6552 111.585 93.097 110.264 94.1616 109.783C95.2252 109.302 96.5085 109.842 97.0288 110.991C97.548 112.139 97.1063 113.46 96.0427 113.942C94.9781 114.423 93.6947 113.882 93.1755 112.734Z" fill="black"/>
<path d="M86.2656 111.552C85.7463 110.403 86.1881 109.082 87.2517 108.601C88.3163 108.12 89.5997 108.66 90.1189 109.809C90.6381 110.957 90.1963 112.278 89.1328 112.76C88.0692 113.241 86.7848 112.7 86.2656 111.552Z" fill="black"/>
<path d="M79.3461 110.374C78.8269 109.226 79.2687 107.905 80.3322 107.423C81.3968 106.943 82.6802 107.483 83.1994 108.631C83.7187 109.779 83.2779 111.101 82.2133 111.582C81.1498 112.064 79.8654 111.522 79.3461 110.374Z" fill="black"/>
<path d="M72.4372 109.192C71.9169 108.044 72.3587 106.723 73.4233 106.241C74.4869 105.76 75.7702 106.301 76.2905 107.449C76.8097 108.598 76.368 109.919 75.3044 110.399C74.2398 110.881 72.9564 110.341 72.4372 109.192Z" fill="black"/>
<path d="M65.5272 108.01C65.008 106.862 65.4498 105.541 66.5133 105.059C67.5769 104.578 68.8613 105.119 69.3805 106.267C69.8997 107.416 69.458 108.737 68.3944 109.218C67.3309 109.699 66.0464 109.159 65.5272 108.01Z" fill="black"/>
<path d="M58.6277 106.827C58.1085 105.679 58.5502 104.359 59.6138 103.878C60.6784 103.396 61.9618 103.936 62.481 105.085C63.0002 106.233 62.5595 107.554 61.4949 108.036C60.4313 108.517 59.1469 107.976 58.6277 106.827Z" fill="black"/>
<path d="M51.7188 105.647C51.1985 104.498 51.6402 103.177 52.7048 102.696C53.7684 102.214 55.0518 102.754 55.5721 103.903C56.0913 105.051 55.6495 106.372 54.586 106.854C53.5214 107.335 52.238 106.795 51.7188 105.647Z" fill="black"/>
<path d="M44.8088 104.465C44.2896 103.317 44.7313 101.995 45.7949 101.514C46.8595 101.032 48.1429 101.574 48.6621 102.722C49.1813 103.87 48.7395 105.191 47.676 105.672C46.6124 106.153 45.328 105.613 44.8088 104.465Z" fill="black"/>
<path d="M37.8894 103.287C37.3702 102.139 37.8119 100.818 38.8755 100.336C39.9401 99.8546 41.2235 100.396 41.7427 101.544C42.2619 102.693 41.8212 104.014 40.7566 104.494C39.6931 104.976 38.4086 104.435 37.8894 103.287Z" fill="black"/>
<path d="M30.9804 102.105C30.4601 100.957 30.9019 99.6359 31.9665 99.1544C33.0301 98.6729 34.3134 99.2141 34.8337 100.362C35.3529 101.511 34.9112 102.832 33.8476 103.312C32.783 103.794 31.4996 103.254 30.9804 102.105Z" fill="black"/>
<path d="M106.999 122.631C106.479 121.483 106.921 120.162 107.985 119.68C109.048 119.199 110.333 119.74 110.852 120.888C111.371 122.037 110.929 123.358 109.866 123.838C108.801 124.32 107.518 123.78 106.999 122.631Z" fill="black"/>
<path d="M100.089 121.449C99.5694 120.301 100.011 118.98 101.075 118.498C102.139 118.017 103.423 118.558 103.942 119.706C104.462 120.855 104.02 122.176 102.956 122.656C101.892 123.138 100.609 122.598 100.089 121.449Z" fill="black"/>
<path d="M93.1797 120.266C92.6594 119.118 93.1012 117.797 94.1658 117.316C95.2294 116.835 96.5127 117.375 97.032 118.523C97.5522 119.672 97.1105 120.993 96.0469 121.474C94.9823 121.956 93.6989 121.415 93.1797 120.266Z" fill="black"/>
<path d="M86.2708 119.09C85.7516 117.941 86.1933 116.62 87.2569 116.139C88.3205 115.657 89.6049 116.198 90.1241 117.347C90.6433 118.495 90.2016 119.816 89.138 120.298C88.0734 120.778 86.79 120.238 86.2708 119.09Z" fill="black"/>
<path d="M79.3608 117.907C78.8416 116.758 79.2833 115.437 80.3469 114.957C81.4115 114.475 82.6949 115.016 83.2141 116.164C83.7344 117.312 83.2926 118.633 82.228 119.115C81.1645 119.596 79.8811 119.055 79.3608 117.907Z" fill="black"/>
<path d="M72.4519 116.726C71.9327 115.578 72.3734 114.257 73.438 113.775C74.5015 113.294 75.786 113.835 76.3052 114.983C76.8244 116.132 76.3826 117.452 75.3191 117.933C74.2545 118.415 72.9711 117.875 72.4519 116.726Z" fill="black"/>
<path d="M65.5419 115.544C65.0227 114.396 65.4644 113.075 66.528 112.593C67.5926 112.112 68.876 112.653 69.3952 113.801C69.9144 114.95 69.4737 116.271 68.4091 116.751C67.3455 117.233 66.0611 116.693 65.5419 115.544Z" fill="black"/>
<path d="M58.6424 114.372C58.1232 113.225 58.5649 111.903 59.6285 111.422C60.6931 110.94 61.9765 111.481 62.4957 112.629C63.0159 113.777 62.5742 115.098 61.5096 115.58C60.446 116.061 59.1626 115.52 58.6424 114.372Z" fill="black"/>
<path d="M51.7334 113.19C51.2142 112.042 51.6549 110.721 52.7195 110.239C53.7831 109.759 55.0675 110.299 55.5867 111.447C56.1059 112.595 55.6642 113.916 54.6006 114.398C53.536 114.88 52.2526 114.338 51.7334 113.19Z" fill="black"/>
<path d="M44.814 112.012C44.2948 110.864 44.7365 109.543 45.8001 109.061C46.8647 108.58 48.1481 109.121 48.6673 110.269C49.1865 111.418 48.7458 112.739 47.6812 113.22C46.6176 113.702 45.3332 113.161 44.814 112.012Z" fill="black"/>
<path d="M37.904 110.831C37.3848 109.682 37.8266 108.361 38.8901 107.88C39.9547 107.398 41.2381 107.939 41.7573 109.088C42.2776 110.236 41.8358 111.557 40.7712 112.038C39.7077 112.519 38.4243 111.979 37.904 110.831Z" fill="black"/>
<path d="M30.9951 109.649C30.4758 108.5 30.9165 107.179 31.9812 106.698C33.0447 106.216 34.3291 106.757 34.8484 107.906C35.3676 109.054 34.9258 110.375 33.8623 110.857C32.7977 111.337 31.5143 110.797 30.9951 109.649Z" fill="black"/>
<path d="M113.923 131.357C113.403 130.209 113.845 128.888 114.909 128.406C115.973 127.925 117.256 128.466 117.776 129.614C118.296 130.763 117.854 132.083 116.79 132.564C115.726 133.046 114.442 132.506 113.923 131.357Z" fill="black"/>
<path d="M107.013 130.175C106.494 129.026 106.936 127.705 107.999 127.224C109.063 126.743 110.347 127.283 110.867 128.432C111.386 129.58 110.944 130.901 109.88 131.383C108.817 131.864 107.532 131.323 107.013 130.175Z" fill="black"/>
<path d="M100.103 128.993C99.5841 127.844 100.026 126.523 101.089 126.043C102.154 125.561 103.437 126.101 103.957 127.25C104.477 128.398 104.035 129.719 102.971 130.201C101.907 130.682 100.624 130.141 100.103 128.993Z" fill="black"/>
<path d="M93.1849 127.815C92.6657 126.667 93.1064 125.346 94.171 124.865C95.2346 124.383 96.518 124.924 97.0382 126.072C97.5575 127.22 97.1157 128.541 96.0521 129.023C94.9875 129.504 93.7042 128.963 93.1849 127.815Z" fill="black"/>
<path d="M86.2855 126.633C85.7662 125.485 86.208 124.164 87.2716 123.683C88.3362 123.202 89.6196 123.742 90.1388 124.89C90.658 126.038 90.2173 127.36 89.1527 127.841C88.0891 128.323 86.8047 127.781 86.2855 126.633Z" fill="black"/>
<path d="M79.3765 125.452C78.8562 124.304 79.298 122.983 80.3626 122.501C81.4261 122.02 82.7095 122.561 83.2298 123.708C83.749 124.857 83.3072 126.178 82.2437 126.659C81.1791 127.141 79.8957 126.601 79.3765 125.452Z" fill="black"/>
<path d="M72.4666 124.269C71.9473 123.121 72.388 121.8 73.4527 121.318C74.5162 120.838 75.7996 121.378 76.3199 122.526C76.8391 123.675 76.3973 124.996 75.3338 125.477C74.2692 125.959 72.9858 125.418 72.4666 124.269Z" fill="black"/>
<path d="M65.5565 123.088C65.0373 121.939 65.4791 120.618 66.5426 120.137C67.6072 119.656 68.8906 120.196 69.4098 121.345C69.929 122.493 69.4883 123.814 68.4237 124.296C67.3602 124.777 66.0757 124.236 65.5565 123.088Z" fill="black"/>
<path d="M58.6476 121.906C58.1273 120.757 58.569 119.436 59.6337 118.955C60.6972 118.473 61.9806 119.014 62.4998 120.163C63.0201 121.311 62.5783 122.632 61.5137 123.114C60.4502 123.594 59.1668 123.054 58.6476 121.906Z" fill="black"/>
<path d="M51.7386 120.728C51.2194 119.58 51.6601 118.259 52.7247 117.777C53.7883 117.296 55.0717 117.837 55.592 118.985C56.1112 120.133 55.6694 121.455 54.6059 121.936C53.5413 122.417 52.2579 121.876 51.7386 120.728Z" fill="black"/>
<path d="M44.8286 119.546C44.3094 118.398 44.7512 117.077 45.8147 116.595C46.8793 116.114 48.1627 116.655 48.6819 117.803C49.2012 118.952 48.7605 120.273 47.6959 120.754C46.6323 121.235 45.3479 120.695 44.8286 119.546Z" fill="black"/>
<path d="M37.9197 118.364C37.3994 117.216 37.8412 115.895 38.9058 115.413C39.9694 114.932 41.2528 115.473 41.772 116.62C42.2922 117.769 41.8505 119.09 40.7859 119.571C39.7223 120.053 38.4389 119.513 37.9197 118.364Z" fill="black"/>
<path d="M31.0097 117.183C30.4905 116.034 30.9312 114.713 31.9958 114.232C33.0594 113.75 34.3438 114.291 34.863 115.44C35.3823 116.588 34.9405 117.909 33.8769 118.389C32.8123 118.871 31.529 118.331 31.0097 117.183Z" fill="black"/>
<path d="M113.938 138.89C113.418 137.743 113.859 136.421 114.924 135.94C115.988 135.459 117.271 135.999 117.791 137.147C118.31 138.296 117.869 139.617 116.805 140.098C115.741 140.58 114.457 140.038 113.938 138.89Z" fill="black"/>
<path d="M107.019 137.713C106.499 136.564 106.941 135.243 108.005 134.762C109.068 134.28 110.353 134.821 110.872 135.97C111.391 137.118 110.949 138.439 109.886 138.921C108.822 139.401 107.538 138.861 107.019 137.713Z" fill="black"/>
<path d="M100.109 136.531C99.5893 135.382 100.031 134.061 101.095 133.58C102.159 133.098 103.443 133.639 103.962 134.788C104.482 135.936 104.04 137.257 102.976 137.739C101.912 138.22 100.629 137.679 100.109 136.531Z" fill="black"/>
<path d="M93.1996 135.349C92.6793 134.2 93.1211 132.879 94.1857 132.398C95.2492 131.917 96.5326 132.458 97.0529 133.606C97.5721 134.754 97.1304 136.075 96.0668 136.557C95.0022 137.038 93.7188 136.497 93.1996 135.349Z" fill="black"/>
<path d="M86.3001 134.167C85.7808 133.019 86.2226 131.698 87.2861 131.216C88.3507 130.735 89.6341 131.276 90.1534 132.424C90.6726 133.572 90.2319 134.893 89.1673 135.374C88.1037 135.856 86.8193 135.315 86.3001 134.167Z" fill="black"/>
<path d="M79.3901 132.985C78.8709 131.837 79.3126 130.516 80.3762 130.034C81.4408 129.553 82.7242 130.094 83.2434 131.242C83.7636 132.391 83.3219 133.712 82.2573 134.192C81.1937 134.674 79.9103 134.133 79.3901 132.985Z" fill="black"/>
<path d="M72.4811 131.803C71.9619 130.655 72.4026 129.334 73.4672 128.852C74.5308 128.371 75.8152 128.912 76.3344 130.06C76.8537 131.209 76.4119 132.53 75.3483 133.011C74.2837 133.492 73.0004 132.952 72.4811 131.803Z" fill="black"/>
<path d="M65.5618 130.626C65.0426 129.477 65.4843 128.156 66.5479 127.675C67.6125 127.193 68.8959 127.734 69.4151 128.883C69.9343 130.031 69.4936 131.352 68.429 131.834C67.3654 132.314 66.081 131.774 65.5618 130.626Z" fill="black"/>
<path d="M58.6528 129.444C58.1325 128.296 58.5743 126.974 59.6389 126.493C60.7025 126.011 61.9858 126.553 62.5061 127.701C63.0253 128.849 62.5836 130.17 61.52 130.652C60.4554 131.132 59.172 130.592 58.6528 129.444Z" fill="black"/>
<path d="M51.7533 128.262C51.2341 127.114 51.6748 125.792 52.7394 125.311C53.8029 124.829 55.0874 125.37 55.6066 126.518C56.1258 127.666 55.6841 128.987 54.6205 129.469C53.5559 129.95 52.2725 129.41 51.7533 128.262Z" fill="black"/>
<path d="M44.8433 127.079C44.3241 125.931 44.7659 124.61 45.8294 124.128C46.894 123.648 48.1774 124.188 48.6966 125.336C49.2158 126.484 48.7751 127.806 47.7105 128.287C46.647 128.769 45.3636 128.227 44.8433 127.079Z" fill="black"/>
<path d="M37.9344 125.897C37.4141 124.749 37.8559 123.428 38.9205 122.947C39.984 122.466 41.2674 123.006 41.7877 124.154C42.3069 125.303 41.8652 126.624 40.8016 127.105C39.737 127.587 38.4536 127.046 37.9344 125.897Z" fill="black"/>
<path d="M31.0244 124.715C30.5052 123.567 30.9469 122.246 32.0105 121.765C33.0751 121.284 34.3585 121.824 34.8777 122.972C35.3969 124.121 34.9562 125.442 33.8916 125.923C32.828 126.405 31.5436 125.864 31.0244 124.715Z" fill="black"/>
<path d="M113.943 146.428C113.424 145.28 113.865 143.959 114.929 143.477C115.993 142.996 117.277 143.537 117.796 144.685C118.316 145.834 117.874 147.154 116.81 147.635C115.746 148.117 114.462 147.577 113.943 146.428Z" fill="black"/>
<path d="M107.033 145.246C106.514 144.098 106.956 142.777 108.019 142.295C109.084 141.814 110.367 142.355 110.886 143.503C111.406 144.652 110.965 145.973 109.9 146.453C108.837 146.935 107.552 146.395 107.033 145.246Z" fill="black"/>
<path d="M100.124 144.064C99.604 142.916 100.046 141.595 101.11 141.114C102.174 140.632 103.457 141.173 103.978 142.322C104.497 143.47 104.055 144.791 102.991 145.271C101.927 145.753 100.643 145.213 100.124 144.064Z" fill="black"/>
<path d="M93.2143 142.883C92.695 141.734 93.1358 140.413 94.2004 139.932C95.2639 139.45 96.5473 139.991 97.0676 141.14C97.5868 142.288 97.145 143.609 96.0815 144.091C95.0169 144.571 93.7335 144.031 93.2143 142.883Z" fill="black"/>
<path d="M86.3147 141.7C85.7955 140.551 86.2373 139.23 87.3008 138.75C88.3654 138.268 89.6488 138.809 90.168 139.957C90.6883 141.105 90.2465 142.426 89.1819 142.908C88.1184 143.389 86.835 142.848 86.3147 141.7Z" fill="black"/>
<path d="M79.4058 140.518C78.8855 139.37 79.3273 138.049 80.3919 137.567C81.4554 137.087 82.7388 137.627 83.2591 138.775C83.7783 139.923 83.3366 141.244 82.273 141.726C81.2084 142.208 79.925 141.666 79.4058 140.518Z" fill="black"/>
<path d="M72.4864 139.34C71.9672 138.192 72.4089 136.871 73.4725 136.389C74.536 135.909 75.8205 136.449 76.3397 137.597C76.8589 138.746 76.4172 140.067 75.3536 140.548C74.29 141.03 73.0056 140.489 72.4864 139.34Z" fill="black"/>
<path d="M65.5764 138.158C65.0572 137.01 65.4989 135.689 66.5625 135.207C67.6271 134.727 68.9105 135.267 69.4297 136.415C69.95 137.564 69.5082 138.885 68.4436 139.366C67.38 139.848 66.0967 139.307 65.5764 138.158Z" fill="black"/>
<path d="M58.6675 136.977C58.1472 135.828 58.589 134.507 59.6536 134.026C60.7171 133.545 62.0005 134.085 62.5208 135.234C63.04 136.382 62.5982 137.703 61.5347 138.185C60.4701 138.666 59.1867 138.125 58.6675 136.977Z" fill="black"/>
<path d="M51.768 135.795C51.2488 134.646 51.6905 133.325 52.7541 132.844C53.8187 132.363 55.1021 132.903 55.6213 134.052C56.1405 135.2 55.6998 136.521 54.6352 137.003C53.5716 137.484 52.2872 136.943 51.768 135.795Z" fill="black"/>
<path d="M44.859 134.613C44.3387 133.465 44.7805 132.144 45.8451 131.662C46.9086 131.18 48.192 131.722 48.7112 132.87C49.2315 134.018 48.7898 135.339 47.7252 135.821C46.6616 136.301 45.3782 135.761 44.859 134.613Z" fill="black"/>
<path d="M37.9491 133.431C37.4299 132.283 37.8706 130.962 38.9352 130.48C39.9987 129.999 41.2832 130.54 41.8024 131.688C42.3216 132.836 41.8798 134.156 40.8163 134.638C39.7517 135.12 38.4683 134.579 37.9491 133.431Z" fill="black"/>
<path d="M31.0296 132.253C30.5104 131.105 30.9522 129.784 32.0157 129.302C33.0803 128.821 34.3637 129.362 34.8829 130.51C35.4022 131.659 34.9604 132.98 33.8968 133.461C32.8333 133.943 31.5489 133.402 31.0296 132.253Z" fill="black"/>
<path d="M119.648 153.688C119.132 152.542 119.574 151.224 120.637 150.744C121.7 150.266 122.98 150.807 123.497 151.954C124.013 153.102 123.571 154.419 122.508 154.898C121.446 155.376 120.165 154.835 119.648 153.688Z" fill="black"/>
<path d="M107.052 152.799C106.533 151.651 106.975 150.331 108.038 149.849C109.103 149.368 110.386 149.908 110.905 151.056C111.425 152.204 110.984 153.526 109.919 154.007C108.856 154.489 107.572 153.947 107.052 152.799Z" fill="black"/>
<path d="M100.143 151.618C99.6239 150.47 100.065 149.149 101.129 148.667C102.193 148.186 103.476 148.727 103.996 149.874C104.516 151.023 104.074 152.345 103.01 152.825C101.946 153.307 100.662 152.766 100.143 151.618Z" fill="black"/>
<path d="M93.2331 150.435C92.7139 149.287 93.1556 147.966 94.2192 147.484C95.2827 147.004 96.5672 147.544 97.0864 148.692C97.6056 149.841 97.1649 151.162 96.1003 151.643C95.0368 152.125 93.7523 151.584 93.2331 150.435Z" fill="black"/>
<path d="M86.3231 149.254C85.8039 148.105 86.2456 146.784 87.3092 146.303C88.3738 145.821 89.6572 146.362 90.1764 147.511C90.6956 148.659 90.2549 149.98 89.1903 150.462C88.1267 150.942 86.8434 150.402 86.3231 149.254Z" fill="black"/>
<path d="M79.4152 148.076C78.896 146.928 79.3367 145.606 80.4013 145.126C81.4649 144.644 82.7483 145.185 83.2685 146.333C83.7877 147.481 83.346 148.802 82.2824 149.284C81.2178 149.765 79.9344 149.224 79.4152 148.076Z" fill="black"/>
<path d="M72.5053 146.894C71.986 145.746 72.4278 144.425 73.4913 143.943C74.556 143.462 75.8393 144.003 76.3586 145.151C76.8778 146.299 76.436 147.621 75.3725 148.102C74.3089 148.583 73.0245 148.042 72.5053 146.894Z" fill="black"/>
<path d="M65.5952 145.712C65.076 144.564 65.5178 143.243 66.5813 142.761C67.6459 142.28 68.9293 142.821 69.4486 143.969C69.9688 145.118 69.5271 146.439 68.4625 146.92C67.3989 147.402 66.1155 146.861 65.5952 145.712Z" fill="black"/>
<path d="M58.6863 144.53C58.1671 143.382 58.6078 142.061 59.6724 141.579C60.736 141.098 62.0204 141.639 62.5396 142.787C63.0588 143.936 62.6171 145.257 61.5535 145.738C60.4889 146.22 59.2055 145.679 58.6863 144.53Z" fill="black"/>
<path d="M51.7763 143.349C51.2571 142.2 51.6989 140.879 52.7624 140.398C53.827 139.916 55.1104 140.457 55.6296 141.606C56.1489 142.754 55.7082 144.075 54.6435 144.555C53.58 145.037 52.2966 144.497 51.7763 143.349Z" fill="black"/>
<path d="M44.8778 142.167C44.3576 141.018 44.7993 139.697 45.8629 139.216C46.9275 138.734 48.2109 139.275 48.7301 140.424C49.2504 141.572 48.8086 142.893 47.744 143.374C46.6805 143.855 45.3971 143.315 44.8778 142.167Z" fill="black"/>
<path d="M37.9584 140.989C37.4382 139.841 37.8799 138.52 38.9445 138.038C40.0081 137.557 41.2915 138.098 41.8117 139.246C42.331 140.394 41.8892 141.716 40.8256 142.196C39.761 142.678 38.4777 142.137 37.9584 140.989Z" fill="black"/>
<path d="M31.0485 139.806C30.5292 138.658 30.971 137.337 32.0346 136.856C33.0981 136.375 34.3825 136.915 34.9018 138.063C35.421 139.212 34.9792 140.533 33.9157 141.014C32.8521 141.496 31.5677 140.954 31.0485 139.806Z" fill="black"/>
<path d="M113.977 161.515C113.457 160.366 113.899 159.045 114.963 158.564C116.027 158.083 117.311 158.624 117.83 159.772C118.349 160.92 117.908 162.241 116.844 162.723C115.78 163.204 114.497 162.663 113.977 161.515Z" fill="black"/>
<path d="M107.067 160.333C106.547 159.185 106.989 157.864 108.053 157.383C109.117 156.902 110.401 157.442 110.92 158.59C111.44 159.738 110.998 161.059 109.934 161.541C108.87 162.023 107.587 161.481 107.067 160.333Z" fill="black"/>
<path d="M100.158 159.151C99.6385 158.003 100.079 156.682 101.144 156.2C102.207 155.719 103.492 156.26 104.011 157.408C104.53 158.557 104.089 159.878 103.025 160.359C101.96 160.84 100.677 160.299 100.158 159.151Z" fill="black"/>
<path d="M93.2383 157.974C92.7191 156.825 93.1608 155.504 94.2244 155.023C95.289 154.541 96.5724 155.082 97.0916 156.231C97.6108 157.379 97.1701 158.7 96.1055 159.182C95.0419 159.662 93.7575 159.122 93.2383 157.974Z" fill="black"/>
<path d="M86.3283 156.792C85.8091 155.643 86.2509 154.322 87.3144 153.841C88.379 153.359 89.6624 153.9 90.1816 155.049C90.7019 156.197 90.2602 157.518 89.1955 158C88.132 158.48 86.8486 157.94 86.3283 156.792Z" fill="black"/>
<path d="M79.4299 155.61C78.9107 154.462 79.3514 153.14 80.416 152.659C81.4795 152.177 82.764 152.719 83.2832 153.867C83.8024 155.015 83.3606 156.335 82.2971 156.817C81.2325 157.298 79.9491 156.758 79.4299 155.61Z" fill="black"/>
<path d="M72.5199 154.428C72.0007 153.28 72.4424 151.958 73.506 151.477C74.5706 150.995 75.854 151.537 76.3732 152.685C76.8924 153.833 76.4517 155.154 75.3871 155.635C74.3236 156.116 73.0391 155.576 72.5199 154.428Z" fill="black"/>
<path d="M65.611 153.246C65.0907 152.098 65.5325 150.777 66.5971 150.295C67.6606 149.814 68.944 150.355 69.4643 151.503C69.9835 152.652 69.5417 153.973 68.4782 154.453C67.4136 154.935 66.1302 154.394 65.611 153.246Z" fill="black"/>
<path d="M58.701 152.063C58.1818 150.915 58.6235 149.594 59.6871 149.113C60.7506 148.632 62.0351 149.172 62.5543 150.32C63.0735 151.469 62.6318 152.79 61.5682 153.271C60.5046 153.753 59.2202 153.212 58.701 152.063Z" fill="black"/>
<path d="M51.7816 150.886C51.2624 149.737 51.7042 148.416 52.7677 147.936C53.8323 147.454 55.1157 147.994 55.6349 149.143C56.1541 150.291 55.7134 151.612 54.6488 152.094C53.5853 152.575 52.3008 152.034 51.7816 150.886Z" fill="black"/>
<path d="M44.8831 149.705C44.3629 148.556 44.8046 147.235 45.8692 146.754C46.9328 146.272 48.2162 146.812 48.7364 147.961C49.2556 149.109 48.8139 150.43 47.7503 150.912C46.6857 151.393 45.4023 150.853 44.8831 149.705Z" fill="black"/>
<path d="M37.9731 148.523C37.4539 147.375 37.8946 146.053 38.9592 145.572C40.0228 145.09 41.3062 145.631 41.8264 146.779C42.3457 147.927 41.9039 149.248 40.8404 149.73C39.7757 150.211 38.4924 149.671 37.9731 148.523Z" fill="black"/>
<path d="M31.0632 147.34C30.544 146.192 30.9857 144.871 32.0493 144.389C33.1139 143.909 34.3973 144.449 34.9165 145.597C35.4357 146.745 34.995 148.067 33.9304 148.548C32.8668 149.03 31.5824 148.488 31.0632 147.34Z" fill="black"/>
<path d="M107.081 167.867C106.562 166.719 107.004 165.398 108.067 164.916C109.132 164.434 110.415 164.976 110.935 166.124C111.454 167.272 111.013 168.593 109.949 169.075C108.885 169.557 107.602 169.015 107.081 167.867Z" fill="black"/>
<path d="M100.163 166.689C99.6437 165.541 100.084 164.22 101.149 163.738C102.213 163.257 103.497 163.798 104.016 164.946C104.535 166.095 104.094 167.416 103.03 167.897C101.966 168.379 100.682 167.838 100.163 166.689Z" fill="black"/>
<path d="M93.253 165.507C92.7338 164.359 93.1755 163.038 94.2391 162.556C95.3037 162.075 96.5871 162.616 97.1063 163.764C97.6255 164.913 97.1848 166.234 96.1202 166.714C95.0566 167.196 93.7722 166.656 93.253 165.507Z" fill="black"/>
<path d="M86.343 164.324C85.8238 163.176 86.2655 161.855 87.3291 161.373C88.3937 160.893 89.6771 161.433 90.1963 162.581C90.7155 163.73 90.2748 165.051 89.2102 165.532C88.1466 166.014 86.8633 165.473 86.343 164.324Z" fill="black"/>
<path d="M79.4445 163.143C78.9253 161.994 79.3671 160.673 80.4306 160.193C81.4952 159.711 82.7786 160.251 83.2978 161.4C83.817 162.548 83.3753 163.869 82.3117 164.351C81.2482 164.832 79.9637 164.291 79.4445 163.143Z" fill="black"/>
<path d="M72.5345 161.961C72.0153 160.813 72.4571 159.491 73.5206 159.011C74.5852 158.529 75.8686 159.07 76.3879 160.218C76.9081 161.366 76.4664 162.687 75.4018 163.169C74.3382 163.65 73.0548 163.109 72.5345 161.961Z" fill="black"/>
<path d="M65.6256 160.779C65.1053 159.631 65.5471 158.31 66.6106 157.828C67.6753 157.346 68.9586 157.888 69.4779 159.036C69.9981 160.184 69.5564 161.505 68.4928 161.987C67.4282 162.468 66.1448 161.927 65.6256 160.779Z" fill="black"/>
<path d="M58.7062 159.602C58.187 158.454 58.6287 157.133 59.6923 156.651C60.7559 156.17 62.0403 156.711 62.5595 157.859C63.0787 159.007 62.637 160.328 61.5734 160.809C60.5099 161.291 59.2254 160.751 58.7062 159.602Z" fill="black"/>
<path d="M51.7962 158.42C51.277 157.271 51.7188 155.95 52.7823 155.469C53.8469 154.988 55.1303 155.528 55.6495 156.677C56.1698 157.825 55.7281 159.146 54.6635 159.628C53.5999 160.109 52.3165 159.568 51.7962 158.42Z" fill="black"/>
<path d="M44.8977 157.238C44.3775 156.089 44.8192 154.768 45.8838 154.288C46.9474 153.806 48.2308 154.346 48.75 155.495C49.2703 156.643 48.8285 157.964 47.7639 158.446C46.7004 158.927 45.417 158.386 44.8977 157.238Z" fill="black"/>
<path d="M37.9878 156.056C37.4685 154.907 37.9093 153.586 38.9739 153.105C40.0374 152.623 41.3219 153.164 41.8411 154.313C42.3603 155.461 41.9185 156.782 40.855 157.264C39.7904 157.744 38.507 157.204 37.9878 156.056Z" fill="black"/>
<path d="M31.0778 154.874C30.5586 153.726 31.0003 152.404 32.0639 151.923C33.1285 151.441 34.4119 151.983 34.9311 153.131C35.4514 154.279 35.0096 155.6 33.945 156.082C32.8814 156.562 31.5981 156.022 31.0778 154.874Z" fill="black"/>
<path d="M107.087 175.404C106.567 174.255 107.009 172.934 108.073 172.454C109.137 171.972 110.421 172.513 110.94 173.661C111.46 174.809 111.018 176.13 109.954 176.612C108.89 177.093 107.607 176.552 107.087 175.404Z" fill="black"/>
<path d="M100.178 174.222C99.6584 173.074 100.099 171.753 101.164 171.271C102.227 170.791 103.512 171.331 104.031 172.479C104.55 173.628 104.108 174.949 103.045 175.43C101.98 175.912 100.697 175.37 100.178 174.222Z" fill="black"/>
<path d="M93.2676 173.041C92.7484 171.893 93.1902 170.571 94.2537 170.09C95.3173 169.609 96.6017 170.149 97.1209 171.297C97.6402 172.446 97.1984 173.767 96.1348 174.248C95.0713 174.73 93.7869 174.189 93.2676 173.041Z" fill="black"/>
<path d="M86.3576 171.858C85.8384 170.71 86.2802 169.389 87.3437 168.907C88.4083 168.426 89.6917 168.967 90.2109 170.115C90.7312 171.264 90.2895 172.585 89.2248 173.066C88.1613 173.548 86.8779 173.007 86.3576 171.858Z" fill="black"/>
<path d="M79.4487 170.676C78.9295 169.528 79.3702 168.207 80.4348 167.725C81.4984 167.244 82.7828 167.785 83.302 168.933C83.8212 170.081 83.3795 171.403 82.3159 171.883C81.2513 172.365 79.9679 171.825 79.4487 170.676Z" fill="black"/>
<path d="M72.5398 169.499C72.0206 168.351 72.4623 167.03 73.5259 166.548C74.5905 166.068 75.8739 166.608 76.3931 167.756C76.9123 168.904 76.4716 170.225 75.407 170.707C74.3434 171.189 73.059 170.647 72.5398 169.499Z" fill="black"/>
<path d="M65.6308 168.317C65.1106 167.169 65.5523 165.848 66.6169 165.366C67.6805 164.885 68.9639 165.426 69.4841 166.574C70.0034 167.723 69.5616 169.044 68.498 169.524C67.4334 170.006 66.15 169.466 65.6308 168.317Z" fill="black"/>
<path d="M58.7209 167.135C58.2016 165.987 58.6434 164.666 59.707 164.184C60.7716 163.703 62.0549 164.244 62.5742 165.392C63.0934 166.541 62.6527 167.862 61.5881 168.343C60.5245 168.824 59.2401 168.284 58.7209 167.135Z" fill="black"/>
<path d="M51.8119 165.953C51.2917 164.805 51.7334 163.484 52.797 163.002C53.8616 162.521 55.145 163.062 55.6642 164.21C56.1845 165.359 55.7427 166.68 54.6781 167.161C53.6145 167.642 52.3311 167.102 51.8119 165.953Z" fill="black"/>
<path d="M44.9124 164.771C44.3922 163.623 44.8339 162.302 45.8985 161.82C46.9621 161.339 48.2455 161.879 48.7657 163.027C49.2849 164.176 48.8432 165.497 47.7796 165.978C46.715 166.46 45.4316 165.919 44.9124 164.771Z" fill="black"/>
<path d="M38.0024 163.59C37.4832 162.441 37.925 161.12 38.9885 160.639C40.0531 160.157 41.3365 160.698 41.8557 161.847C42.375 162.994 41.9343 164.316 40.8697 164.797C39.8061 165.278 38.5217 164.738 38.0024 163.59Z" fill="black"/>
<path d="M31.0924 162.408C30.5732 161.26 31.015 159.938 32.0785 159.457C33.1431 158.975 34.4265 159.517 34.9457 160.665C35.466 161.813 35.0243 163.134 33.9597 163.615C32.8961 164.096 31.6127 163.556 31.0924 162.408Z" fill="black"/>
<path d="M100.196 181.776C99.6773 180.628 100.119 179.307 101.183 178.825C102.247 178.345 103.531 178.885 104.05 180.033C104.569 181.181 104.128 182.502 103.064 182.984C102 183.465 100.716 182.924 100.196 181.776Z" fill="black"/>
<path d="M93.2875 180.594C92.7673 179.446 93.209 178.124 94.2736 177.643C95.3372 177.161 96.6206 177.703 97.1408 178.851C97.6601 179.999 97.2183 181.32 96.1547 181.801C95.0901 182.282 93.8068 181.742 93.2875 180.594Z" fill="black"/>
<path d="M86.3776 179.412C85.8583 178.264 86.3001 176.943 87.3637 176.461C88.4272 175.98 89.7117 176.521 90.2309 177.669C90.7501 178.818 90.3083 180.139 89.2448 180.62C88.1812 181.101 86.8968 180.56 86.3776 179.412Z" fill="black"/>
<path d="M79.4581 178.234C78.9389 177.086 79.3806 175.765 80.4442 175.283C81.5088 174.802 82.7922 175.343 83.3114 176.491C83.8306 177.64 83.3899 178.961 82.3253 179.442C81.2618 179.923 79.9773 179.383 79.4581 178.234Z" fill="black"/>
<path d="M72.5586 177.051C72.0394 175.903 72.4812 174.582 73.5447 174.102C74.6093 173.62 75.8927 174.16 76.4119 175.309C76.9311 176.457 76.4905 177.778 75.4258 178.26C74.3623 178.741 73.0789 178.2 72.5586 177.051Z" fill="black"/>
<path d="M65.6497 175.871C65.1304 174.722 65.5712 173.401 66.6358 172.92C67.6993 172.438 68.9827 172.979 69.503 174.128C70.0222 175.276 69.5804 176.596 68.5169 177.078C67.4523 177.559 66.1689 177.019 65.6497 175.871Z" fill="black"/>
<path d="M58.7397 174.689C58.2204 173.541 58.6622 172.219 59.7258 171.738C60.7904 171.256 62.0737 171.798 62.593 172.946C63.1122 174.094 62.6715 175.415 61.6069 175.896C60.5433 176.377 59.2589 175.837 58.7397 174.689Z" fill="black"/>
<path d="M51.8308 173.506C51.3105 172.358 51.7523 171.037 52.8169 170.556C53.8804 170.075 55.1638 170.615 55.683 171.763C56.2033 172.911 55.7615 174.232 54.698 174.714C53.6334 175.196 52.35 174.654 51.8308 173.506Z" fill="black"/>
<path d="M44.9208 172.324C44.4016 171.176 44.8433 169.855 45.9069 169.374C46.9715 168.893 48.2549 169.433 48.7741 170.581C49.2933 171.73 48.8526 173.051 47.788 173.532C46.7244 174.014 45.44 173.473 44.9208 172.324Z" fill="black"/>
<path d="M38.0119 171.146C37.4927 169.998 37.9344 168.677 38.998 168.197C40.0626 167.715 41.346 168.255 41.8652 169.404C42.3854 170.552 41.9437 171.873 40.8791 172.354C39.8155 172.836 38.5321 172.295 38.0119 171.146Z" fill="black"/>
<path d="M31.1019 169.965C30.5827 168.816 31.0244 167.495 32.088 167.014C33.1526 166.532 34.436 167.073 34.9552 168.222C35.4744 169.37 35.0337 170.691 33.9691 171.173C32.9055 171.653 31.6221 171.113 31.1019 169.965Z" fill="black"/>
<path d="M93.3022 188.128C92.7819 186.98 93.2237 185.659 94.2883 185.177C95.3518 184.695 96.6352 185.237 97.1544 186.385C97.6747 187.532 97.2329 188.853 96.1683 189.335C95.1048 189.816 93.8214 189.276 93.3022 188.128Z" fill="black"/>
<path d="M86.3828 186.949C85.8636 185.802 86.3043 184.481 87.3689 183.999C88.4325 183.518 89.7169 184.058 90.2361 185.206C90.7553 186.355 90.3136 187.676 89.25 188.157C88.1854 188.639 86.902 188.098 86.3828 186.949Z" fill="black"/>
<path d="M79.4728 185.768C78.9536 184.62 79.3953 183.299 80.4589 182.817C81.5235 182.336 82.8069 182.877 83.3261 184.025C83.8453 185.173 83.4046 186.495 82.34 186.975C81.2764 187.457 79.993 186.917 79.4728 185.768Z" fill="black"/>
<path d="M72.5743 184.585C72.0541 183.437 72.4958 182.116 73.5594 181.636C74.624 181.154 75.9074 181.694 76.4266 182.842C76.9468 183.991 76.5051 185.312 75.4405 185.793C74.3769 186.275 73.0935 185.734 72.5743 184.585Z" fill="black"/>
<path d="M65.6643 183.404C65.1451 182.255 65.5858 180.934 66.6504 180.454C67.714 179.972 68.9984 180.512 69.5176 181.661C70.0369 182.809 69.5951 184.13 68.5315 184.612C67.4669 185.093 66.1836 184.552 65.6643 183.404Z" fill="black"/>
<path d="M58.7544 182.222C58.2352 181.073 58.6769 179.752 59.7405 179.271C60.8051 178.789 62.0885 179.33 62.6077 180.479C63.1279 181.627 62.6862 182.948 61.6216 183.43C60.558 183.91 59.2746 183.37 58.7544 182.222Z" fill="black"/>
<path d="M51.8454 181.04C51.3251 179.892 51.7669 178.571 52.8315 178.089C53.8951 177.607 55.1784 178.149 55.6987 179.297C56.2179 180.445 55.7762 181.766 54.7126 182.248C53.648 182.729 52.3646 182.188 51.8454 181.04Z" fill="black"/>
<path d="M44.926 179.862C44.4068 178.714 44.8475 177.393 45.9121 176.911C46.9757 176.43 48.2601 176.971 48.7793 178.119C49.2985 179.268 48.8568 180.589 47.7932 181.07C46.7286 181.552 45.4452 181.011 44.926 179.862Z" fill="black"/>
<path d="M38.0265 178.68C37.5073 177.532 37.949 176.211 39.0126 175.729C40.0761 175.249 41.3606 175.789 41.8798 176.937C42.399 178.086 41.9573 179.407 40.8937 179.888C39.8301 180.37 38.5457 179.829 38.0265 178.68Z" fill="black"/>
<path d="M31.1165 177.499C30.5973 176.35 31.0391 175.029 32.1026 174.548C33.1672 174.066 34.4506 174.607 34.9698 175.756C35.4901 176.904 35.0483 178.225 33.9837 178.706C32.9202 179.187 31.6368 178.647 31.1165 177.499Z" fill="black"/>
<path d="M79.4874 193.301C78.9682 192.153 79.41 190.832 80.4735 190.35C81.5381 189.869 82.8215 190.41 83.3407 191.558C83.8599 192.707 83.4192 194.028 82.3546 194.509C81.2911 194.99 80.0066 194.45 79.4874 193.301Z" fill="black"/>
<path d="M72.589 192.119C72.0687 190.971 72.5105 189.65 73.5751 189.168C74.6386 188.687 75.922 189.228 76.4423 190.376C76.9615 191.525 76.5198 192.846 75.4562 193.327C74.3916 193.809 73.1082 193.268 72.589 192.119Z" fill="black"/>
<path d="M65.679 190.938C65.1598 189.789 65.6016 188.468 66.6651 187.987C67.7297 187.506 69.0131 188.046 69.5323 189.195C70.0515 190.343 69.6098 191.664 68.5462 192.146C67.4827 192.627 66.1982 192.086 65.679 190.938Z" fill="black"/>
<path d="M58.7596 189.76C58.2404 188.611 58.6821 187.29 59.7457 186.809C60.8103 186.327 62.0937 186.869 62.6129 188.017C63.1321 189.164 62.6914 190.486 61.6268 190.967C60.5632 191.448 59.2788 190.908 58.7596 189.76Z" fill="black"/>
<path d="M51.8506 188.578C51.3303 187.43 51.7721 186.109 52.8367 185.627C53.9002 185.146 55.1836 185.687 55.7039 186.835C56.2231 187.983 55.7814 189.305 54.7178 189.785C53.6532 190.267 52.3698 189.726 51.8506 188.578Z" fill="black"/>
<path d="M44.9407 187.396C44.4215 186.248 44.8632 184.927 45.9268 184.445C46.9903 183.964 48.2748 184.505 48.794 185.653C49.3132 186.802 48.8714 188.123 47.8079 188.604C46.7443 189.085 45.4599 188.544 44.9407 187.396Z" fill="black"/>
<path d="M24.0621 93.3803C23.5429 92.2319 23.9836 90.9108 25.0482 90.4293C26.1117 89.9478 27.3951 90.489 27.9154 91.6373C28.4346 92.7857 27.9928 94.1067 26.9293 94.5883C25.8647 95.0688 24.5813 94.5286 24.0621 93.3803Z" fill="black"/>
<path d="M24.0809 100.922C23.5617 99.7741 24.0034 98.453 25.067 97.9726C26.1316 97.491 27.415 98.0312 27.9342 99.1795C28.4534 100.328 28.0127 101.649 26.9481 102.13C25.8845 102.612 24.6001 102.071 24.0809 100.922Z" fill="black"/>
<path d="M17.1709 99.7406C16.6517 98.5922 17.0935 97.2722 18.157 96.7907C19.2216 96.3091 20.505 96.8493 21.0242 97.9976C21.5445 99.146 21.1027 100.467 20.0381 100.949C18.9746 101.43 17.6912 100.889 17.1709 99.7406Z" fill="black"/>
<path d="M24.0956 108.467C23.5764 107.318 24.0181 105.997 25.0817 105.516C26.1463 105.034 27.4297 105.575 27.9489 106.724C28.4681 107.872 28.0263 109.193 26.9628 109.675C25.8992 110.155 24.6148 109.615 24.0956 108.467Z" fill="black"/>
<path d="M17.1856 107.285C16.6664 106.136 17.1081 104.815 18.1717 104.334C19.2363 103.852 20.5197 104.394 21.0389 105.542C21.5591 106.69 21.1174 108.011 20.0528 108.493C18.9892 108.973 17.7058 108.433 17.1856 107.285Z" fill="black"/>
<path d="M24.0998 116C23.5805 114.851 24.0223 113.53 25.0859 113.049C26.1505 112.568 27.4339 113.108 27.9531 114.257C28.4723 115.405 28.0316 116.726 26.967 117.208C25.9034 117.689 24.62 117.148 24.0998 116Z" fill="black"/>
<path d="M17.2002 114.818C16.681 113.669 17.1228 112.348 18.1874 111.868C19.2509 111.386 20.5343 111.927 21.0535 113.075C21.5738 114.223 21.132 115.544 20.0674 116.026C19.0039 116.507 17.7205 115.966 17.2002 114.818Z" fill="black"/>
<path d="M10.2819 113.64C9.76268 112.492 10.2034 111.171 11.268 110.69C12.3315 110.209 13.616 110.749 14.1352 111.897C14.6544 113.046 14.2127 114.367 13.1491 114.848C12.0845 115.33 10.8011 114.788 10.2819 113.64Z" fill="black"/>
<path d="M24.105 123.538C23.5857 122.389 24.0275 121.068 25.091 120.588C26.1557 120.106 27.439 120.646 27.9583 121.795C28.4775 122.943 28.0368 124.264 26.9722 124.746C25.9086 125.227 24.6242 124.686 24.105 123.538Z" fill="black"/>
<path d="M17.2065 122.356C16.6863 121.207 17.128 119.886 18.1926 119.405C19.2562 118.923 20.5396 119.465 21.0598 120.613C21.5791 121.761 21.1373 123.082 20.0738 123.564C19.0092 124.044 17.7258 123.504 17.2065 122.356Z" fill="black"/>
<path d="M10.2966 121.174C9.77736 120.026 10.2181 118.705 11.2827 118.223C12.3462 117.743 13.6307 118.283 14.1499 119.431C14.6691 120.579 14.2273 121.9 13.1638 122.382C12.0992 122.864 10.8158 122.322 10.2966 121.174Z" fill="black"/>
<path d="M24.1197 131.072C23.6004 129.923 24.0422 128.602 25.1058 128.121C26.1704 127.639 27.4537 128.18 27.973 129.329C28.4932 130.477 28.0515 131.798 26.9869 132.279C25.9233 132.76 24.6399 132.22 24.1197 131.072Z" fill="black"/>
<path d="M17.2212 129.89C16.701 128.741 17.1427 127.42 18.2073 126.939C19.2709 126.457 20.5542 126.998 21.0735 128.147C21.5937 129.295 21.152 130.616 20.0884 131.097C19.0238 131.578 17.7404 131.038 17.2212 129.89Z" fill="black"/>
<path d="M10.3112 128.708C9.792 127.559 10.2338 126.238 11.2973 125.757C12.3609 125.275 13.6453 125.816 14.1645 126.965C14.6837 128.113 14.242 129.434 13.1784 129.916C12.1138 130.396 10.8304 129.856 10.3112 128.708Z" fill="black"/>
<path d="M24.1385 138.624C23.6193 137.476 24.0611 136.155 25.1246 135.674C26.1892 135.193 27.4726 135.733 27.9918 136.881C28.5121 138.03 28.0703 139.351 27.0057 139.832C25.9422 140.314 24.6588 139.772 24.1385 138.624Z" fill="black"/>
<path d="M17.2296 137.443C16.7103 136.295 17.151 134.974 18.2157 134.493C19.2792 134.011 20.5636 134.552 21.0829 135.701C21.6021 136.849 21.1603 138.169 20.0968 138.65C19.0322 139.132 17.7488 138.592 17.2296 137.443Z" fill="black"/>
<path d="M10.33 136.26C9.8108 135.112 10.2526 133.791 11.3161 133.309C12.3807 132.829 13.6641 133.369 14.1833 134.517C14.7025 135.666 14.2618 136.987 13.1972 137.468C12.1337 137.95 10.8503 137.409 10.33 136.26Z" fill="black"/>
<path d="M24.1542 146.158C23.6339 145.01 24.0757 143.689 25.1403 143.208C26.2038 142.727 27.4872 143.267 28.0075 144.415C28.5267 145.564 28.0849 146.885 27.0214 147.366C25.9568 147.848 24.6734 147.307 24.1542 146.158Z" fill="black"/>
<path d="M17.2443 144.976C16.725 143.828 17.1668 142.507 18.2304 142.025C19.2939 141.544 20.5784 142.085 21.0976 143.233C21.6168 144.382 21.175 145.703 20.1115 146.184C19.0479 146.665 17.7635 146.125 17.2443 144.976Z" fill="black"/>
<path d="M10.3352 143.799C9.81602 142.65 10.2578 141.329 11.3213 140.848C12.3859 140.366 13.6693 140.907 14.1885 142.056C14.7088 143.204 14.2671 144.525 13.2024 145.007C12.1389 145.487 10.8555 144.947 10.3352 143.799Z" fill="black"/>
<path d="M24.1688 153.692C23.6496 152.544 24.0903 151.223 25.1549 150.741C26.2185 150.26 27.5029 150.801 28.0221 151.949C28.5413 153.097 28.0996 154.419 27.036 154.9C25.9714 155.382 24.688 154.84 24.1688 153.692Z" fill="black"/>
<path d="M17.2495 152.514C16.7302 151.366 17.1709 150.045 18.2355 149.563C19.2991 149.082 20.5835 149.623 21.1028 150.771C21.622 151.92 21.1802 153.24 20.1167 153.721C19.0521 154.203 17.7687 153.663 17.2495 152.514Z" fill="black"/>
<path d="M24.1741 161.229C23.6538 160.081 24.0956 158.76 25.1602 158.278C26.2238 157.798 27.5071 158.338 28.0274 159.486C28.5466 160.634 28.1049 161.956 27.0413 162.437C25.9767 162.919 24.6933 162.377 24.1741 161.229Z" fill="black"/>
<path d="M17.2641 160.047C16.7449 158.899 17.1866 157.578 18.2502 157.097C19.3148 156.616 20.5982 157.156 21.1174 158.304C21.6366 159.453 21.1949 160.774 20.1313 161.255C19.0678 161.737 17.7833 161.196 17.2641 160.047Z" fill="black"/>
<path d="M24.1929 168.783C23.6737 167.635 24.1144 166.313 25.179 165.832C26.2426 165.35 27.526 165.892 28.0462 167.04C28.5655 168.188 28.1237 169.509 27.0601 169.991C25.9955 170.472 24.7122 169.931 24.1929 168.783Z" fill="black"/>
<path d="M109.034 98.8676C107.098 97.0692 106.761 94.2857 108.28 92.6517C109.799 91.0166 112.599 91.1495 114.535 92.9479C116.47 94.7463 116.808 97.5298 115.288 99.1649C113.769 100.799 110.969 100.666 109.034 98.8676Z" fill="white" stroke="black" stroke-miterlimit="10"/>
<path d="M110.719 97.0241C110.523 96.4996 110.471 95.9323 110.568 95.3816C110.665 94.83 110.906 94.3149 111.27 93.8889C111.632 93.4628 112.103 93.1404 112.632 92.9572C113.16 92.774 113.728 92.7353 114.277 92.8452C114.826 92.9541 115.335 93.2095 115.752 93.5822C116.17 93.9548 116.481 94.4322 116.651 94.965C116.822 95.4978 116.848 96.0663 116.725 96.6127C116.602 97.1591 116.336 97.6626 115.953 98.0709C115.076 98.4394 114.109 98.5357 113.176 98.3493C112.243 98.163 111.387 97.7014 110.719 97.0241Z" fill="black" stroke="black" stroke-miterlimit="10"/>
<path d="M15.9514 80.8009C14.0232 79.0043 13.6903 76.2272 15.2072 74.5982C16.725 72.9691 19.519 73.1049 21.4472 74.9015C23.3764 76.6982 23.7093 79.4753 22.1915 81.1043C20.6746 82.7335 17.8807 82.5976 15.9514 80.8009Z" fill="white" stroke="black" stroke-width="0.997647" stroke-miterlimit="10"/>
<path d="M11.3978 80.2745C11.202 79.7502 11.1497 79.1832 11.2471 78.6319C11.3434 78.0807 11.5852 77.5653 11.9484 77.1392C12.3117 76.713 12.7817 76.3915 13.3103 76.208C13.839 76.0245 14.4063 75.9857 14.9559 76.0954C15.5044 76.2052 16.0142 76.4596 16.4319 76.8323C16.8485 77.2051 17.1594 77.6826 17.3301 78.2155C17.5007 78.7484 17.5269 79.3174 17.4033 79.8634C17.2809 80.4094 17.015 80.9127 16.6318 81.3213C15.7557 81.6924 14.7874 81.7909 13.8536 81.6042C12.9199 81.4175 12.0646 80.9542 11.3978 80.2745Z" fill="black" stroke="black" stroke-miterlimit="10"/>
<path d="M109.035 197.367C107.099 195.569 106.762 192.785 108.281 191.151C109.8 189.516 112.601 189.649 114.536 191.447C116.471 193.246 116.809 196.029 115.29 197.663C113.77 199.298 110.97 199.165 109.035 197.367Z" fill="white" stroke="black" stroke-miterlimit="10"/>
<path d="M110.719 195.517C110.523 194.993 110.471 194.426 110.568 193.875C110.665 193.323 110.906 192.808 111.27 192.382C111.632 191.956 112.103 191.635 112.632 191.451C113.16 191.267 113.728 191.228 114.277 191.338C114.826 191.448 115.335 191.703 115.752 192.075C116.17 192.448 116.481 192.925 116.651 193.458C116.822 193.991 116.848 194.56 116.725 195.106C116.602 195.652 116.336 196.156 115.953 196.564C115.076 196.934 114.109 197.032 113.176 196.845C112.242 196.658 111.387 196.196 110.719 195.517Z" fill="black" stroke="black" stroke-miterlimit="10"/>
<path d="M9.72182 180.611C7.78627 178.812 7.4492 176.029 8.96812 174.394C10.487 172.76 13.2873 172.892 15.2228 174.69C17.1584 176.488 17.4954 179.272 15.9765 180.907C14.4576 182.542 11.6574 182.409 9.72182 180.611Z" fill="white" stroke="black" stroke-miterlimit="10"/>
<path d="M11.3978 178.769C11.202 178.245 11.1497 177.678 11.246 177.127C11.3433 176.575 11.5851 176.06 11.9484 175.634C12.3106 175.208 12.7806 174.886 13.3092 174.703C13.8389 174.519 14.4063 174.481 14.9548 174.59C15.5044 174.699 16.0131 174.954 16.4308 175.327C16.8485 175.699 17.1584 176.178 17.33 176.71C17.5007 177.243 17.5258 177.812 17.4033 178.358C17.2808 178.905 17.0139 179.407 16.6318 179.816C15.7556 180.187 14.7873 180.285 13.8536 180.099C12.9198 179.913 12.0646 179.449 11.3978 178.769Z" fill="black" stroke="black" stroke-miterlimit="10"/>
<path d="M14.5435 234.449C7.16136 227.743 5.69898 217.33 11.2774 211.188C16.8548 205.048 27.3616 205.505 34.7437 212.211C42.1258 218.916 43.5882 229.33 38.0098 235.471C32.4313 241.613 21.9256 241.154 14.5435 234.449Z" stroke="black" stroke-miterlimit="10"/>
<path d="M7.39895 220.401L12.4446 214.842C17.0191 209.807 25.6343 210.174 31.6954 215.68C37.7564 221.186 38.9393 229.718 34.3647 234.753L29.3191 240.311L7.39895 220.401Z" fill="white"/>
<path d="M31.6954 215.669L20.8609 225.803" stroke="#634AFF" stroke-miterlimit="10"/>
<path d="M32.9516 216.956C37.8821 222.431 38.6044 230.093 34.3648 234.752L29.3192 240.311L18.9244 230.89L32.9516 216.956Z" fill="#EBE9E9"/>
<path d="M7.39895 220.401L12.4446 214.842C17.0191 209.807 25.6343 210.174 31.6954 215.68C37.7564 221.186 38.9393 229.718 34.3647 234.753L29.3191 240.311L7.39895 220.401Z" stroke="black" stroke-miterlimit="10"/>
<path d="M10.1091 239.338C4.05334 233.838 2.8537 225.295 7.4293 220.259C12.0038 215.221 20.6222 215.597 26.678 221.097C32.7328 226.598 33.9334 235.14 29.3578 240.177C24.7822 245.213 16.1649 244.838 10.1091 239.338Z" fill="white" stroke="black" stroke-miterlimit="10"/>
<path d="M8.69702 224.819C8.14011 224.313 8.03021 223.529 8.44998 223.066C8.86975 222.605 9.66114 222.639 10.217 223.145C10.7739 223.65 10.8838 224.434 10.464 224.897C10.0443 225.359 9.25287 225.324 8.69702 224.819Z" fill="black"/>
<path d="M112.624 225.592V252.401" stroke="black" stroke-miterlimit="10" stroke-linecap="round"/>
<path d="M101.036 223.645V250.454" stroke="black" stroke-miterlimit="10" stroke-linecap="round"/>
<path d="M89.4479 221.698V248.507" stroke="black" stroke-miterlimit="10" stroke-linecap="round"/>
<path d="M77.8492 219.74V246.549" stroke="black" stroke-miterlimit="10" stroke-linecap="round"/>
<path d="M54.6729 215.846V242.655" stroke="black" stroke-miterlimit="10" stroke-linecap="round"/>
<path d="M115.922 239.63C115.93 239.875 115.882 240.119 115.782 240.343C115.683 240.567 115.534 240.766 115.347 240.924C115.16 241.082 114.939 241.195 114.701 241.256C114.463 241.316 114.215 241.323 113.975 241.273L52.6839 230.962C52.149 230.853 51.6654 230.567 51.3136 230.149C50.9619 229.73 50.763 229.206 50.7473 228.659C50.7379 228.414 50.784 228.171 50.8824 227.946C50.9808 227.722 51.1283 227.523 51.3147 227.365C51.5021 227.207 51.7219 227.093 51.9595 227.033C52.1961 226.972 52.4442 226.967 52.6839 227.016L113.975 237.327C114.512 237.434 114.997 237.719 115.351 238.137C115.705 238.556 115.906 239.082 115.922 239.63Z" fill="black"/>
<path d="M75.3473 230.805L113.975 237.306C114.512 237.413 114.997 237.698 115.351 238.116C115.705 238.535 115.906 239.061 115.922 239.609C115.923 239.761 115.902 239.912 115.859 240.059C115.588 240.157 115.295 240.183 115.011 240.132L76.3837 233.632C75.8467 233.525 75.3609 233.239 75.0071 232.82C74.6533 232.403 74.4523 231.876 74.4366 231.329C74.4356 231.176 74.4565 231.024 74.4994 230.879C74.7716 230.784 75.0626 230.759 75.3473 230.805Z" fill="#634AFF"/>
<path d="M115.922 239.63C115.93 239.875 115.882 240.119 115.782 240.343C115.683 240.567 115.534 240.766 115.347 240.924C115.16 241.082 114.939 241.195 114.701 241.256C114.463 241.316 114.215 241.323 113.975 241.273L52.6839 230.962C52.149 230.853 51.6654 230.567 51.3136 230.149C50.9619 229.73 50.763 229.206 50.7473 228.659C50.7379 228.414 50.784 228.171 50.8824 227.946C50.9808 227.722 51.1284 227.523 51.3147 227.365C51.5021 227.207 51.7219 227.093 51.9595 227.033C52.1961 226.972 52.4442 226.967 52.6839 227.016L113.975 237.327C114.512 237.434 114.997 237.719 115.351 238.137C115.705 238.556 115.906 239.082 115.922 239.63Z" stroke="black" stroke-miterlimit="10"/>
<path d="M64.2302 234.396L68.8885 229.35C70.9821 227.037 74.9495 227.256 77.7236 229.737C80.4976 232.218 81.0629 236.186 78.9588 238.499L74.3005 243.545L64.2302 234.396Z" fill="white"/>
<path d="M78.1004 230.073C80.5499 232.595 80.9582 236.259 78.9588 238.447L74.3005 243.493L69.4014 239.033L78.1004 230.073Z" fill="#EBE9E9"/>
<path d="M64.2302 234.396L68.8885 229.35C70.9821 227.037 74.9495 227.256 77.7236 229.737C80.4976 232.218 81.0629 236.186 78.9588 238.499L74.3005 243.545L64.2302 234.396Z" stroke="black" stroke-miterlimit="10"/>
<path d="M65.4917 242.993C62.7103 240.466 62.1576 236.545 64.2564 234.233C66.3553 231.922 70.3122 232.097 73.0936 234.624C75.8749 237.151 76.4287 241.072 74.3299 243.384C72.23 245.694 68.2741 245.519 65.4917 242.993Z" fill="white" stroke="black" stroke-miterlimit="10"/>
</svg>
