<svg width="1920" height="846" viewBox="0 0 1920 846" fill="none" xmlns="http://www.w3.org/2000/svg">
<path d="M1920 256.473V588.813C1906.73 607.063 1891.33 624.423 1874.04 640.733C1813.14 698.153 1728.78 742.493 1630.99 766.683C1577.43 779.933 1519.83 787.143 1459.85 787.143C1324.57 787.143 1201.45 750.493 1109.33 690.513C1100.23 683.163 1090.43 676.253 1080.01 669.833C1078.66 669.003 1077.3 668.183 1075.92 667.363C1003.73 624.503 903.875 613.343 815.532 636.723C744.702 655.463 680.168 687.183 627.602 725.733C619.519 732.803 610.997 739.603 602.021 746.123C600.83 746.993 599.624 747.863 598.405 748.723C522.385 802.713 417.04 845.133 300.62 845.133C184.201 845.133 76.2186 788.323 0 733.143V0.0134277C101.247 87.9534 255.797 144.143 428.951 144.143C492.861 144.143 554.233 136.493 611.323 122.413C623.234 119.473 634.947 116.253 646.461 112.773C710.372 96.8234 779.16 88.1434 850.812 88.1434C954.144 88.1434 1051.49 106.183 1136.88 138.053C1194.87 159.673 1247.33 187.683 1292.4 220.743C1301.56 228.763 1311.3 236.433 1321.6 243.733C1397.62 297.723 1502.96 331.143 1619.38 331.143C1735.8 331.143 1844.35 295.303 1920 243.143V256.473Z" fill="#624AFF"/>
</svg>
