<svg width="24" height="24" viewBox="0 0 24 24" fill="none" xmlns="http://www.w3.org/2000/svg">
<path fill-rule="evenodd" clip-rule="evenodd" d="M5.88187 0.100616C4.46403 0.324739 3.12011 1.01829 2.07123 2.06717C1.00091 3.13755 0.322797 4.46947 0.0994867 5.94029C-0.0331622 6.81335 -0.0331622 17.1887 0.0994867 18.0618C0.562789 21.1126 2.99408 23.4912 6.10055 23.9329C6.68676 24.0162 17.3234 24.0162 17.9096 23.9329C19.7731 23.668 21.3914 22.7392 22.5087 21.2936C23.2639 20.3164 23.7623 19.1341 23.9369 17.9056C23.9744 17.6426 23.9995 15.2886 24 12.001C24.0007 7.55039 23.9841 6.42353 23.9107 5.94029C23.4464 2.88331 21.013 0.502624 17.9117 0.0712499C17.158 -0.0335946 6.56717 -0.0077898 5.88187 0.100616ZM19.3985 4.08858C20.0404 4.35682 20.197 5.19845 19.6977 5.69774C19.2924 6.103 18.7137 6.103 18.3084 5.69774C17.5357 4.92503 18.3883 3.66652 19.3985 4.08858ZM13.4513 6.18122C14.5651 6.47389 15.4386 6.98005 16.2561 7.80663C17.0607 8.62008 17.5789 9.5445 17.859 10.6662C18.0073 11.2602 18.0074 12.7416 17.8592 13.3352C17.5748 14.4735 17.0779 15.3569 16.2539 16.1891C15.3982 17.0532 14.5045 17.5642 13.3399 17.855C12.6846 18.0186 11.2584 18.0045 10.5875 17.8278C9.43896 17.5253 8.59927 17.0404 7.75407 16.1918C6.95168 15.3861 6.4319 14.46 6.15116 13.3358C6.00277 12.7416 6.00277 11.2605 6.15116 10.6662C6.43614 9.52494 6.95299 8.61183 7.78444 7.78038C8.76603 6.79873 9.68857 6.33637 11.2553 6.04089C11.6217 5.97172 12.9859 6.05895 13.4513 6.18122ZM11.1303 8.09935C9.67039 8.41289 8.40757 9.68733 8.09991 11.1575C7.50646 13.994 10.0122 16.4997 12.8486 15.9062C14.6432 15.5307 16.0017 13.8481 16.0017 12.001C16.0017 10.5258 15.1185 9.09075 13.8149 8.44819C12.9501 8.02181 12.0412 7.90372 11.1303 8.09935Z" fill="#624AFF"/>
</svg>
