<svg width="24" height="26" viewBox="0 0 24 26" fill="none" xmlns="http://www.w3.org/2000/svg">
<path fill-rule="evenodd" clip-rule="evenodd" d="M10.2754 1.10438C5.70824 1.76248 1.76358 5.20897 0.470559 9.67102C-1.22192 15.5113 1.77987 21.7553 7.40751 24.1005L7.77793 24.2549L7.79224 22.5194L7.80644 20.7839L8.53433 17.7164C9.25292 14.6878 9.26012 14.6431 9.10343 14.1832C8.8919 13.5622 8.96053 12.0517 9.22367 11.5391C9.46048 11.0777 9.87958 10.6234 10.244 10.433C10.6228 10.235 11.3262 10.2465 11.6814 10.4565C12.5024 10.9414 12.5399 11.7966 11.846 14.2029C11.3007 16.0938 11.2957 16.4443 11.8059 17.0254C12.1929 17.4661 12.708 17.6402 13.4109 17.5676C14.139 17.4924 14.6688 17.206 15.2713 16.5618C16.2197 15.548 16.6447 14.1596 16.5784 12.2923C16.5431 11.3018 16.5008 11.0935 16.2102 10.4757C15.7705 9.54107 15.1617 8.90428 14.2921 8.4692C12.2088 7.42699 9.58322 7.88265 8.12139 9.54013C6.75421 11.0903 6.50005 13.3796 7.51291 15.0231L7.82525 15.53L7.64004 16.2761C7.50351 16.8265 7.405 17.0316 7.26471 17.058C6.75013 17.1546 5.66384 15.9169 5.21832 14.7262C4.34063 12.3803 5.11009 9.39619 7.02487 7.72042C9.33753 5.69638 13.3255 5.36127 16.0557 6.96151C17.2535 7.6636 18.3618 9.0312 18.8466 10.4055C19.2854 11.6489 19.2435 13.47 18.7397 15.0586C17.8833 17.7586 15.6581 19.4862 13.2098 19.3517C12.2765 19.3005 11.6677 19.06 11.0954 18.5164L10.7663 18.2038L10.6053 18.7627C10.5167 19.07 10.3398 19.7402 10.2123 20.2521C10.0567 20.876 9.71944 21.7021 9.18867 22.7592C8.75317 23.6262 8.38275 24.3653 8.36531 24.4016C8.27599 24.5878 10.7881 25.0097 11.999 25.0119C15.1367 25.0177 18.2004 23.7361 20.467 21.4696C25.0874 16.8491 25.1883 9.4996 20.6966 4.73816C18.0765 1.96065 14.0575 0.559302 10.2754 1.10438Z" fill="#624AFF"/>
</svg>
