<svg width="24" height="24" viewBox="0 0 24 24" fill="none" xmlns="http://www.w3.org/2000/svg">
<path fill-rule="evenodd" clip-rule="evenodd" d="M1.27411 0.166392C0.722968 0.408227 0.148012 1.10718 0.0490612 1.65572C0.00526545 1.89824 -0.0125267 6.72659 0.00937117 12.3854C0.0486505 22.5322 0.0530302 22.6795 0.331407 23.0521C0.486608 23.26 0.783598 23.557 0.991491 23.7122C1.36567 23.9916 1.47653 23.9944 12.0246 23.9944C22.5727 23.9944 22.6835 23.9916 23.0577 23.7122C23.2656 23.557 23.5626 23.26 23.7178 23.0521C23.9971 22.678 24 22.5671 24 12.019C24 1.47096 23.9971 1.3601 23.7178 0.98592C23.5626 0.778027 23.2656 0.481037 23.0577 0.325836C22.6846 0.0471857 22.5475 0.0432166 12.1857 0.0133808C3.67042 -0.0111175 1.61284 0.0177603 1.27411 0.166392ZM14.3674 5.70519C16.0442 6.24018 16.8291 7.85392 16.1451 9.35994C16.0059 9.66638 15.6659 10.1035 15.3895 10.3312L14.8869 10.7455L15.5099 10.9835C18.1305 11.9844 18.1411 15.6971 15.5268 16.9259C14.5809 17.3706 13.4908 17.4935 10.4939 17.4935H7.64502V11.4586V5.42366L10.7586 5.48539C12.5526 5.52097 14.082 5.61404 14.3674 5.70519ZM10.9297 8.73435V9.82924H11.6886C12.6019 9.82924 13.1195 9.43316 13.1195 8.73435C13.1195 8.03553 12.6019 7.63945 11.6886 7.63945H10.9297V8.73435ZM10.9297 13.6614V15.3037H11.8921C13.1176 15.3037 13.6891 15.0691 13.9856 14.4445C14.2695 13.846 14.276 13.3563 14.0068 12.8357C13.6969 12.2365 13.1528 12.019 11.963 12.019H10.9297V13.6614Z" fill="#624AFF"/>
</svg>
